<?xml version="1.0" encoding="utf-8"?>
<!-- Generator: Adobe Illustrator 25.4.1, SVG Export Plug-In . SVG Version: 6.00 Build 0)  -->
<svg version="1.1" id="Calque_1" xmlns="http://www.w3.org/2000/svg" xmlns:xlink="http://www.w3.org/1999/xlink" x="0px" y="0px"
	 viewBox="0 0 12 14" style="enable-background:new 0 0 12 14;" xml:space="preserve">
<style type="text/css">
	.st0{fill:#646464;}
</style>
<g>
	<path class="st0" d="M1,12c0,1.1,0.9,2,2,2h6c1.1,0,2-0.9,2-2V4H1V12z"/>
	<path class="st0" d="M11,1H9c0-0.6-0.4-1-1-1H4C3.4,0,3,0.4,3,1H1C0.4,1,0,1.4,0,2c0,0.6,0.4,1,1,1h10c0.6,0,1-0.4,1-1
		C12,1.4,11.6,1,11,1z"/>
</g>
</svg>
