<?xml version="1.0" encoding="utf-8"?>
<!-- Generator: Adobe Illustrator 26.0.1, SVG Export Plug-In . SVG Version: 6.00 Build 0)  -->
<svg version="1.1" xmlns="http://www.w3.org/2000/svg" xmlns:xlink="http://www.w3.org/1999/xlink" x="0px" y="0px"
	 viewBox="0 0 224 14" style="enable-background:new 0 0 224 14;" xml:space="preserve">
<style type="text/css">
	.st0{fill:#F2F2F2;}
	.st1{fill:#DEDEDE;}
	.st2{display:none;}
	.st3{display:inline;}
</style>
<g id="Calque_1">
	<path class="st0" d="M7,8.3c-3.2,0-5.7,2.6-5.7,5.7h11.4C12.7,10.8,10.2,8.3,7,8.3z"/>
	<path class="st0" d="M125.9,11.4l-5.9-9.9C119.7,1.2,119.4,1,119,1c-0.4,0-0.7,0.2-0.9,0.5l-5.9,9.9c-0.2,0.3-0.2,0.7,0,1.1
		c0.2,0.3,0.5,0.5,0.9,0.5h11.9c0.4,0,0.7-0.2,0.9-0.5C126,12.1,126,11.7,125.9,11.4z M113.1,12L119,2l5.9,9.9H113.1z"/>
	<path class="st0" d="M119,5L119,5C119,5,119,5,119,5C119,5,119,5,119,5L119,5c-0.5,0-0.6,0.2-0.6,0.4l0.1,3.2
		c0,0.2,0.2,0.4,0.5,0.4v0c0,0,0,0,0,0s0,0,0,0v0c0.3,0,0.5-0.2,0.5-0.4l0.1-3.2C119.6,5.2,119.5,5,119,5z"/>
	<circle class="st0" cx="119" cy="10.5" r="0.5"/>
	<path class="st0" d="M154,8V6l-1.2-0.6c-0.1-0.5-0.3-1-0.6-1.4l0.4-1.3l-1.4-1.4L150,1.8c-0.4-0.2-0.9-0.4-1.4-0.6L148,0h-2
		l-0.6,1.2c-0.5,0.1-1,0.3-1.4,0.6l-1.3-0.4l-1.4,1.4l0.4,1.3c-0.2,0.4-0.4,0.9-0.6,1.4L140,6v2l1.2,0.6c0.1,0.5,0.3,1,0.6,1.4
		l-0.4,1.3l1.4,1.4l1.3-0.4c0.4,0.2,0.9,0.4,1.4,0.6L146,14h2l0.6-1.2c0.5-0.1,1-0.3,1.4-0.6l1.3,0.4l1.4-1.4l-0.4-1.3
		c0.2-0.4,0.4-0.9,0.6-1.4L154,8z M150.2,9.4C150.2,9.4,150.1,9.4,150.2,9.4c-0.2,0.3-0.5,0.5-0.7,0.7c0,0,0,0,0,0
		c-0.1,0.1-0.3,0.2-0.4,0.3c0,0,0,0,0,0c-0.1,0-0.1,0.1-0.2,0.1c-0.3,0.1-0.5,0.2-0.8,0.3l0,0c0,0,0,0-0.1,0c-0.1,0-0.2,0-0.3,0.1
		c-0.2,0-0.4,0.1-0.7,0.1s-0.5,0-0.7-0.1c-0.1,0-0.2,0-0.3-0.1c0,0,0,0-0.1,0c-0.3-0.1-0.5-0.2-0.8-0.3c-0.1,0-0.1-0.1-0.2-0.1
		c0,0,0,0,0,0c-0.1-0.1-0.3-0.2-0.4-0.3c0,0,0,0,0,0c-0.3-0.2-0.5-0.4-0.7-0.7c0,0,0,0,0,0c-0.1-0.1-0.2-0.3-0.3-0.4c0,0,0,0,0,0
		l0,0c0-0.1-0.1-0.1-0.1-0.2c-0.1-0.3-0.2-0.5-0.3-0.8c0,0,0,0,0-0.1c0-0.1,0-0.2-0.1-0.3c0-0.2-0.1-0.4-0.1-0.7
		c0-0.2,0-0.5,0.1-0.7c0-0.1,0-0.2,0.1-0.3c0,0,0,0,0-0.1l0,0c0.1-0.3,0.2-0.5,0.3-0.8c0-0.1,0.1-0.1,0.1-0.2c0,0,0,0,0,0
		c0.1-0.1,0.2-0.3,0.3-0.4c0,0,0,0,0,0c0.2-0.3,0.4-0.5,0.7-0.7c0,0,0,0,0,0c0.1-0.1,0.3-0.2,0.4-0.3c0,0,0,0,0,0
		c0.1,0,0.1-0.1,0.2-0.1c0.3-0.1,0.5-0.2,0.8-0.3l0,0c0,0,0,0,0.1,0c0.1,0,0.2,0,0.3-0.1c0.2,0,0.4-0.1,0.7-0.1s0.5,0,0.7,0.1
		c0.1,0,0.2,0,0.3,0.1c0,0,0,0,0.1,0l0,0c0.3,0.1,0.6,0.2,0.8,0.3c0.1,0,0.1,0.1,0.2,0.1c0,0,0,0,0,0c0.1,0.1,0.3,0.2,0.4,0.3
		c0,0,0,0,0,0c0.3,0.2,0.5,0.4,0.7,0.7c0,0,0,0,0,0c0.1,0.1,0.2,0.3,0.3,0.4c0,0,0,0,0,0c0,0.1,0.1,0.1,0.1,0.2
		c0.1,0.3,0.2,0.5,0.3,0.8c0,0,0,0,0,0.1c0,0.1,0,0.2,0.1,0.3c0,0.2,0.1,0.4,0.1,0.7c0,0.2,0,0.5-0.1,0.7c0,0.1,0,0.2-0.1,0.3
		c0,0,0,0,0,0.1c-0.1,0.3-0.2,0.5-0.3,0.8c0,0.1-0.1,0.1-0.1,0.2l0,0c0,0,0,0,0,0C150.4,9.2,150.3,9.3,150.2,9.4z"/>
	<path class="st0" d="M179,7.6V6.4l-0.7-0.3c-0.1-0.3-0.2-0.5-0.3-0.8l0.3-0.7l-0.8-0.8L176.7,4c-0.2-0.1-0.5-0.3-0.8-0.3L175.6,3
		h-1.1l-0.3,0.7c-0.3,0.1-0.5,0.2-0.8,0.3l-0.7-0.3l-0.8,0.8l0.3,0.7c-0.1,0.2-0.3,0.5-0.3,0.8L171,6.4v1.1l0.7,0.3
		c0.1,0.3,0.2,0.5,0.3,0.8l-0.3,0.7l0.8,0.8l0.7-0.3c0.2,0.1,0.5,0.3,0.8,0.3l0.3,0.7h1.1l0.3-0.7c0.3-0.1,0.5-0.2,0.8-0.3l0.7,0.3
		l0.8-0.8L178,8.7c0.1-0.2,0.3-0.5,0.3-0.8L179,7.6z M176.8,8.4C176.8,8.4,176.8,8.4,176.8,8.4c-0.1,0.2-0.3,0.3-0.4,0.4
		c0,0,0,0,0,0c-0.1,0.1-0.2,0.1-0.2,0.2c0,0,0,0,0,0c0,0-0.1,0-0.1,0.1c-0.1,0.1-0.3,0.1-0.5,0.2l0,0c0,0,0,0,0,0
		c-0.1,0-0.1,0-0.2,0c-0.1,0-0.3,0-0.4,0s-0.3,0-0.4,0c-0.1,0-0.1,0-0.2,0c0,0,0,0,0,0c-0.2,0-0.3-0.1-0.5-0.2c0,0-0.1,0-0.1-0.1
		c0,0,0,0,0,0c-0.1,0-0.2-0.1-0.2-0.2c0,0,0,0,0,0c-0.1-0.1-0.3-0.2-0.4-0.4c0,0,0,0,0,0c-0.1-0.1-0.1-0.2-0.2-0.2c0,0,0,0,0,0l0,0
		c0,0,0-0.1-0.1-0.1c-0.1-0.1-0.1-0.3-0.2-0.5c0,0,0,0,0,0c0-0.1,0-0.1,0-0.2c0-0.1,0-0.3,0-0.4c0-0.1,0-0.3,0-0.4
		c0-0.1,0-0.1,0-0.2c0,0,0,0,0,0l0,0c0-0.2,0.1-0.3,0.2-0.5c0,0,0-0.1,0.1-0.1c0,0,0,0,0,0c0-0.1,0.1-0.2,0.2-0.2c0,0,0,0,0,0
		c0.1-0.1,0.2-0.3,0.4-0.4c0,0,0,0,0,0c0.1-0.1,0.2-0.1,0.2-0.2c0,0,0,0,0,0c0,0,0.1,0,0.1-0.1c0.1-0.1,0.3-0.1,0.5-0.2l0,0
		c0,0,0,0,0,0c0.1,0,0.1,0,0.2,0c0.1,0,0.3,0,0.4,0s0.3,0,0.4,0c0.1,0,0.1,0,0.2,0c0,0,0,0,0,0l0,0c0.2,0,0.3,0.1,0.5,0.2
		c0,0,0.1,0,0.1,0c0,0,0,0,0,0c0.1,0,0.2,0.1,0.2,0.2c0,0,0,0,0,0c0.1,0.1,0.3,0.2,0.4,0.4c0,0,0,0,0,0c0.1,0.1,0.1,0.2,0.2,0.2
		c0,0,0,0,0,0c0,0,0,0.1,0.1,0.1c0.1,0.1,0.1,0.3,0.2,0.5c0,0,0,0,0,0c0,0.1,0,0.1,0,0.2c0,0.1,0,0.3,0,0.4c0,0.1,0,0.3,0,0.4
		c0,0.1,0,0.1,0,0.2c0,0,0,0,0,0c0,0.2-0.1,0.3-0.2,0.5c0,0,0,0.1-0.1,0.1l0,0c0,0,0,0,0,0C176.9,8.2,176.9,8.3,176.8,8.4z"/>
	<circle class="st0" cx="7" cy="4" r="3"/>
	<path class="st0" d="M27,6.5C26.7,3.4,24.1,1,21,1s-5.7,2.4-6,5.5h0v1h0c0.3,3.1,2.8,5.5,6,5.5s5.7-2.4,6-5.5h0L27,6.5L27,6.5z
		 M21,12c-0.5,0-1.2-0.8-1.6-2.1c0.5,0.1,1,0.1,1.6,0.1s1.1,0,1.6-0.1C22.2,11.2,21.5,12,21,12z M21,9c-0.7,0-1.3-0.1-1.8-0.2
		C19.1,8.4,19,8,19,7.5h4c0,0.5-0.1,0.9-0.1,1.3C22.3,8.9,21.7,9,21,9z M21,2c0.5,0,1.2,0.8,1.6,2.1C22.1,4,21.6,4,21,4
		s-1.1,0-1.6,0.1C19.8,2.8,20.5,2,21,2z M21,5c0.7,0,1.3,0.1,1.8,0.2C22.9,5.6,23,6,23,6.5h-4c0-0.5,0.1-0.9,0.1-1.3
		C19.7,5.1,20.3,5,21,5z M24,6.5c0-0.4,0-0.7-0.1-1.1c0.9,0.3,1.6,0.7,1.9,1.1H24z M18,6.5h-1.8c0.3-0.4,1-0.8,1.9-1.1
		C18.1,5.8,18,6.1,18,6.5z M16.2,7.5H18c0,0.4,0,0.7,0.1,1.1C17.2,8.3,16.5,7.9,16.2,7.5z M24,7.5h1.8c-0.3,0.4-1,0.8-1.9,1.1
		C23.9,8.2,24,7.9,24,7.5z M25.6,5.1c-0.5-0.3-1.2-0.6-1.9-0.8c-0.2-0.7-0.4-1.4-0.8-1.9C24.1,2.9,25.1,3.9,25.6,5.1z M19.1,2.4
		c-0.3,0.5-0.6,1.2-0.8,1.9c-0.7,0.2-1.4,0.4-1.9,0.8C16.9,3.9,17.9,2.9,19.1,2.4z M16.4,8.9c0.5,0.3,1.2,0.6,1.9,0.8
		c0.2,0.7,0.4,1.4,0.8,1.9C17.9,11.1,16.9,10.1,16.4,8.9z M22.9,11.6c0.3-0.5,0.6-1.2,0.8-1.9c0.7-0.2,1.4-0.4,1.9-0.8
		C25.1,10.1,24.1,11.1,22.9,11.6z"/>
	<path class="st0" d="M31.8,13c-0.7,0-1.5-0.3-2-0.8c-1.1-1.1-1.1-2.9,0-4l2.4-2.4c1.1-1.1,2.9-1.1,4,0c0.2,0.2,0.4,0.5,0.5,0.8
		c0.1,0.3,0,0.6-0.3,0.8c-0.3,0.1-0.6,0-0.8-0.3c-0.1-0.2-0.2-0.3-0.3-0.5c-0.7-0.7-1.7-0.7-2.4,0l-2.4,2.4c-0.7,0.7-0.7,1.7,0,2.4
		c0.7,0.7,1.8,0.7,2.4,0l1.3-1.3c0.2-0.2,0.6-0.2,0.8,0c0.2,0.2,0.2,0.6,0,0.8l-1.3,1.3C33.3,12.7,32.6,13,31.8,13z"/>
	<path class="st0" d="M35.7,9.1c-0.7,0-1.5-0.3-2-0.8c-0.2-0.2-0.4-0.5-0.5-0.7c-0.1-0.3,0-0.6,0.2-0.8c0.3-0.1,0.6,0,0.8,0.2
		c0.1,0.2,0.2,0.3,0.3,0.4c0.7,0.7,1.7,0.7,2.4,0l2.4-2.4c0.7-0.7,0.7-1.8,0-2.4c-0.1-0.1-0.3-0.2-0.5-0.3c-0.7-0.3-1.4-0.2-2,0.3
		L35.6,4c-0.2,0.2-0.6,0.2-0.8,0c-0.2-0.2-0.2-0.6,0-0.8l1.3-1.3C37,1,38.3,0.8,39.4,1.3c0.3,0.1,0.5,0.3,0.8,0.5
		c1.1,1.1,1.1,2.9,0,4l-2.4,2.4C37.2,8.8,36.5,9.1,35.7,9.1z"/>
	<path class="st0" d="M52.4,6L51,4.6l0.7-1.9l2.4-0.6C53.2,1.2,52,0.7,50.7,1c-1.9,0.4-3,2.3-2.6,4.2c0,0.1,0.1,0.3,0.1,0.4
		l-4.8,4.8c-0.6,0.6-0.6,1.5,0,2.1c0.6,0.6,1.5,0.6,2.1,0l4.8-4.8C51,8,51.6,8,52.3,7.9c1.3-0.3,2.2-1.3,2.5-2.4L52.4,6z"/>
	<path class="st0" d="M203,4c3.4,0,4.6,2.2,4.9,3c-0.3,0.8-1.6,3-4.9,3c-3.4,0-4.6-2.2-4.9-3C198.4,6.2,199.7,4,203,4 M203,3
		c-4.9,0-6,4-6,4s1.1,4,6,4s6-4,6-4S207.9,3,203,3L203,3z"/>
	<path class="st0" d="M217,4c3.4,0,4.6,2.2,4.9,3c-0.3,0.8-1.6,3-4.9,3c-3.4,0-4.6-2.2-4.9-3C212.4,6.2,213.6,4,217,4 M217,3
		c-4.9,0-6,4-6,4s1.1,4,6,4s6-4,6-4S221.8,3,217,3L217,3z"/>
	<path class="st0" d="M203,4c1.7,0,3,1.3,3,3s-1.3,3-3,3s-3-1.3-3-3S201.3,4,203,4 M203,3c-2.2,0-4,1.8-4,4s1.8,4,4,4s4-1.8,4-4
		S205.2,3,203,3L203,3z"/>
	<g>
		<circle class="st0" cx="203" cy="7" r="1.5"/>
	</g>
	<path class="st0" d="M195,5.2L190.9,1l-1.9,1.9l0,0L183,8.9l0,0V13h4.1v0L195,5.2L195,5.2L195,5.2z M184,12v-0.7l0.7,0.7H184z
		 M193.1,5.7l-2.7-2.7l0.5-0.5l2.7,2.7L193.1,5.7z M189.6,3.6l1,1l-5.9,5.9l-1-1L189.6,3.6z M186.5,12.3l-1-1l5.9-5.9l1,1
		L186.5,12.3z"/>
	<g>
		<path class="st1" d="M94.2,2.8v1.5v6.9h-6.4V2.8h4.9H94.2 M95,2h-2.3H87v10h8V4.3V2L95,2z"/>
	</g>
	<g>
		<rect x="88.5" y="5" class="st1" width="5" height="1"/>
	</g>
	<g>
		<rect x="88.5" y="7" class="st1" width="5" height="1"/>
	</g>
	<g>
		<rect x="88.5" y="9" class="st1" width="5" height="1"/>
	</g>
	<g>
		<path class="st0" d="M172.3,2.6l0.9,0.3c0,0,0.1,0,0.1-0.1l0.4-0.9H169v2h1.9L172.3,2.6z"/>
		<path class="st0" d="M176.2,2l0.4,0.9c0,0,0.1,0,0.1,0.1l0.9-0.3l1.4,1.4h1.9V2H176.2z"/>
	</g>
	<g>
		<rect x="169" y="6" class="st0" width="1" height="2"/>
		<rect x="180" y="6" class="st0" width="1" height="2"/>
	</g>
	<g>
		<path class="st0" d="M173.2,11.1l-0.9,0.3l-1.4-1.4H169v2h4.8l-0.4-0.9C173.3,11.1,173.3,11.1,173.2,11.1z"/>
		<path class="st0" d="M179.1,10l-1.4,1.4l-0.9-0.3c0,0-0.1,0-0.1,0.1l-0.4,0.9h4.8v-2H179.1z"/>
	</g>
	<path class="st0" d="M149,6h-1V5c0-0.6-0.4-1-1-1s-1,0.4-1,1v1h-1c-0.6,0-1,0.4-1,1c0,0.6,0.4,1,1,1h1v1c0,0.6,0.4,1,1,1s1-0.4,1-1
		V8h1c0.6,0,1-0.4,1-1C150,6.4,149.6,6,149,6z"/>
	<path class="st0" d="M110.7,6.6l-5-5.2c-0.5-0.5-0.6-0.5-1.1,0c0,0-1.7,2-2,1.2c-0.3-0.8-0.2-1.1-1.4-1.2c-1.1,0-1.2,0.6-1.5,1.2
		c-0.3,0.7,0,1.3,0.8,1.6c1.4,0.5-1.3,2.5-1.3,2.5c-0.3,0.3-0.3,0.5,0,0.8c0.1,0.1,0.3,0.3,0.4,0.4c0,0,0.8,0.7,1.2,1.2
		c0.4,0.5-0.2,0.8-0.2,0.8c-0.7,0-1.1,0.5-1.1,1.2c0,0.7,0.6,1.4,1.3,1.5c0.6,0.1,1.3-0.2,1.4-0.8c0,0,0.1-1,0.7-0.7
		s1.6,1.8,1.6,1.8c0.3,0.3,0.5,0.3,0.8,0l5.5-4.8C111.1,7.7,111,6.9,110.7,6.6z M107,8h-1v1c0,0.6-0.4,1-1,1s-1-0.4-1-1V8h-1
		c-0.6,0-1-0.4-1-1c0-0.6,0.4-1,1-1h1V5c0-0.6,0.4-1,1-1s1,0.4,1,1v1h1c0.6,0,1,0.4,1,1C108,7.6,107.6,8,107,8z"/>
	<g>
		<g>
			<path class="st0" d="M133.2,11.3c-0.2,0.2-0.4,0.2-0.6,0c0,0-0.7-1.1-1.2-1.3c-0.4-0.3-0.5,0.5-0.5,0.5c-0.1,0.4-0.6,0.7-1.1,0.6
				c-0.5-0.1-1-0.6-1-1.1c0-0.5,0.4-0.8,0.8-0.9c0,0,0.5-0.2,0.2-0.6c-0.3-0.3-0.9-0.9-0.9-0.9c-0.1-0.1-0.2-0.2-0.3-0.3
				c-0.2-0.2-0.2-0.4,0-0.6c0,0,1.9-1.5,0.9-1.9c-0.5-0.2-0.8-0.7-0.6-1.2c0.2-0.5,0.3-0.9,1.1-0.9s0.8,0.2,1,0.9
				c0.2,0.6,1.4-0.9,1.4-0.9c0.4-0.4,0.5-0.4,0.8,0l3.7,3.9c0.2,0.2,0.3,0.8,0,1L133.2,11.3z"/>
		</g>
	</g>
	<g>
		<path class="st0" d="M133.6,2c0.2,0.1,0.3,0.2,0.4,0.3l1.6,1.7h3.4V2H133.6z"/>
		<path class="st0" d="M128.4,3.4l0.1-0.1c0.2-0.4,0.5-1.2,1.7-1.2h0c0.8,0,1.2,0.3,1.4,0.7c0.1-0.1,0.3-0.3,0.4-0.5l0,0l0,0
			c0.1-0.1,0.2-0.2,0.4-0.3H127v2h1.3C128.3,3.8,128.3,3.6,128.4,3.4z"/>
	</g>
	<g>
		<path class="st0" d="M128.2,7.9c-0.5-0.5-0.5-1.1,0-1.6l0,0l0,0c0.1-0.1,0.1-0.1,0.2-0.2H127v2h1.3L128.2,7.9z"/>
		<path class="st0" d="M137.6,6l0.2,0.2c0.3,0.3,0.4,0.7,0.4,1.2c0,0.2-0.1,0.5-0.2,0.6h1V6H137.6z"/>
	</g>
	<g>
		<path class="st0" d="M132.1,11.8L132.1,11.8l-0.1-0.1c-0.2-0.2-0.4-0.5-0.5-0.7c-0.3,0.5-0.8,0.8-1.5,0.8c-0.1,0-0.2,0-0.3,0
			c-0.9-0.1-1.6-0.9-1.6-1.8H127v2h5.4C132.2,11.9,132.2,11.8,132.1,11.8z"/>
		<path class="st0" d="M135.8,10l-2.1,1.8c0,0-0.1,0.1-0.3,0.2h5.5v-2H135.8z"/>
	</g>
	<path class="st0" d="M166.1,10.3l-4.4-7.3c-0.1-0.2-0.4-0.4-0.7-0.4c-0.3,0-0.5,0.1-0.7,0.4l-4.4,7.3c-0.1,0.2-0.1,0.5,0,0.8
		c0.1,0.2,0.4,0.4,0.7,0.4h8.8c0.3,0,0.5-0.1,0.7-0.4C166.2,10.8,166.2,10.5,166.1,10.3z M157,10.4l4-6.7l4,6.7H157z"/>
	<g>
		<path class="st0" d="M162.5,2.4l0.9,1.6h3.5V2h-4.8C162.3,2.1,162.4,2.3,162.5,2.4z"/>
		<path class="st0" d="M159.5,2.4c0.1-0.2,0.2-0.3,0.4-0.4H155v2h3.5L159.5,2.4z"/>
	</g>
	<g>
		<polygon class="st0" points="165.9,8 167,8 167,6 164.7,6 		"/>
		<polygon class="st0" points="157.3,6 155,6 155,8 156.1,8 		"/>
	</g>
	<g>
		<path class="st0" d="M155.1,11.5c0,0,0-0.1-0.1-0.2V12h0.5C155.3,11.9,155.2,11.7,155.1,11.5z"/>
		<path class="st0" d="M166.9,11.5c-0.1,0.2-0.2,0.3-0.4,0.5h0.5v-0.6C167,11.4,167,11.5,166.9,11.5z"/>
	</g>
	<path class="st0" d="M161,5.1L161,5.1C161,5.1,161,5.1,161,5.1C161,5.1,161,5.1,161,5.1L161,5.1c-0.5,0-0.6,0.1-0.6,0.3l0.1,2.5
		c0,0.2,0.2,0.3,0.5,0.3v0c0,0,0,0,0,0c0,0,0,0,0,0v0c0.3,0,0.5-0.1,0.5-0.3l0.1-2.5C161.6,5.3,161.5,5.1,161,5.1z"/>
	<circle class="st0" cx="161" cy="9.5" r="0.5"/>
	<path class="st0" d="M221,6.7c-0.2-2.1-1.9-3.7-4-3.7s-3.8,1.6-4,3.7h0v0.7h0c0.2,2.1,1.9,3.7,4,3.7s3.8-1.6,4-3.7h0L221,6.7
		L221,6.7z M217,10.3c-0.3,0-0.8-0.5-1.1-1.4c0.3,0,0.7,0.1,1.1,0.1s0.7,0,1.1-0.1C217.8,9.8,217.3,10.3,217,10.3z M217,8.3
		c-0.4,0-0.9,0-1.2-0.1c0-0.3-0.1-0.6-0.1-0.9h2.6c0,0.3,0,0.6-0.1,0.9C217.9,8.3,217.4,8.3,217,8.3z M217,3.7
		c0.3,0,0.8,0.5,1.1,1.4C217.7,5,217.4,5,217,5s-0.7,0-1.1,0.1C216.2,4.2,216.7,3.7,217,3.7z M217,5.7c0.4,0,0.9,0,1.2,0.1
		c0,0.3,0.1,0.6,0.1,0.9h-2.6c0-0.3,0-0.6,0.1-0.9C216.1,5.7,216.6,5.7,217,5.7z M219,6.7c0-0.2,0-0.5-0.1-0.7
		c0.6,0.2,1,0.5,1.3,0.7H219z M215,6.7h-1.2c0.2-0.3,0.6-0.5,1.3-0.7C215,6.2,215,6.4,215,6.7z M213.8,7.3h1.2c0,0.2,0,0.5,0.1,0.7
		C214.5,7.9,214,7.6,213.8,7.3z M219,7.3h1.2c-0.2,0.3-0.6,0.5-1.3,0.7C219,7.8,219,7.6,219,7.3z M220.1,5.7
		c-0.4-0.2-0.8-0.4-1.3-0.5c-0.1-0.5-0.3-0.9-0.5-1.3C219.1,4.3,219.7,4.9,220.1,5.7z M215.7,3.9c-0.2,0.4-0.4,0.8-0.5,1.3
		c-0.5,0.1-0.9,0.3-1.3,0.5C214.3,4.9,214.9,4.3,215.7,3.9z M213.9,8.3c0.4,0.2,0.8,0.4,1.3,0.5c0.1,0.5,0.3,0.9,0.5,1.3
		C214.9,9.7,214.3,9.1,213.9,8.3z M218.3,10.1c0.2-0.4,0.4-0.8,0.5-1.3c0.5-0.1,0.9-0.3,1.3-0.5C219.7,9.1,219.1,9.7,218.3,10.1z"/>
</g>
<g id="regles" class="st2">
	<g class="st3">
		<path d="M13,1v12H1V1H13 M14,0H0v14h14V0L14,0z"/>
	</g>
	<g class="st3">
		<path d="M27,1v12H15V1H27 M28,0H14v14h14V0L28,0z"/>
	</g>
	<g class="st3">
		<path d="M41,1v12H29V1H41 M42,0H28v14h14V0L42,0z"/>
	</g>
	<g class="st3">
		<path d="M55,1v12H43V1H55 M56,0H42v14h14V0L56,0z"/>
	</g>
	<g class="st3">
		<path d="M69,1v12H57V1H69 M70,0H56v14h14V0L70,0z"/>
	</g>
	<g class="st3">
		<path d="M83,1v12H71V1H83 M84,0H70v14h14V0L84,0z"/>
	</g>
	<g class="st3">
		<path d="M97,1v12H85V1H97 M98,0H84v14h14V0L98,0z"/>
	</g>
	<g class="st3">
		<path d="M111,1v12H99V1H111 M112,0H98v14h14V0L112,0z"/>
	</g>
	<g class="st3">
		<path d="M125,1v12h-12V1H125 M126,0h-14v14h14V0L126,0z"/>
	</g>
	<g class="st3">
		<path d="M139,1v12h-12V1H139 M140,0h-14v14h14V0L140,0z"/>
	</g>
	<g class="st3">
		<path d="M153,1v12h-12V1H153 M154,0h-14v14h14V0L154,0z"/>
	</g>
	<g class="st3">
		<path d="M167,1v12h-12V1H167 M168,0h-14v14h14V0L168,0z"/>
	</g>
	<g class="st3">
		<path d="M181,1v12h-12V1H181 M182,0h-14v14h14V0L182,0z"/>
	</g>
	<g class="st3">
		<path d="M195,1v12h-12V1H195 M196,0h-14v14h14V0L196,0z"/>
	</g>
	<g class="st3">
		<path d="M209,1v12h-12V1H209 M210,0h-14v14h14V0L210,0z"/>
	</g>
	<g class="st3">
		<path d="M223,1v12h-12V1H223 M224,0h-14v14h14V0L224,0z"/>
	</g>
</g>
</svg>
