<?xml version="1.0" encoding="utf-8"?>
<!-- Generator: Adobe Illustrator 25.4.0, SVG Export Plug-In . SVG Version: 6.00 Build 0)  -->
<svg version="1.1" id="Calque_1" xmlns="http://www.w3.org/2000/svg" xmlns:xlink="http://www.w3.org/1999/xlink" x="0px" y="0px"
	 viewBox="0 0 14 15" style="enable-background:new 0 0 14 15;" xml:space="preserve">
<style type="text/css">
	.st0{fill:#969696;}
</style>
<path class="st0" d="M7,6L7,6C6.4,6,6,5.6,6,5V1c0-0.6,0.4-1,1-1h0c0.6,0,1,0.4,1,1v4C8,5.6,7.6,6,7,6z"/>
<path class="st0" d="M7,15c-3.9,0-7-3.1-7-7c0-2.2,1-4.2,2.7-5.5c0.4-0.3,1.1-0.3,1.4,0.2C4.5,3.1,4.4,3.7,3.9,4C2.7,5,2,6.4,2,8
	c0,2.8,2.2,5,5,5s5-2.2,5-5c0-1.6-0.7-3-2-4c-0.4-0.3-0.5-1-0.2-1.4c0.3-0.4,1-0.5,1.4-0.2C13,3.8,14,5.8,14,8C14,11.9,10.9,15,7,15
	z"/>
</svg>
