<?xml version="1.0" encoding="utf-8"?>
<!-- Generator: Adobe Illustrator 26.0.1, SVG Export Plug-In . SVG Version: 6.00 Build 0)  -->
<svg version="1.1" xmlns="http://www.w3.org/2000/svg" xmlns:xlink="http://www.w3.org/1999/xlink" x="0px" y="0px"
	 viewBox="0 0 336 56" style="enable-background:new 0 0 336 56;" xml:space="preserve">
<style type="text/css">
	.st0{fill:#F2F2F2;}
	.st1{display:none;}
	.st2{display:inline;}
	.st3{fill:#EF3535;}
	.st4{fill:#848484;}
	.st5{fill:#636363;}
	.st6{fill:#0A71B3;}
</style>
<g id="Calque_1">
	<path class="st0" d="M231,8c-3.4,0-6,2.7-6,6h12C237,10.6,234.4,8,231,8z"/>
	<circle class="st0" cx="231" cy="4" r="3"/>
	<path class="st0" d="M251,6.5c-0.3-3.1-2.9-5.5-6-5.5s-5.7,2.4-6,5.5l0,0v1l0,0c0.3,3.1,2.8,5.5,6,5.5s5.7-2.4,6-5.5l0,0V6.5
		L251,6.5z M245,12c-0.5,0-1.2-0.8-1.6-2.1c0.5,0.1,1,0.1,1.6,0.1s1.1,0,1.6-0.1C246.2,11.2,245.5,12,245,12z M245,9
		c-0.7,0-1.3-0.1-1.8-0.2C243.1,8.4,243,8,243,7.5h4c0,0.5-0.1,0.9-0.1,1.3C246.3,8.9,245.7,9,245,9z M245,2c0.5,0,1.2,0.8,1.6,2.1
		C246.1,4,245.6,4,245,4s-1.1,0-1.6,0.1C243.8,2.8,244.5,2,245,2z M245,5c0.7,0,1.3,0.1,1.8,0.2c0.1,0.4,0.2,0.8,0.2,1.3h-4
		c0-0.5,0.1-0.9,0.1-1.3C243.7,5.1,244.3,5,245,5z M248,6.5c0-0.4,0-0.7-0.1-1.1c0.9,0.3,1.6,0.7,1.9,1.1H248z M242,6.5h-1.8
		c0.3-0.4,1-0.8,1.9-1.1C242.1,5.8,242,6.1,242,6.5z M240.2,7.5h1.8c0,0.4,0,0.7,0.1,1.1C241.2,8.3,240.5,7.9,240.2,7.5z M248,7.5
		h1.8c-0.3,0.4-1,0.8-1.9,1.1C247.9,8.2,248,7.9,248,7.5z M249.6,5.1c-0.5-0.3-1.2-0.6-1.9-0.8c-0.2-0.7-0.4-1.4-0.8-1.9
		C248.1,2.9,249.1,3.9,249.6,5.1z M243.1,2.4c-0.3,0.5-0.6,1.2-0.8,1.9c-0.7,0.2-1.4,0.4-1.9,0.8C240.9,3.9,241.9,2.9,243.1,2.4z
		 M240.4,8.9c0.5,0.3,1.2,0.6,1.9,0.8c0.2,0.7,0.4,1.4,0.8,1.9C241.9,11.1,240.9,10.1,240.4,8.9z M246.9,11.6
		c0.3-0.5,0.6-1.2,0.8-1.9c0.7-0.2,1.4-0.4,1.9-0.8C249.1,10.1,248.1,11.1,246.9,11.6z"/>
	<path class="st0" d="M255.8,13c-0.7,0-1.5-0.3-2-0.8c-1.1-1.1-1.1-2.9,0-4l2.4-2.4c1.1-1.1,2.9-1.1,4,0c0.2,0.2,0.4,0.5,0.5,0.8
		c0.1,0.3,0,0.6-0.3,0.8c-0.3,0.1-0.6,0-0.8-0.3c-0.1-0.2-0.2-0.3-0.3-0.5c-0.7-0.7-1.7-0.7-2.4,0L254.5,9c-0.7,0.7-0.7,1.7,0,2.4
		s1.8,0.7,2.4,0l1.3-1.3c0.2-0.2,0.6-0.2,0.8,0s0.2,0.6,0,0.8l-1.3,1.3C257.3,12.7,256.6,13,255.8,13z"/>
	<path class="st0" d="M259.7,9.1c-0.7,0-1.5-0.3-2-0.8c-0.2-0.2-0.4-0.5-0.5-0.7c-0.1-0.3,0-0.6,0.2-0.8c0.3-0.1,0.6,0,0.8,0.2
		c0.1,0.2,0.2,0.3,0.3,0.4c0.7,0.7,1.7,0.7,2.4,0l2.4-2.4c0.7-0.7,0.7-1.8,0-2.4c-0.1-0.1-0.3-0.2-0.5-0.3c-0.7-0.3-1.4-0.2-2,0.3
		L259.6,4c-0.2,0.2-0.6,0.2-0.8,0c-0.2-0.2-0.2-0.6,0-0.8l1.3-1.3c0.9-0.9,2.2-1.1,3.3-0.6c0.3,0.1,0.5,0.3,0.8,0.5
		c1.1,1.1,1.1,2.9,0,4l-2.4,2.4C261.2,8.8,260.5,9.1,259.7,9.1z"/>
	<path class="st0" d="M276.6,6.1l-1.4-1.4l0.7-1.9l2.4-0.6c-0.9-0.9-2.1-1.4-3.4-1.1c-1.9,0.4-3,2.3-2.6,4.2c0,0.1,0.1,0.3,0.1,0.4
		l-4.9,4.8c-0.6,0.6-0.6,1.5,0,2.1c0.6,0.6,1.5,0.6,2.1,0l4.9-4.8c0.7,0.3,1.3,0.3,2,0.2c1.3-0.3,2.2-1.3,2.5-2.4L276.6,6.1z"/>
	<path class="st0" d="M161,3c-4.9,0-6,4-6,4s1.1,4,6,4c4.9,0,6-4,6-4S165.9,3,161,3z M164,7c0,1.7-1.3,3-3,3s-3-1.3-3-3s1.3-3,3-3
		S164,5.3,164,7z M156.1,7c0.2-0.4,0.6-1.2,1.4-1.8C157.2,5.7,157,6.3,157,7c0,0.7,0.2,1.3,0.5,1.9C156.7,8.2,156.3,7.4,156.1,7z
		 M164.5,8.8c0.3-0.6,0.5-1.2,0.5-1.8c0-0.7-0.2-1.3-0.5-1.9c0.8,0.7,1.2,1.5,1.4,1.9C165.7,7.4,165.3,8.2,164.5,8.8z"/>
	<g>
		<circle class="st0" cx="161" cy="7" r="1.5"/>
	</g>
	<path class="st0" d="M153,5.2L148.9,1L147,2.9l0,0l-6,6l0,0V13h4.1l0,0L153,5.2L153,5.2L153,5.2z M142,12v-0.7l0.7,0.7H142z
		 M151.1,5.7L148.4,3l0.5-0.5l2.7,2.7L151.1,5.7z M147.6,3.6l1,1l-5.9,5.9l-1-1L147.6,3.6z M144.5,12.3l-1-1l5.9-5.9l1,1L144.5,12.3
		z"/>
	<g>
		<path class="st0" d="M319,2v1.8V12h-8V2h6.1H319 M320,1h-2.9H310v12h10V3.8V1L320,1z"/>
	</g>
	<g>
		<rect x="312.5" y="3.9" class="st0" width="5" height="1"/>
	</g>
	<g>
		<rect x="312.5" y="5.9" class="st0" width="5" height="1"/>
	</g>
	<g>
		<rect x="312.5" y="7.9" class="st0" width="5" height="1"/>
	</g>
	<g>
		<rect x="312.5" y="9.9" class="st0" width="5" height="1"/>
	</g>
	<path class="st0" d="M181,7c0,0-1.2-4-6-4c-4.9,0-6,4-6,4s0.9,3.3,4.8,3.9c0.4,0.1,0.8,0.2,1.2,0.2s0.8-0.1,1.2-0.2
		C180.1,10.3,181,7,181,7z M175,10c-0.2,0-0.4,0-0.5,0c-0.2-0.2-0.4-0.6-0.6-1.1c0.3,0,0.7,0.1,1.1,0.1s0.7,0,1.1-0.1
		c-0.2,0.5-0.4,0.8-0.6,1.1C175.4,10,175.2,10,175,10z M173.1,9.7c-0.5-0.4-0.9-0.8-1.2-1.4c0.4,0.2,0.8,0.4,1.3,0.5
		c0.1,0.4,0.2,0.7,0.4,1C173.4,9.8,173.2,9.8,173.1,9.7z M175,4c0.2,0,0.4,0,0.5,0c0.2,0.2,0.4,0.6,0.6,1.1C175.7,5,175.4,5,175,5
		c-0.4,0-0.7,0-1.1,0.1c0.2-0.5,0.4-0.8,0.6-1.1C174.6,4,174.8,4,175,4z M173.7,6.7c0-0.3,0-0.6,0.1-0.9c0.3-0.1,0.8-0.1,1.2-0.1
		c0.4,0,0.9,0,1.2,0.1c0,0.3,0.1,0.6,0.1,0.9H173.7z M176.3,7.3c0,0.3,0,0.6-0.1,0.9c-0.3,0.1-0.8,0.1-1.2,0.1c-0.4,0-0.9,0-1.2-0.1
		c0-0.3-0.1-0.6-0.1-0.9H176.3z M173.6,4.2c-0.2,0.3-0.3,0.6-0.4,1c-0.5,0.1-0.9,0.3-1.3,0.5c0.3-0.6,0.7-1,1.2-1.4
		C173.2,4.2,173.4,4.2,173.6,4.2z M173.1,6C173,6.2,173,6.4,173,6.7h-1.2C172,6.4,172.4,6.2,173.1,6z M173,7.3c0,0.2,0,0.5,0.1,0.7
		c-0.6-0.1-1.1-0.4-1.3-0.7H173z M176.4,9.8c0.2-0.3,0.3-0.6,0.4-1c0.5-0.1,0.9-0.3,1.3-0.5c-0.3,0.6-0.7,1-1.1,1.4
		C176.8,9.7,176.6,9.8,176.4,9.8z M176.9,8c0.1-0.2,0.1-0.4,0.1-0.7h1.2C178,7.6,177.6,7.8,176.9,8z M177,6.7c0-0.2,0-0.5-0.1-0.7
		c0.6,0.2,1,0.5,1.3,0.7H177z M178.1,5.7c-0.4-0.2-0.8-0.4-1.3-0.5c-0.1-0.4-0.2-0.7-0.4-1c0.2,0,0.3,0.1,0.5,0.1
		C177.4,4.7,177.8,5.1,178.1,5.7z M170.1,7c0.2-0.4,0.6-1.2,1.4-1.9c-0.3,0.5-0.4,1-0.5,1.6v0.7c0,0.5,0.2,1,0.4,1.4
		C170.6,8.2,170.3,7.4,170.1,7z M178.6,8.7c0.2-0.4,0.3-0.9,0.4-1.3V6.7c-0.1-0.6-0.2-1.1-0.5-1.6c0.8,0.7,1.2,1.4,1.4,1.9
		C179.8,7.4,179.4,8.1,178.6,8.7z"/>
	<g id="regles" class="st1">
		<g class="st2">
			<path d="M13,1v12H1V1H13 M14,0H0v14h14V0L14,0z"/>
		</g>
		<g class="st2">
			<path d="M27,1v12H15V1H27 M28,0H14v14h14V0L28,0z"/>
		</g>
		<g class="st2">
			<path d="M41,1v12H29V1H41 M42,0H28v14h14V0L42,0z"/>
		</g>
		<g class="st2">
			<path d="M55,1v12H43V1H55 M56,0H42v14h14V0L56,0z"/>
		</g>
		<g class="st2">
			<path d="M69,1v12H57V1H69 M70,0H56v14h14V0L70,0z"/>
		</g>
		<g class="st2">
			<path d="M83,1v12H71V1H83 M84,0H70v14h14V0L84,0z"/>
		</g>
		<g class="st2">
			<path d="M97,1v12H85V1H97 M98,0H84v14h14V0L98,0z"/>
		</g>
		<g class="st2">
			<path d="M111,1v12H99V1H111 M112,0H98v14h14V0L112,0z"/>
		</g>
		<g class="st2">
			<path d="M125,1v12h-12V1H125 M126,0h-14v14h14V0L126,0z"/>
		</g>
		<g class="st2">
			<path d="M139,1v12h-12V1H139 M140,0h-14v14h14V0L140,0z"/>
		</g>
		<g class="st2">
			<path d="M153,1v12h-12V1H153 M154,0h-14v14h14V0L154,0z"/>
		</g>
		<g class="st2">
			<path d="M167,1v12h-12V1H167 M168,0h-14v14h14V0L168,0z"/>
		</g>
		<g class="st2">
			<path d="M181,1v12h-12V1H181 M182,0h-14v14h14V0L182,0z"/>
		</g>
		<g class="st2">
			<path d="M195,1v12h-12V1H195 M196,0h-14v14h14V0L196,0z"/>
		</g>
		<g class="st2">
			<path d="M209,1v12h-12V1H209 M210,0h-14v14h14V0L210,0z"/>
		</g>
		<g class="st2">
			<path d="M223,1v12h-12V1H223 M224,0h-14v14h14V0L224,0z"/>
		</g>
	</g>
	<path class="st0" d="M38.5,7.9c-0.2,0-0.4,0-0.6,0.1L34,4.2C34,4,34.1,3.8,34.1,3.5c0-1.4-1.1-2.5-2.5-2.5c-0.2,0-0.4,0-0.6,0.1
		l1,1l0,0c0.2,0.2,0.3,0.5,0.3,0.8c0,0.7-0.6,1.3-1.3,1.3c-0.3,0-0.6-0.1-0.8-0.3l0,0l-1-1C29,3.1,29,3.3,29,3.5
		c0,1.4,1.1,2.5,2.5,2.5c0.2,0,0.4,0,0.6-0.1L36,9.8c-0.1,0.2-0.1,0.4-0.1,0.6c0,1.4,1.1,2.5,2.5,2.5c0.2,0,0.4,0,0.6-0.1l-1-1l0,0
		c-0.2-0.2-0.3-0.5-0.3-0.8c0-0.7,0.6-1.3,1.3-1.3c0.3,0,0.6,0.1,0.8,0.3l0,0l1,1c0.1-0.2,0.1-0.4,0.1-0.6C41,9.1,39.9,7.9,38.5,7.9
		z"/>
	<g>
		<path class="st0" d="M137.1,2.9h-1.3V1.6c0-0.3-0.3-0.6-0.6-0.6h-0.1c-0.3,0-0.6,0.3-0.6,0.6v1.3h-2.5V1.6c0-0.3-0.3-0.6-0.6-0.6
			h-0.1c-0.3,0-0.6,0.3-0.6,0.6v1.3h-1.3c-0.3,0-0.6,0.3-0.6,0.6l-1.9,6.9c0,0.3,0.3,0.6,0.6,0.6h7.6c0.3,0,0.6-0.3,0.6-0.6l1.9-6.9
			C137.7,3.2,137.5,2.9,137.1,2.9z"/>
		<path class="st0" d="M136.5,10.6c-0.1,0.7-0.6,1.2-1.3,1.2h-6.3v0.6c0,0.4,0.3,0.7,0.7,0.7h7.5c0.4,0,0.7-0.3,0.7-0.7V6.1
			L136.5,10.6z"/>
	</g>
	<rect x="186" y="2" class="st0" width="9" height="2"/>
	<rect x="186" y="6" class="st0" width="9" height="2"/>
	<rect x="186" y="10" class="st0" width="9" height="2"/>
	<circle class="st0" cx="184" cy="3" r="1"/>
	<circle class="st0" cx="184" cy="7" r="1"/>
	<circle class="st0" cx="184" cy="11" r="1"/>
	<path class="st0" d="M206.4,5.5H206V4c0-1.7-1.3-3-3-3s-3,1.3-3,3v1.5h-0.4c-0.6,0.1-1.1,0.5-1.1,1.1v5.3c0,0.6,0.5,1.1,1.1,1.1
		h6.7c0.6,0,1.1-0.5,1.1-1.1V6.6C207.6,6,207,5.5,206.4,5.5z M201,4c0-1.1,0.9-2,2-2c1.1,0,2,0.9,2,2v1.5h-4V4z M203.6,9.3v1.1
		c0,0.3-0.2,0.5-0.5,0.5s-0.5-0.2-0.5-0.5V9.3c-0.3-0.2-0.5-0.5-0.5-0.9c0-0.5,0.5-1,1-1c0.5,0,1,0.5,1,1
		C204,8.9,203.8,9.2,203.6,9.3z"/>
	<path class="st0" d="M12.8,6.1L8.1,1.5c-0.6-0.6-1.6-0.6-2.2,0L1.2,6.1c-0.3,0.3-0.3,0.8,0,1.1h1v0.2v4.7C2.3,12.6,2.6,13,3,13h1.6
		c0.4,0,0.8-0.4,0.8-0.8V9c0-0.4,0.4-0.8,0.8-0.8h1.6c0.4,0,0.8,0.4,0.8,0.8v3.2c0,0.4,0.4,0.8,0.8,0.8H11c0.4,0,0.8-0.4,0.8-0.8
		V7.5V7.2h1C13.1,6.9,13.1,6.4,12.8,6.1z"/>
	<path class="st0" d="M21,1c-3.3,0-6,2.7-6,6c0,1.9,0.9,3.7,2.4,4.8c0.5-1.8,1.9-3,3.6-3s3.2,1.3,3.6,3C26.1,10.7,27,8.9,27,7
		C27,3.7,24.3,1,21,1z M21,7.9c-1.1,0-2-0.9-2-2s0.9-2,2-2s2,0.9,2,2S22.1,7.9,21,7.9z"/>
	<g>
		<path class="st0" d="M69.9,11.4L64,1.5C63.7,1.2,63.4,1,63,1c-0.4,0-0.7,0.2-0.9,0.5l-5.9,9.9c-0.2,0.3-0.2,0.7,0,1.1
			c0.2,0.3,0.5,0.5,0.9,0.5h12c0.4,0,0.7-0.2,0.9-0.5C70,12.1,70,11.7,69.9,11.4z M57.1,12L63,2l5.9,9.9H57.1V12z"/>
		<path class="st0" d="M63,5L63,5L63,5L63,5L63,5c-0.5,0-0.6,0.2-0.6,0.4l0.1,3.2C62.5,8.8,62.7,9,63,9l0,0l0,0l0,0l0,0
			c0.3,0,0.5-0.2,0.5-0.4l0.1-3.2C63.6,5.2,63.5,5,63,5z"/>
		<ellipse class="st0" cx="63" cy="10.5" rx="0.5" ry="0.5"/>
	</g>
	<path class="st0" d="M54.7,6.5l-5-5.2c-0.5-0.5-0.6-0.5-1.1,0c0,0-1.7,2-2,1.2c-0.3-0.8-0.2-1.1-1.4-1.2c-1.1,0-1.2,0.6-1.5,1.2
		c-0.3,0.7,0,1.3,0.8,1.6c1.4,0.5-1.3,2.5-1.3,2.5c-0.3,0.3-0.3,0.5,0,0.8c0.1,0.1,0.3,0.3,0.4,0.4c0,0,0.8,0.7,1.2,1.2
		c0.4,0.5-0.2,0.8-0.2,0.8c-0.7,0-1.1,0.5-1.1,1.2s0.6,1.4,1.3,1.5c0.6,0.1,1.3-0.2,1.4-0.8c0,0,0.1-1,0.7-0.7
		c0.6,0.3,1.6,1.8,1.6,1.8c0.3,0.3,0.5,0.3,0.8,0L54.8,8C55.1,7.6,55,6.8,54.7,6.5z M51,7.9h-1v1c0,0.6-0.4,1-1,1c-0.6,0-1-0.4-1-1
		v-1h-1c-0.6,0-1-0.4-1-1s0.4-1,1-1h1v-1c0-0.6,0.4-1,1-1c0.6,0,1,0.4,1,1v1h1c0.6,0,1,0.4,1,1S51.6,7.9,51,7.9z"/>
	<g>
		<path class="st0" d="M110.1,10.3L105.7,3c-0.1-0.2-0.4-0.4-0.7-0.4s-0.5,0.1-0.7,0.4l-4.4,7.3c-0.1,0.2-0.1,0.5,0,0.8
			c0.1,0.2,0.4,0.4,0.7,0.4h8.8c0.3,0,0.5-0.1,0.7-0.4C110.2,10.8,110.2,10.5,110.1,10.3z M101,10.4l4-6.7l4,6.7H101z"/>
		<g>
			<path class="st0" d="M106.5,2.4l0.9,1.6h3.5V2h-4.8C106.3,2.1,106.4,2.3,106.5,2.4z"/>
			<path class="st0" d="M103.5,2.4c0.1-0.2,0.2-0.3,0.4-0.4H99v2h3.5L103.5,2.4z"/>
		</g>
		<g>
			<polygon class="st0" points="109.9,8 111,8 111,6 108.7,6 			"/>
			<polygon class="st0" points="101.3,6 99,6 99,8 100.1,8 			"/>
		</g>
		<g>
			<path class="st0" d="M99.1,11.5c0,0,0-0.1-0.1-0.2V12h0.5C99.3,11.9,99.2,11.7,99.1,11.5z"/>
			<path class="st0" d="M110.9,11.5c-0.1,0.2-0.2,0.3-0.4,0.5h0.5v-0.6C111,11.4,111,11.5,110.9,11.5z"/>
		</g>
		<path class="st0" d="M105,5.1L105,5.1L105,5.1L105,5.1L105,5.1c-0.5,0-0.6,0.1-0.6,0.3l0.1,2.5c0,0.2,0.2,0.3,0.5,0.3l0,0l0,0l0,0
			l0,0c0.3,0,0.5-0.1,0.5-0.3l0.1-2.5C105.6,5.3,105.5,5.1,105,5.1z"/>
		<circle class="st0" cx="105" cy="9.5" r="0.5"/>
	</g>
	<g>
		<g>
			<g>
				<g>
					<path class="st0" d="M77.3,11.2c-0.2,0.2-0.4,0.2-0.6,0c0,0-0.7-1.1-1.2-1.3c-0.4-0.3-0.5,0.5-0.5,0.5
						c-0.1,0.4-0.6,0.7-1.1,0.6c-0.5-0.1-1-0.6-1-1.1s0.4-0.8,0.8-0.9c0,0,0.5-0.2,0.2-0.6C73.5,8.1,73,7.5,73,7.5
						c-0.1-0.1-0.2-0.2-0.3-0.3c-0.2-0.2-0.2-0.4,0-0.6c0,0,1.9-1.5,0.9-1.9C73,4.5,72.7,4,72.9,3.5s0.3-0.9,1.1-0.9s0.8,0.2,1,0.9
						c0.2,0.6,1.4-0.9,1.4-0.9c0.4-0.4,0.5-0.4,0.8,0l3.7,3.9c0.2,0.2,0.3,0.8,0,1L77.3,11.2z"/>
				</g>
			</g>
		</g>
		<g>
			<path class="st0" d="M78,1.9C78,2,78,2,78,1.9l2,2.1h3V1.9H78z"/>
			<path class="st0" d="M72,3.2L72,3.2c0.2-0.4,0.4-0.9,0.9-1.2H71v2.1h0.9C71.9,3.8,71.9,3.5,72,3.2z"/>
		</g>
		<g>
			<path class="st0" d="M71.9,8c-0.6-0.6-0.6-1.4,0-2H71v2.1L71.9,8L71.9,8z"/>
			<path class="st0" d="M81.7,5.9c0.3,0.3,0.4,0.9,0.4,1.3c0,0.3-0.2,0.5-0.3,0.8H83V5.9H81.7z"/>
		</g>
		<g>
			<path class="st0" d="M73.7,12c-1-0.2-1.8-1.1-1.8-2.1H71v2.1h2.9C73.8,12,73.7,12,73.7,12z"/>
			<path class="st0" d="M80,9.9l-2,2c0,0-0.1,0.1-0.1,0.1H83V9.9H80z"/>
		</g>
	</g>
	<g>
		<path class="st0" d="M93,6h-1V5c0-0.6-0.4-1-1-1s-1,0.4-1,1v1h-1c-0.6,0-1,0.4-1,1s0.4,1,1,1h1v1c0,0.6,0.4,1,1,1s1-0.4,1-1V8h1
			c0.6,0,1-0.4,1-1S93.6,6,93,6z"/>
		<path class="st0" d="M96.9,6l-1.5-0.4c-0.1-0.3-0.2-0.6-0.3-0.8l0.8-1.3c0,0,0-0.1,0-0.2l-1.2-1.2c0,0-0.1,0-0.2,0l-1.3,0.8
			c-0.3-0.1-0.5-0.2-0.8-0.3L92,1.1C92,1,91.9,1,91.9,1h-1.7C90.1,1,90,1,90,1.1l-0.4,1.5c-0.3,0.1-0.6,0.2-0.8,0.3l-1.3-0.8
			c0,0-0.1,0-0.2,0l-1.2,1.2c0,0,0,0.1,0,0.2l0.8,1.3c-0.1,0.3-0.2,0.5-0.3,0.8L85.1,6C85,6,85,6.1,85,6.1v1.7C85,7.9,85,8,85.1,8
			l1.5,0.4c0.1,0.3,0.2,0.6,0.3,0.8l-0.8,1.3c0,0,0,0.1,0,0.2l1.2,1.2c0,0,0.1,0,0.2,0l1.3-0.8c0.3,0.1,0.5,0.2,0.8,0.3l0.4,1.5
			c0,0.1,0,0.1,0.1,0.1h1.7c0.1,0,0.1,0,0.1-0.1l0.4-1.5c0.3-0.1,0.6-0.2,0.8-0.3l1.3,0.8c0,0,0.1,0,0.2,0l1.2-1.2c0,0,0-0.1,0-0.2
			l-0.8-1.3c0.1-0.3,0.2-0.5,0.3-0.8L96.9,8C97,8,97,7.9,97,7.9V6.1C97,6.1,97,6,96.9,6z M91,10.4c-1.9,0-3.4-1.5-3.4-3.4
			s1.5-3.4,3.4-3.4s3.4,1.5,3.4,3.4S92.9,10.4,91,10.4z"/>
	</g>
	<g>
		<path class="st0" d="M222.9,6l-1.5-0.4c-0.1-0.3-0.2-0.6-0.3-0.8l0.8-1.3c0,0,0-0.1,0-0.2l-1.2-1.2c0,0-0.1,0-0.2,0l-1.3,0.8
			c-0.3-0.1-0.5-0.2-0.8-0.3L218,1.1c0-0.1,0-0.1-0.1-0.1h-1.7c-0.1,0-0.1,0-0.1,0.1l-0.4,1.5c-0.3,0.1-0.6,0.2-0.8,0.3l-1.3-0.8
			c0,0-0.1,0-0.2,0l-1.2,1.2c0,0,0,0.1,0,0.2l0.8,1.3c-0.1,0.3-0.2,0.5-0.3,0.8L211.1,6c-0.1,0-0.1,0-0.1,0.1v1.7
			c0,0.1,0,0.1,0.1,0.1l1.5,0.4c0.1,0.3,0.2,0.6,0.3,0.8l-0.8,1.3c0,0,0,0.1,0,0.2l1.2,1.2c0,0,0.1,0,0.2,0l1.3-0.8
			c0.3,0.1,0.5,0.2,0.8,0.3l0.4,1.5c0,0.1,0,0.1,0.1,0.1h1.7c0.1,0,0.1,0,0.1-0.1l0.4-1.5c0.3-0.1,0.6-0.2,0.8-0.3l1.3,0.8
			c0,0,0.1,0,0.2,0l1.2-1.2c0,0,0-0.1,0-0.2l-0.8-1.3c0.1-0.3,0.2-0.5,0.3-0.8l1.5-0.4c0.1,0,0.1,0,0.1-0.1V6.1
			C223,6.1,223,6,222.9,6z M217,9.6c-1.4,0-2.6-1.2-2.6-2.6s1.2-2.6,2.6-2.6s2.6,1.2,2.6,2.6S218.4,9.6,217,9.6z"/>
	</g>
	<g>
		<g>
			<path class="st0" d="M116.3,2.7l0.9,0.3c0,0,0.1,0,0.1-0.1l0.4-0.9H113v2h1.9L116.3,2.7z"/>
			<path class="st0" d="M120.3,2l0.4,0.9c0,0,0.1,0,0.1,0.1l0.9-0.3l1.4,1.4h1.9V2H120.3z"/>
		</g>
		<g>
			<rect x="113" y="6" class="st0" width="1" height="2"/>
			<rect x="124" y="6" class="st0" width="1" height="2"/>
		</g>
		<g>
			<path class="st0" d="M117.2,11.1l-0.9,0.3l-1.4-1.4H113v2h4.8l-0.4-0.9C117.3,11.1,117.3,11.1,117.2,11.1z"/>
			<path class="st0" d="M123,10l-1.4,1.4l-0.9-0.3c0,0-0.1,0-0.1,0.1l-0.4,0.9h4.8v-2L123,10L123,10z"/>
		</g>
		<path class="st0" d="M122.9,6.3l-1-0.3c-0.1-0.2-0.1-0.4-0.2-0.5l0.5-0.9c0,0,0-0.1,0-0.1l-0.8-0.8c0,0-0.1,0-0.1,0l-0.9,0.5
			c-0.2-0.1-0.3-0.2-0.5-0.2l-0.3-1c0,0,0-0.1-0.1-0.1h-1.1c0,0-0.1,0-0.1,0.1l-0.3,1c-0.2,0.1-0.4,0.1-0.5,0.2l-0.9-0.5
			c0,0-0.1,0-0.1,0l-0.8,0.8c0,0,0,0.1,0,0.1l0.5,0.9c-0.1,0.2-0.2,0.3-0.2,0.5l-1,0.3c0,0-0.1,0-0.1,0.1v1.1c0,0,0,0.1,0.1,0.1
			l1,0.3c0.1,0.2,0.1,0.4,0.2,0.5l-0.5,0.9c0,0,0,0.1,0,0.1l0.8,0.8c0,0,0.1,0,0.1,0l0.9-0.5c0.2,0.1,0.3,0.2,0.5,0.2l0.3,1
			c0,0,0,0.1,0.1,0.1h1.1c0,0,0.1,0,0.1-0.1l0.3-1c0.2-0.1,0.4-0.1,0.5-0.2l0.9,0.5c0,0,0.1,0,0.1,0l0.8-0.8c0,0,0-0.1,0-0.1
			l-0.5-0.9c0.1-0.2,0.2-0.3,0.2-0.5l1-0.3c0,0,0.1,0,0.1-0.1L122.9,6.3C123,6.3,123,6.3,122.9,6.3z M119,9.2c-1.3,0-2.3-1-2.3-2.3
			s1-2.3,2.3-2.3s2.3,1,2.3,2.3S120.3,9.2,119,9.2z"/>
	</g>
	<path class="st3" d="M329,1c-3,0-5.4,2.2-5.9,5h5.7l-1-1c-0.4-0.4-0.4-1,0-1.4c0.4-0.4,1-0.4,1.4,0l2.7,2.7c0.4,0.4,0.4,1,0,1.4
		l-2.7,2.7c-0.4,0.4-1,0.4-1.4,0c-0.4-0.4-0.4-1,0-1.4l1-1h-5.7c0.5,2.8,2.9,5,5.9,5c3.3,0,6-2.7,6-6S332.3,1,329,1z"/>
	<path class="st0" d="M287,2c2.8,0,5,2.2,5,5s-2.2,5-5,5s-5-2.2-5-5S284.2,2,287,2 M287,1c-3.3,0-6,2.7-6,6s2.7,6,6,6s6-2.7,6-6
		S290.3,1,287,1L287,1z"/>
	<path class="st0" d="M286,9.7l-2.4-2.4c-0.2-0.2-0.2-0.5,0-0.7s0.5-0.2,0.7,0l1.6,1.6l3.6-3.6c0.2-0.2,0.5-0.2,0.7,0s0.2,0.5,0,0.7
		L286,9.7z"/>
	<g>
		<path class="st0" d="M301,10c-2.2,0-4,1.8-4,4h8C305,11.8,303.2,10,301,10z"/>
	</g>
	<g>
		<circle class="st0" cx="301" cy="7" r="2"/>
	</g>
	<path class="st0" d="M303.8,8c-0.2,0.5-0.5,1-1,1.3c1.2,0.5,2.2,1.4,2.7,2.7h2.4c0-2.2-1.8-4-4-4C303.9,8,303.9,8,303.8,8z"/>
	<path class="st0" d="M299.2,9.4c-0.4-0.3-0.8-0.8-1-1.3c-0.1,0-0.1,0-0.2,0c-2.2,0-4,1.8-4,4h2.4C297,10.8,297.9,9.8,299.2,9.4z"/>
	<path class="st0" d="M304,7c1.1,0,2-0.9,2-2s-0.9-2-2-2c-0.8,0-1.5,0.5-1.8,1.2C303.2,4.7,304,5.8,304,7z"/>
	<path class="st0" d="M298,7c0-1.2,0.8-2.3,1.8-2.8c-0.3-0.7-1-1.2-1.8-1.2c-1.1,0-2,0.9-2,2S296.9,7,298,7z"/>
	<path class="st4" d="M231,22c-3.4,0-6,2.7-6,6h12C237,24.6,234.4,22,231,22z"/>
	<circle class="st4" cx="231" cy="18" r="3"/>
	<path class="st4" d="M251,20.5c-0.3-3.1-2.9-5.5-6-5.5s-5.7,2.4-6,5.5l0,0v1l0,0c0.3,3.1,2.8,5.5,6,5.5s5.7-2.4,6-5.5l0,0V20.5
		L251,20.5z M245,26c-0.5,0-1.2-0.8-1.6-2.1c0.5,0.1,1,0.1,1.6,0.1s1.1,0,1.6-0.1C246.2,25.2,245.5,26,245,26z M245,23
		c-0.7,0-1.3-0.1-1.8-0.2c-0.1-0.4-0.2-0.8-0.2-1.3h4c0,0.5-0.1,0.9-0.1,1.3C246.3,22.9,245.7,23,245,23z M245,16
		c0.5,0,1.2,0.8,1.6,2.1c-0.5-0.1-1-0.1-1.6-0.1s-1.1,0-1.6,0.1C243.8,16.8,244.5,16,245,16z M245,19c0.7,0,1.3,0.1,1.8,0.2
		c0.1,0.4,0.2,0.8,0.2,1.3h-4c0-0.5,0.1-0.9,0.1-1.3C243.7,19.1,244.3,19,245,19z M248,20.5c0-0.4,0-0.7-0.1-1.1
		c0.9,0.3,1.6,0.7,1.9,1.1H248z M242,20.5h-1.8c0.3-0.4,1-0.8,1.9-1.1C242.1,19.8,242,20.1,242,20.5z M240.2,21.5h1.8
		c0,0.4,0,0.7,0.1,1.1C241.2,22.3,240.5,21.9,240.2,21.5z M248,21.5h1.8c-0.3,0.4-1,0.8-1.9,1.1C247.9,22.2,248,21.9,248,21.5z
		 M249.6,19.1c-0.5-0.3-1.2-0.6-1.9-0.8c-0.2-0.7-0.4-1.4-0.8-1.9C248.1,16.9,249.1,17.9,249.6,19.1z M243.1,16.4
		c-0.3,0.5-0.6,1.2-0.8,1.9c-0.7,0.2-1.4,0.4-1.9,0.8C240.9,17.9,241.9,16.9,243.1,16.4z M240.4,22.9c0.5,0.3,1.2,0.6,1.9,0.8
		c0.2,0.7,0.4,1.4,0.8,1.9C241.9,25.1,240.9,24.1,240.4,22.9z M246.9,25.6c0.3-0.5,0.6-1.2,0.8-1.9c0.7-0.2,1.4-0.4,1.9-0.8
		C249.1,24.1,248.1,25.1,246.9,25.6z"/>
	<path class="st4" d="M255.8,27c-0.7,0-1.5-0.3-2-0.8c-1.1-1.1-1.1-2.9,0-4l2.4-2.4c1.1-1.1,2.9-1.1,4,0c0.2,0.2,0.4,0.5,0.5,0.8
		c0.1,0.3,0,0.6-0.3,0.8c-0.3,0.1-0.6,0-0.8-0.3c-0.1-0.2-0.2-0.3-0.3-0.5c-0.7-0.7-1.7-0.7-2.4,0l-2.4,2.4c-0.7,0.7-0.7,1.7,0,2.4
		s1.8,0.7,2.4,0l1.3-1.3c0.2-0.2,0.6-0.2,0.8,0s0.2,0.6,0,0.8l-1.3,1.3C257.3,26.7,256.6,27,255.8,27z"/>
	<path class="st4" d="M259.7,23.1c-0.7,0-1.5-0.3-2-0.8c-0.2-0.2-0.4-0.5-0.5-0.7c-0.1-0.3,0-0.6,0.2-0.8c0.3-0.1,0.6,0,0.8,0.2
		c0.1,0.2,0.2,0.3,0.3,0.4c0.7,0.7,1.7,0.7,2.4,0l2.4-2.4c0.7-0.7,0.7-1.8,0-2.4c-0.1-0.1-0.3-0.2-0.5-0.3c-0.7-0.3-1.4-0.2-2,0.3
		l-1.2,1.4c-0.2,0.2-0.6,0.2-0.8,0c-0.2-0.2-0.2-0.6,0-0.8l1.3-1.3c0.9-0.9,2.2-1.1,3.3-0.6c0.3,0.1,0.5,0.3,0.8,0.5
		c1.1,1.1,1.1,2.9,0,4l-2.4,2.4C261.2,22.8,260.5,23.1,259.7,23.1z"/>
	<path class="st4" d="M276.6,20.1l-1.4-1.4l0.7-1.9l2.4-0.6c-0.9-0.9-2.1-1.4-3.4-1.1c-1.9,0.4-3,2.3-2.6,4.2c0,0.1,0.1,0.3,0.1,0.4
		l-4.9,4.8c-0.6,0.6-0.6,1.5,0,2.1c0.6,0.6,1.5,0.6,2.1,0l4.9-4.8c0.7,0.3,1.3,0.3,2,0.2c1.3-0.3,2.2-1.3,2.5-2.4L276.6,20.1z"/>
	<path class="st4" d="M161,17c-4.9,0-6,4-6,4s1.1,4,6,4c4.9,0,6-4,6-4S165.9,17,161,17z M164,21c0,1.7-1.3,3-3,3s-3-1.3-3-3
		s1.3-3,3-3S164,19.3,164,21z M156.1,21c0.2-0.4,0.6-1.2,1.4-1.8c-0.3,0.6-0.5,1.2-0.5,1.8c0,0.7,0.2,1.3,0.5,1.9
		C156.7,22.2,156.3,21.4,156.1,21z M164.5,22.8c0.3-0.6,0.5-1.2,0.5-1.8c0-0.7-0.2-1.3-0.5-1.9c0.8,0.7,1.2,1.5,1.4,1.9
		C165.7,21.4,165.3,22.2,164.5,22.8z"/>
	<g>
		<circle class="st4" cx="161" cy="21" r="1.5"/>
	</g>
	<path class="st4" d="M153,19.2l-4.1-4.2l-1.9,1.9l0,0l-6,6l0,0V27h4.1l0,0L153,19.2L153,19.2L153,19.2z M142,26v-0.7l0.7,0.7H142z
		 M151.1,19.7l-2.7-2.7l0.5-0.5l2.7,2.7L151.1,19.7z M147.6,17.6l1,1l-5.9,5.9l-1-1L147.6,17.6z M144.5,26.3l-1-1l5.9-5.9l1,1
		L144.5,26.3z"/>
	<g>
		<path class="st4" d="M319,16v1.8V26h-8V16h6.1H319 M320,15h-2.9H310v12h10v-9.2V15L320,15z"/>
	</g>
	<g>
		<rect x="312.5" y="17.9" class="st4" width="5" height="1"/>
	</g>
	<g>
		<rect x="312.5" y="19.9" class="st4" width="5" height="1"/>
	</g>
	<g>
		<rect x="312.5" y="21.9" class="st4" width="5" height="1"/>
	</g>
	<g>
		<rect x="312.5" y="23.9" class="st4" width="5" height="1"/>
	</g>
	<path class="st4" d="M181,21c0,0-1.2-4-6-4c-4.9,0-6,4-6,4s0.9,3.3,4.8,3.9c0.4,0.1,0.8,0.2,1.2,0.2s0.8-0.1,1.2-0.2
		C180.1,24.3,181,21,181,21z M175,24c-0.2,0-0.4,0-0.5,0c-0.2-0.2-0.4-0.6-0.6-1.1c0.3,0,0.7,0.1,1.1,0.1s0.7,0,1.1-0.1
		c-0.2,0.5-0.4,0.8-0.6,1.1C175.4,24,175.2,24,175,24z M173.1,23.7c-0.5-0.4-0.9-0.8-1.2-1.4c0.4,0.2,0.8,0.4,1.3,0.5
		c0.1,0.4,0.2,0.7,0.4,1C173.4,23.8,173.2,23.8,173.1,23.7z M175,18c0.2,0,0.4,0,0.5,0c0.2,0.2,0.4,0.6,0.6,1.1
		c-0.4-0.1-0.7-0.1-1.1-0.1c-0.4,0-0.7,0-1.1,0.1c0.2-0.5,0.4-0.8,0.6-1.1C174.6,18,174.8,18,175,18z M173.7,20.7
		c0-0.3,0-0.6,0.1-0.9c0.3-0.1,0.8-0.1,1.2-0.1c0.4,0,0.9,0,1.2,0.1c0,0.3,0.1,0.6,0.1,0.9H173.7z M176.3,21.3c0,0.3,0,0.6-0.1,0.9
		c-0.3,0.1-0.8,0.1-1.2,0.1c-0.4,0-0.9,0-1.2-0.1c0-0.3-0.1-0.6-0.1-0.9H176.3z M173.6,18.2c-0.2,0.3-0.3,0.6-0.4,1
		c-0.5,0.1-0.9,0.3-1.3,0.5c0.3-0.6,0.7-1,1.2-1.4C173.2,18.2,173.4,18.2,173.6,18.2z M173.1,20c-0.1,0.2-0.1,0.4-0.1,0.7h-1.2
		C172,20.4,172.4,20.2,173.1,20z M173,21.3c0,0.2,0,0.5,0.1,0.7c-0.6-0.1-1.1-0.4-1.3-0.7H173z M176.4,23.8c0.2-0.3,0.3-0.6,0.4-1
		c0.5-0.1,0.9-0.3,1.3-0.5c-0.3,0.6-0.7,1-1.1,1.4C176.8,23.7,176.6,23.8,176.4,23.8z M176.9,22c0.1-0.2,0.1-0.4,0.1-0.7h1.2
		C178,21.6,177.6,21.8,176.9,22z M177,20.7c0-0.2,0-0.5-0.1-0.7c0.6,0.2,1,0.5,1.3,0.7H177z M178.1,19.7c-0.4-0.2-0.8-0.4-1.3-0.5
		c-0.1-0.4-0.2-0.7-0.4-1c0.2,0,0.3,0.1,0.5,0.1C177.4,18.7,177.8,19.1,178.1,19.7z M170.1,21c0.2-0.4,0.6-1.2,1.4-1.9
		c-0.3,0.5-0.4,1-0.5,1.6v0.7c0,0.5,0.2,1,0.4,1.4C170.6,22.2,170.3,21.4,170.1,21z M178.6,22.7c0.2-0.4,0.3-0.9,0.4-1.3v-0.7
		c-0.1-0.6-0.2-1.1-0.5-1.6c0.8,0.7,1.2,1.4,1.4,1.9C179.8,21.4,179.4,22.1,178.6,22.7z"/>
	<path class="st4" d="M38.5,21.9c-0.2,0-0.4,0-0.6,0.1L34,18.2c0.1-0.2,0.1-0.4,0.1-0.6c0-1.4-1.1-2.5-2.5-2.5c-0.2,0-0.4,0-0.6,0.1
		l1,1l0,0c0.2,0.2,0.3,0.5,0.3,0.8c0,0.7-0.6,1.3-1.3,1.3c-0.3,0-0.6-0.1-0.8-0.3l0,0l-1-1C29,17.1,29,17.3,29,17.5
		c0,1.4,1.1,2.5,2.5,2.5c0.2,0,0.4,0,0.6-0.1l3.9,3.9c-0.1,0.2-0.1,0.4-0.1,0.6c0,1.4,1.1,2.5,2.5,2.5c0.2,0,0.4,0,0.6-0.1l-1-1l0,0
		c-0.2-0.2-0.3-0.5-0.3-0.8c0-0.7,0.6-1.3,1.3-1.3c0.3,0,0.6,0.1,0.8,0.3l0,0l1,1c0.1-0.2,0.1-0.4,0.1-0.6
		C41,23.1,39.9,21.9,38.5,21.9z"/>
	<g>
		<path class="st4" d="M137.1,16.9h-1.3v-1.3c0-0.3-0.3-0.6-0.6-0.6h-0.1c-0.3,0-0.6,0.3-0.6,0.6v1.3h-2.5v-1.3
			c0-0.3-0.3-0.6-0.6-0.6h-0.1c-0.3,0-0.6,0.3-0.6,0.6v1.3h-1.3c-0.3,0-0.6,0.3-0.6,0.6l-1.9,6.9c0,0.3,0.3,0.6,0.6,0.6h7.6
			c0.3,0,0.6-0.3,0.6-0.6l1.9-6.9C137.7,17.2,137.5,16.9,137.1,16.9z"/>
		<path class="st4" d="M136.5,24.6c-0.1,0.7-0.6,1.2-1.3,1.2h-6.3v0.6c0,0.4,0.3,0.7,0.7,0.7h7.5c0.4,0,0.7-0.3,0.7-0.7v-6.3
			L136.5,24.6z"/>
	</g>
	<rect x="186" y="16" class="st4" width="9" height="2"/>
	<rect x="186" y="20" class="st4" width="9" height="2"/>
	<rect x="186" y="24" class="st4" width="9" height="2"/>
	<circle class="st4" cx="184" cy="17" r="1"/>
	<circle class="st4" cx="184" cy="21" r="1"/>
	<circle class="st4" cx="184" cy="25" r="1"/>
	<path class="st4" d="M206.4,19.5H206V18c0-1.7-1.3-3-3-3s-3,1.3-3,3v1.5h-0.4c-0.6,0.1-1.1,0.5-1.1,1.1v5.3c0,0.6,0.5,1.1,1.1,1.1
		h6.7c0.6,0,1.1-0.5,1.1-1.1v-5.3C207.6,20,207,19.5,206.4,19.5z M201,18c0-1.1,0.9-2,2-2c1.1,0,2,0.9,2,2v1.5h-4V18z M203.6,23.3
		v1.1c0,0.3-0.2,0.5-0.5,0.5s-0.5-0.2-0.5-0.5v-1.1c-0.3-0.2-0.5-0.5-0.5-0.9c0-0.5,0.5-1,1-1c0.5,0,1,0.5,1,1
		C204,22.9,203.8,23.2,203.6,23.3z"/>
	<path class="st4" d="M12.8,20.1l-4.7-4.7c-0.6-0.6-1.6-0.6-2.2,0l-4.7,4.7c-0.3,0.3-0.3,0.8,0,1.1h1v0.2v4.7C2.3,26.6,2.6,27,3,27
		h1.6c0.4,0,0.8-0.4,0.8-0.8V23c0-0.4,0.4-0.8,0.8-0.8h1.6c0.4,0,0.8,0.4,0.8,0.8v3.2c0,0.4,0.4,0.8,0.8,0.8H11
		c0.4,0,0.8-0.4,0.8-0.8v-4.7v-0.2h1C13.1,20.9,13.1,20.4,12.8,20.1z"/>
	<path class="st4" d="M21,15c-3.3,0-6,2.7-6,6c0,1.9,0.9,3.7,2.4,4.8c0.5-1.8,1.9-3,3.6-3s3.2,1.3,3.6,3c1.4-1.1,2.4-2.8,2.4-4.8
		C27,17.7,24.3,15,21,15z M21,21.9c-1.1,0-2-0.9-2-2c0-1.1,0.9-2,2-2s2,0.9,2,2C23,21,22.1,21.9,21,21.9z"/>
	<g>
		<path class="st4" d="M69.9,25.4L64,15.5c-0.3-0.3-0.6-0.5-1-0.5c-0.4,0-0.7,0.2-0.9,0.5l-5.9,9.9c-0.2,0.3-0.2,0.7,0,1.1
			c0.2,0.3,0.5,0.5,0.9,0.5h12c0.4,0,0.7-0.2,0.9-0.5C70,26.1,70,25.7,69.9,25.4z M57.1,26L63,16l5.9,9.9H57.1V26z"/>
		<path class="st4" d="M63,19L63,19L63,19L63,19L63,19c-0.5,0-0.6,0.2-0.6,0.4l0.1,3.2c0,0.2,0.2,0.4,0.5,0.4l0,0l0,0l0,0l0,0
			c0.3,0,0.5-0.2,0.5-0.4l0.1-3.2C63.6,19.2,63.5,19,63,19z"/>
		<ellipse class="st4" cx="63" cy="24.5" rx="0.5" ry="0.5"/>
	</g>
	<path class="st4" d="M54.7,20.5l-5-5.2c-0.5-0.5-0.6-0.5-1.1,0c0,0-1.7,2-2,1.2c-0.3-0.8-0.2-1.1-1.4-1.2c-1.1,0-1.2,0.6-1.5,1.2
		c-0.3,0.7,0,1.3,0.8,1.6c1.4,0.5-1.3,2.5-1.3,2.5c-0.3,0.3-0.3,0.5,0,0.8c0.1,0.1,0.3,0.3,0.4,0.4c0,0,0.8,0.7,1.2,1.2
		c0.4,0.5-0.2,0.8-0.2,0.8c-0.7,0-1.1,0.5-1.1,1.2s0.6,1.4,1.3,1.5c0.6,0.1,1.3-0.2,1.4-0.8c0,0,0.1-1,0.7-0.7
		c0.6,0.3,1.6,1.8,1.6,1.8c0.3,0.3,0.5,0.3,0.8,0l5.5-4.8C55.1,21.6,55,20.8,54.7,20.5z M51,21.9h-1v1c0,0.6-0.4,1-1,1
		c-0.6,0-1-0.4-1-1v-1h-1c-0.6,0-1-0.4-1-1s0.4-1,1-1h1v-1c0-0.6,0.4-1,1-1c0.6,0,1,0.4,1,1v1h1c0.6,0,1,0.4,1,1S51.6,21.9,51,21.9z
		"/>
	<g>
		<path class="st4" d="M110.1,24.3l-4.4-7.3c-0.1-0.2-0.4-0.4-0.7-0.4s-0.5,0.1-0.7,0.4l-4.4,7.3c-0.1,0.2-0.1,0.5,0,0.8
			c0.1,0.2,0.4,0.4,0.7,0.4h8.8c0.3,0,0.5-0.1,0.7-0.4C110.2,24.8,110.2,24.5,110.1,24.3z M101,24.4l4-6.7l4,6.7H101z"/>
		<g>
			<path class="st4" d="M106.5,16.4l0.9,1.6h3.5v-2h-4.8C106.3,16.1,106.4,16.3,106.5,16.4z"/>
			<path class="st4" d="M103.5,16.4c0.1-0.2,0.2-0.3,0.4-0.4H99v2h3.5L103.5,16.4z"/>
		</g>
		<g>
			<polygon class="st4" points="109.9,22 111,22 111,20 108.7,20 			"/>
			<polygon class="st4" points="101.3,20 99,20 99,22 100.1,22 			"/>
		</g>
		<g>
			<path class="st4" d="M99.1,25.5c0,0,0-0.1-0.1-0.2V26h0.5C99.3,25.9,99.2,25.7,99.1,25.5z"/>
			<path class="st4" d="M110.9,25.5c-0.1,0.2-0.2,0.3-0.4,0.5h0.5v-0.6C111,25.4,111,25.5,110.9,25.5z"/>
		</g>
		<path class="st4" d="M105,19.1L105,19.1L105,19.1L105,19.1L105,19.1c-0.5,0-0.6,0.1-0.6,0.3l0.1,2.5c0,0.2,0.2,0.3,0.5,0.3l0,0
			l0,0l0,0l0,0c0.3,0,0.5-0.1,0.5-0.3l0.1-2.5C105.6,19.3,105.5,19.1,105,19.1z"/>
		<circle class="st4" cx="105" cy="23.5" r="0.5"/>
	</g>
	<g>
		<g>
			<g>
				<g>
					<path class="st4" d="M77.3,25.2c-0.2,0.2-0.4,0.2-0.6,0c0,0-0.7-1.1-1.2-1.3c-0.4-0.3-0.5,0.5-0.5,0.5
						c-0.1,0.4-0.6,0.7-1.1,0.6s-1-0.6-1-1.1s0.4-0.8,0.8-0.9c0,0,0.5-0.2,0.2-0.6c-0.3-0.3-0.9-0.9-0.9-0.9
						c-0.1-0.1-0.2-0.2-0.3-0.3c-0.2-0.2-0.2-0.4,0-0.6c0,0,1.9-1.5,0.9-1.9c-0.5-0.2-0.8-0.7-0.6-1.2s0.3-0.9,1.1-0.9
						s0.8,0.2,1,0.9c0.2,0.6,1.4-0.9,1.4-0.9c0.4-0.4,0.5-0.4,0.8,0l3.7,3.9c0.2,0.2,0.3,0.8,0,1L77.3,25.2z"/>
				</g>
			</g>
		</g>
		<g>
			<path class="st4" d="M78,15.9C78,16,78,16,78,15.9l2,2.1h3v-2.1H78z"/>
			<path class="st4" d="M72,17.2L72,17.2c0.2-0.4,0.4-0.9,0.9-1.2H71v2.1h0.9C71.9,17.8,71.9,17.5,72,17.2z"/>
		</g>
		<g>
			<path class="st4" d="M71.9,22c-0.6-0.6-0.6-1.4,0-2H71v2.1L71.9,22L71.9,22z"/>
			<path class="st4" d="M81.7,19.9c0.3,0.3,0.4,0.9,0.4,1.3c0,0.3-0.2,0.5-0.3,0.8H83v-2.1H81.7z"/>
		</g>
		<g>
			<path class="st4" d="M73.7,26c-1-0.2-1.8-1.1-1.8-2.1H71v2.1h2.9C73.8,26,73.7,26,73.7,26z"/>
			<path class="st4" d="M80,23.9l-2,2c0,0-0.1,0.1-0.1,0.1H83v-2.1H80z"/>
		</g>
	</g>
	<g>
		<path class="st4" d="M93,20h-1v-1c0-0.6-0.4-1-1-1s-1,0.4-1,1v1h-1c-0.6,0-1,0.4-1,1s0.4,1,1,1h1v1c0,0.6,0.4,1,1,1s1-0.4,1-1v-1
			h1c0.6,0,1-0.4,1-1S93.6,20,93,20z"/>
		<path class="st4" d="M96.9,20l-1.5-0.4c-0.1-0.3-0.2-0.6-0.3-0.8l0.8-1.3c0,0,0-0.1,0-0.2l-1.2-1.2c0,0-0.1,0-0.2,0l-1.3,0.8
			c-0.3-0.1-0.5-0.2-0.8-0.3L92,15.1c0-0.1,0-0.1-0.1-0.1h-1.7c-0.1,0-0.1,0-0.1,0.1l-0.4,1.5c-0.3,0.1-0.6,0.2-0.8,0.3l-1.3-0.8
			c0,0-0.1,0-0.2,0l-1.2,1.2c0,0,0,0.1,0,0.2l0.8,1.3c-0.1,0.3-0.2,0.5-0.3,0.8L85.1,20c-0.1,0-0.1,0-0.1,0.1v1.7
			c0,0.1,0,0.1,0.1,0.1l1.5,0.4c0.1,0.3,0.2,0.6,0.3,0.8l-0.8,1.3c0,0,0,0.1,0,0.2l1.2,1.2c0,0,0.1,0,0.2,0l1.3-0.8
			c0.3,0.1,0.5,0.2,0.8,0.3l0.4,1.5c0,0.1,0,0.1,0.1,0.1h1.7c0.1,0,0.1,0,0.1-0.1l0.4-1.5c0.3-0.1,0.6-0.2,0.8-0.3l1.3,0.8
			c0,0,0.1,0,0.2,0l1.2-1.2c0,0,0-0.1,0-0.2l-0.8-1.3c0.1-0.3,0.2-0.5,0.3-0.8l1.5-0.4c0.1,0,0.1,0,0.1-0.1v-1.7
			C97,20.1,97,20,96.9,20z M91,24.4c-1.9,0-3.4-1.5-3.4-3.4s1.5-3.4,3.4-3.4s3.4,1.5,3.4,3.4S92.9,24.4,91,24.4z"/>
	</g>
	<g>
		<path class="st4" d="M222.9,20l-1.5-0.4c-0.1-0.3-0.2-0.6-0.3-0.8l0.8-1.3c0,0,0-0.1,0-0.2l-1.2-1.2c0,0-0.1,0-0.2,0l-1.3,0.8
			c-0.3-0.1-0.5-0.2-0.8-0.3l-0.4-1.5c0-0.1,0-0.1-0.1-0.1h-1.7c-0.1,0-0.1,0-0.1,0.1l-0.4,1.5c-0.3,0.1-0.6,0.2-0.8,0.3l-1.3-0.8
			c0,0-0.1,0-0.2,0l-1.2,1.2c0,0,0,0.1,0,0.2l0.8,1.3c-0.1,0.3-0.2,0.5-0.3,0.8l-1.5,0.4c-0.1,0-0.1,0-0.1,0.1v1.7
			c0,0.1,0,0.1,0.1,0.1l1.5,0.4c0.1,0.3,0.2,0.6,0.3,0.8l-0.8,1.3c0,0,0,0.1,0,0.2l1.2,1.2c0,0,0.1,0,0.2,0l1.3-0.8
			c0.3,0.1,0.5,0.2,0.8,0.3l0.4,1.5c0,0.1,0,0.1,0.1,0.1h1.7c0.1,0,0.1,0,0.1-0.1l0.4-1.5c0.3-0.1,0.6-0.2,0.8-0.3l1.3,0.8
			c0,0,0.1,0,0.2,0l1.2-1.2c0,0,0-0.1,0-0.2l-0.8-1.3c0.1-0.3,0.2-0.5,0.3-0.8l1.5-0.4c0.1,0,0.1,0,0.1-0.1v-1.7
			C223,20.1,223,20,222.9,20z M217,23.6c-1.4,0-2.6-1.2-2.6-2.6s1.2-2.6,2.6-2.6s2.6,1.2,2.6,2.6S218.4,23.6,217,23.6z"/>
	</g>
	<g>
		<g>
			<path class="st4" d="M116.3,16.6l0.9,0.3c0,0,0.1,0,0.1-0.1l0.4-0.9H113v2h1.9L116.3,16.6z"/>
			<path class="st4" d="M120.3,16l0.4,0.9c0,0,0.1,0,0.1,0.1l0.9-0.3l1.4,1.4h1.9V16H120.3z"/>
		</g>
		<g>
			<rect x="113" y="20" class="st4" width="1" height="2"/>
			<rect x="124" y="20" class="st4" width="1" height="2"/>
		</g>
		<g>
			<path class="st4" d="M117.2,25.1l-0.9,0.3l-1.4-1.4H113v2h4.8l-0.4-0.9C117.3,25.1,117.3,25.1,117.2,25.1z"/>
			<path class="st4" d="M123,24l-1.4,1.4l-0.9-0.3c0,0-0.1,0-0.1,0.1l-0.4,0.9h4.8v-2L123,24L123,24z"/>
		</g>
		<path class="st4" d="M122.9,20.3l-1-0.3c-0.1-0.2-0.1-0.4-0.2-0.5l0.5-0.9c0,0,0-0.1,0-0.1l-0.8-0.8c0,0-0.1,0-0.1,0l-0.9,0.5
			c-0.2-0.1-0.3-0.2-0.5-0.2l-0.3-1c0,0,0-0.1-0.1-0.1h-1.1c0,0-0.1,0-0.1,0.1l-0.3,1c-0.2,0.1-0.4,0.1-0.5,0.2l-0.9-0.5
			c0,0-0.1,0-0.1,0l-0.8,0.8c0,0,0,0.1,0,0.1l0.5,0.9c-0.1,0.2-0.2,0.3-0.2,0.5l-1,0.3c0,0-0.1,0-0.1,0.1v1.1c0,0,0,0.1,0.1,0.1
			l1,0.3c0.1,0.2,0.1,0.4,0.2,0.5l-0.5,0.9c0,0,0,0.1,0,0.1l0.8,0.8c0,0,0.1,0,0.1,0l0.9-0.5c0.2,0.1,0.3,0.2,0.5,0.2l0.3,1
			c0,0,0,0.1,0.1,0.1h1.1c0,0,0.1,0,0.1-0.1l0.3-1c0.2-0.1,0.4-0.1,0.5-0.2l0.9,0.5c0,0,0.1,0,0.1,0l0.8-0.8c0,0,0-0.1,0-0.1
			l-0.5-0.9c0.1-0.2,0.2-0.3,0.2-0.5l1-0.3c0,0,0.1,0,0.1-0.1L122.9,20.3C123,20.3,123,20.3,122.9,20.3z M119,23.2
			c-1.3,0-2.3-1-2.3-2.3c0-1.3,1-2.3,2.3-2.3s2.3,1,2.3,2.3C121.3,22.2,120.3,23.2,119,23.2z"/>
	</g>
	<path class="st3" d="M329,15c-3,0-5.4,2.2-5.9,5h5.7l-1-1c-0.4-0.4-0.4-1,0-1.4c0.4-0.4,1-0.4,1.4,0l2.7,2.7c0.4,0.4,0.4,1,0,1.4
		l-2.7,2.7c-0.4,0.4-1,0.4-1.4,0c-0.4-0.4-0.4-1,0-1.4l1-1h-5.7c0.5,2.8,2.9,5,5.9,5c3.3,0,6-2.7,6-6S332.3,15,329,15z"/>
	<path class="st4" d="M287,16c2.8,0,5,2.2,5,5s-2.2,5-5,5s-5-2.2-5-5S284.2,16,287,16 M287,15c-3.3,0-6,2.7-6,6s2.7,6,6,6s6-2.7,6-6
		S290.3,15,287,15L287,15z"/>
	<path class="st4" d="M286,23.7l-2.4-2.4c-0.2-0.2-0.2-0.5,0-0.7s0.5-0.2,0.7,0l1.6,1.6l3.6-3.6c0.2-0.2,0.5-0.2,0.7,0
		s0.2,0.5,0,0.7L286,23.7z"/>
	<g>
		<path class="st4" d="M301,24c-2.2,0-4,1.8-4,4h8C305,25.8,303.2,24,301,24z"/>
	</g>
	<g>
		<circle class="st4" cx="301" cy="21" r="2"/>
	</g>
	<path class="st4" d="M303.8,22c-0.2,0.5-0.5,1-1,1.3c1.2,0.5,2.2,1.4,2.7,2.7h2.4c0-2.2-1.8-4-4-4C303.9,22,303.9,22,303.8,22z"/>
	<path class="st4" d="M299.2,23.4c-0.4-0.3-0.8-0.8-1-1.3c-0.1,0-0.1,0-0.2,0c-2.2,0-4,1.8-4,4h2.4C297,24.8,297.9,23.8,299.2,23.4z
		"/>
	<path class="st4" d="M304,21c1.1,0,2-0.9,2-2s-0.9-2-2-2c-0.8,0-1.5,0.5-1.8,1.2C303.2,18.7,304,19.8,304,21z"/>
	<path class="st4" d="M298,21c0-1.2,0.8-2.3,1.8-2.8c-0.3-0.7-1-1.2-1.8-1.2c-1.1,0-2,0.9-2,2S296.9,21,298,21z"/>
	<path class="st5" d="M231,36c-3.4,0-6,2.7-6,6h12C237,38.6,234.4,36,231,36z"/>
	<circle class="st5" cx="231" cy="32" r="3"/>
	<path class="st5" d="M251,34.5c-0.3-3.1-2.9-5.5-6-5.5s-5.7,2.4-6,5.5l0,0v1l0,0c0.3,3.1,2.8,5.5,6,5.5s5.7-2.4,6-5.5l0,0V34.5
		L251,34.5z M245,40c-0.5,0-1.2-0.8-1.6-2.1c0.5,0.1,1,0.1,1.6,0.1s1.1,0,1.6-0.1C246.2,39.2,245.5,40,245,40z M245,37
		c-0.7,0-1.3-0.1-1.8-0.2c-0.1-0.4-0.2-0.8-0.2-1.3h4c0,0.5-0.1,0.9-0.1,1.3C246.3,36.9,245.7,37,245,37z M245,30
		c0.5,0,1.2,0.8,1.6,2.1c-0.5-0.1-1-0.1-1.6-0.1s-1.1,0-1.6,0.1C243.8,30.8,244.5,30,245,30z M245,33c0.7,0,1.3,0.1,1.8,0.2
		c0.1,0.4,0.2,0.8,0.2,1.3h-4c0-0.5,0.1-0.9,0.1-1.3C243.7,33.1,244.3,33,245,33z M248,34.5c0-0.4,0-0.7-0.1-1.1
		c0.9,0.3,1.6,0.7,1.9,1.1H248z M242,34.5h-1.8c0.3-0.4,1-0.8,1.9-1.1C242.1,33.8,242,34.1,242,34.5z M240.2,35.5h1.8
		c0,0.4,0,0.7,0.1,1.1C241.2,36.3,240.5,35.9,240.2,35.5z M248,35.5h1.8c-0.3,0.4-1,0.8-1.9,1.1C247.9,36.2,248,35.9,248,35.5z
		 M249.6,33.1c-0.5-0.3-1.2-0.6-1.9-0.8c-0.2-0.7-0.4-1.4-0.8-1.9C248.1,30.9,249.1,31.9,249.6,33.1z M243.1,30.4
		c-0.3,0.5-0.6,1.2-0.8,1.9c-0.7,0.2-1.4,0.4-1.9,0.8C240.9,31.9,241.9,30.9,243.1,30.4z M240.4,36.9c0.5,0.3,1.2,0.6,1.9,0.8
		c0.2,0.7,0.4,1.4,0.8,1.9C241.9,39.1,240.9,38.1,240.4,36.9z M246.9,39.6c0.3-0.5,0.6-1.2,0.8-1.9c0.7-0.2,1.4-0.4,1.9-0.8
		C249.1,38.1,248.1,39.1,246.9,39.6z"/>
	<path class="st5" d="M255.8,41c-0.7,0-1.5-0.3-2-0.8c-1.1-1.1-1.1-2.9,0-4l2.4-2.4c1.1-1.1,2.9-1.1,4,0c0.2,0.2,0.4,0.5,0.5,0.8
		c0.1,0.3,0,0.6-0.3,0.8c-0.3,0.1-0.6,0-0.8-0.3c-0.1-0.2-0.2-0.3-0.3-0.5c-0.7-0.7-1.7-0.7-2.4,0l-2.4,2.4c-0.7,0.7-0.7,1.7,0,2.4
		s1.8,0.7,2.4,0l1.3-1.3c0.2-0.2,0.6-0.2,0.8,0c0.2,0.2,0.2,0.6,0,0.8l-1.3,1.3C257.3,40.7,256.6,41,255.8,41z"/>
	<path class="st5" d="M259.7,37.1c-0.7,0-1.5-0.3-2-0.8c-0.2-0.2-0.4-0.5-0.5-0.7c-0.1-0.3,0-0.6,0.2-0.8c0.3-0.1,0.6,0,0.8,0.2
		c0.1,0.2,0.2,0.3,0.3,0.4c0.7,0.7,1.7,0.7,2.4,0l2.4-2.4c0.7-0.7,0.7-1.8,0-2.4c-0.1-0.1-0.3-0.2-0.5-0.3c-0.7-0.3-1.4-0.2-2,0.3
		l-1.2,1.4c-0.2,0.2-0.6,0.2-0.8,0c-0.2-0.2-0.2-0.6,0-0.8l1.3-1.3c0.9-0.9,2.2-1.1,3.3-0.6c0.3,0.1,0.5,0.3,0.8,0.5
		c1.1,1.1,1.1,2.9,0,4l-2.4,2.4C261.2,36.8,260.5,37.1,259.7,37.1z"/>
	<path class="st5" d="M276.6,34.1l-1.4-1.4l0.7-1.9l2.4-0.6c-0.9-0.9-2.1-1.4-3.4-1.1c-1.9,0.4-3,2.3-2.6,4.2c0,0.1,0.1,0.3,0.1,0.4
		l-4.9,4.8c-0.6,0.6-0.6,1.5,0,2.1c0.6,0.6,1.5,0.6,2.1,0l4.9-4.8c0.7,0.3,1.3,0.3,2,0.2c1.3-0.3,2.2-1.3,2.5-2.4L276.6,34.1z"/>
	<path class="st5" d="M161,31c-4.9,0-6,4-6,4s1.1,4,6,4c4.9,0,6-4,6-4S165.9,31,161,31z M164,35c0,1.7-1.3,3-3,3s-3-1.3-3-3
		s1.3-3,3-3S164,33.3,164,35z M156.1,35c0.2-0.4,0.6-1.2,1.4-1.8c-0.3,0.6-0.5,1.2-0.5,1.8c0,0.7,0.2,1.3,0.5,1.9
		C156.7,36.2,156.3,35.4,156.1,35z M164.5,36.8c0.3-0.6,0.5-1.2,0.5-1.8c0-0.7-0.2-1.3-0.5-1.9c0.8,0.7,1.2,1.5,1.4,1.9
		C165.7,35.4,165.3,36.2,164.5,36.8z"/>
	<g>
		<circle class="st5" cx="161" cy="35" r="1.5"/>
	</g>
	<path class="st5" d="M153,33.2l-4.1-4.2l-1.9,1.9l0,0l-6,6l0,0V41h4.1l0,0L153,33.2L153,33.2L153,33.2z M142,40v-0.7l0.7,0.7H142z
		 M151.1,33.7l-2.7-2.7l0.5-0.5l2.7,2.7L151.1,33.7z M147.6,31.6l1,1l-5.9,5.9l-1-1L147.6,31.6z M144.5,40.3l-1-1l5.9-5.9l1,1
		L144.5,40.3z"/>
	<g>
		<path class="st5" d="M319,30v1.8V40h-8V30h6.1H319 M320,29h-2.9H310v12h10v-9.2V29L320,29z"/>
	</g>
	<g>
		<rect x="312.5" y="31.9" class="st5" width="5" height="1"/>
	</g>
	<g>
		<rect x="312.5" y="33.9" class="st5" width="5" height="1"/>
	</g>
	<g>
		<rect x="312.5" y="35.9" class="st5" width="5" height="1"/>
	</g>
	<g>
		<rect x="312.5" y="37.9" class="st5" width="5" height="1"/>
	</g>
	<path class="st5" d="M181,35c0,0-1.2-4-6-4c-4.9,0-6,4-6,4s0.9,3.3,4.8,3.9c0.4,0.1,0.8,0.2,1.2,0.2s0.8-0.1,1.2-0.2
		C180.1,38.3,181,35,181,35z M175,38c-0.2,0-0.4,0-0.5,0c-0.2-0.2-0.4-0.6-0.6-1.1c0.3,0,0.7,0.1,1.1,0.1s0.7,0,1.1-0.1
		c-0.2,0.5-0.4,0.8-0.6,1.1C175.4,38,175.2,38,175,38z M173.1,37.7c-0.5-0.4-0.9-0.8-1.2-1.4c0.4,0.2,0.8,0.4,1.3,0.5
		c0.1,0.4,0.2,0.7,0.4,1C173.4,37.8,173.2,37.8,173.1,37.7z M175,32c0.2,0,0.4,0,0.5,0c0.2,0.2,0.4,0.6,0.6,1.1
		c-0.4-0.1-0.7-0.1-1.1-0.1c-0.4,0-0.7,0-1.1,0.1c0.2-0.5,0.4-0.8,0.6-1.1C174.6,32,174.8,32,175,32z M173.7,34.7
		c0-0.3,0-0.6,0.1-0.9c0.3-0.1,0.8-0.1,1.2-0.1c0.4,0,0.9,0,1.2,0.1c0,0.3,0.1,0.6,0.1,0.9H173.7z M176.3,35.3c0,0.3,0,0.6-0.1,0.9
		c-0.3,0.1-0.8,0.1-1.2,0.1c-0.4,0-0.9,0-1.2-0.1c0-0.3-0.1-0.6-0.1-0.9H176.3z M173.6,32.2c-0.2,0.3-0.3,0.6-0.4,1
		c-0.5,0.1-0.9,0.3-1.3,0.5c0.3-0.6,0.7-1,1.2-1.4C173.2,32.2,173.4,32.2,173.6,32.2z M173.1,34c-0.1,0.2-0.1,0.4-0.1,0.7h-1.2
		C172,34.4,172.4,34.2,173.1,34z M173,35.3c0,0.2,0,0.5,0.1,0.7c-0.6-0.1-1.1-0.4-1.3-0.7H173z M176.4,37.8c0.2-0.3,0.3-0.6,0.4-1
		c0.5-0.1,0.9-0.3,1.3-0.5c-0.3,0.6-0.7,1-1.1,1.4C176.8,37.7,176.6,37.8,176.4,37.8z M176.9,36c0.1-0.2,0.1-0.4,0.1-0.7h1.2
		C178,35.6,177.6,35.8,176.9,36z M177,34.7c0-0.2,0-0.5-0.1-0.7c0.6,0.2,1,0.5,1.3,0.7H177z M178.1,33.7c-0.4-0.2-0.8-0.4-1.3-0.5
		c-0.1-0.4-0.2-0.7-0.4-1c0.2,0,0.3,0.1,0.5,0.1C177.4,32.7,177.8,33.1,178.1,33.7z M170.1,35c0.2-0.4,0.6-1.2,1.4-1.9
		c-0.3,0.5-0.4,1-0.5,1.6v0.7c0,0.5,0.2,1,0.4,1.4C170.6,36.2,170.3,35.4,170.1,35z M178.6,36.7c0.2-0.4,0.3-0.9,0.4-1.3v-0.7
		c-0.1-0.6-0.2-1.1-0.5-1.6c0.8,0.7,1.2,1.4,1.4,1.9C179.8,35.4,179.4,36.1,178.6,36.7z"/>
	<path class="st5" d="M38.5,35.9c-0.2,0-0.4,0-0.6,0.1L34,32.2c0.1-0.2,0.1-0.4,0.1-0.6c0-1.4-1.1-2.5-2.5-2.5c-0.2,0-0.4,0-0.6,0.1
		l1,1l0,0c0.2,0.2,0.3,0.5,0.3,0.8c0,0.7-0.6,1.3-1.3,1.3c-0.3,0-0.6-0.1-0.8-0.3l0,0l-1-1C29,31.1,29,31.3,29,31.5
		c0,1.4,1.1,2.5,2.5,2.5c0.2,0,0.4,0,0.6-0.1l3.9,3.9c-0.1,0.2-0.1,0.4-0.1,0.6c0,1.4,1.1,2.5,2.5,2.5c0.2,0,0.4,0,0.6-0.1l-1-1l0,0
		c-0.2-0.2-0.3-0.5-0.3-0.8c0-0.7,0.6-1.3,1.3-1.3c0.3,0,0.6,0.1,0.8,0.3l0,0l1,1c0.1-0.2,0.1-0.4,0.1-0.6
		C41,37.1,39.9,35.9,38.5,35.9z"/>
	<g>
		<path class="st5" d="M137.1,30.9h-1.3v-1.3c0-0.3-0.3-0.6-0.6-0.6h-0.1c-0.3,0-0.6,0.3-0.6,0.6v1.3h-2.5v-1.3
			c0-0.3-0.3-0.6-0.6-0.6h-0.1c-0.3,0-0.6,0.3-0.6,0.6v1.3h-1.3c-0.3,0-0.6,0.3-0.6,0.6l-1.9,6.9c0,0.3,0.3,0.6,0.6,0.6h7.6
			c0.3,0,0.6-0.3,0.6-0.6l1.9-6.9C137.7,31.2,137.5,30.9,137.1,30.9z"/>
		<path class="st5" d="M136.5,38.6c-0.1,0.7-0.6,1.2-1.3,1.2h-6.3v0.6c0,0.4,0.3,0.7,0.7,0.7h7.5c0.4,0,0.7-0.3,0.7-0.7v-6.3
			L136.5,38.6z"/>
	</g>
	<rect x="186" y="30" class="st5" width="9" height="2"/>
	<rect x="186" y="34" class="st5" width="9" height="2"/>
	<rect x="186" y="38" class="st5" width="9" height="2"/>
	<circle class="st5" cx="184" cy="31" r="1"/>
	<circle class="st5" cx="184" cy="35" r="1"/>
	<circle class="st5" cx="184" cy="39" r="1"/>
	<path class="st5" d="M206.4,33.5H206V32c0-1.7-1.3-3-3-3s-3,1.3-3,3v1.5h-0.4c-0.6,0.1-1.1,0.5-1.1,1.1v5.3c0,0.6,0.5,1.1,1.1,1.1
		h6.7c0.6,0,1.1-0.5,1.1-1.1v-5.3C207.6,34,207,33.5,206.4,33.5z M201,32c0-1.1,0.9-2,2-2c1.1,0,2,0.9,2,2v1.5h-4V32z M203.6,37.3
		v1.1c0,0.3-0.2,0.5-0.5,0.5s-0.5-0.2-0.5-0.5v-1.1c-0.3-0.2-0.5-0.5-0.5-0.9c0-0.5,0.5-1,1-1c0.5,0,1,0.5,1,1
		C204,36.9,203.8,37.2,203.6,37.3z"/>
	<path class="st5" d="M12.8,34.1l-4.7-4.7c-0.6-0.6-1.6-0.6-2.2,0l-4.7,4.7c-0.3,0.3-0.3,0.8,0,1.1h1v0.2v4.7C2.3,40.6,2.6,41,3,41
		h1.6c0.4,0,0.8-0.4,0.8-0.8V37c0-0.4,0.4-0.8,0.8-0.8h1.6c0.4,0,0.8,0.4,0.8,0.8v3.2c0,0.4,0.4,0.8,0.8,0.8H11
		c0.4,0,0.8-0.4,0.8-0.8v-4.7v-0.2h1C13.1,34.9,13.1,34.4,12.8,34.1z"/>
	<path class="st5" d="M21,29c-3.3,0-6,2.7-6,6c0,1.9,0.9,3.7,2.4,4.8c0.5-1.8,1.9-3,3.6-3s3.2,1.3,3.6,3c1.4-1.1,2.4-2.8,2.4-4.8
		C27,31.7,24.3,29,21,29z M21,35.9c-1.1,0-2-0.9-2-2c0-1.1,0.9-2,2-2s2,0.9,2,2C23,35,22.1,35.9,21,35.9z"/>
	<g>
		<path class="st5" d="M69.9,39.4L64,29.5c-0.3-0.3-0.6-0.5-1-0.5c-0.4,0-0.7,0.2-0.9,0.5l-5.9,9.9c-0.2,0.3-0.2,0.7,0,1.1
			c0.2,0.3,0.5,0.5,0.9,0.5h12c0.4,0,0.7-0.2,0.9-0.5C70,40.1,70,39.7,69.9,39.4z M57.1,40L63,30l5.9,9.9L57.1,40L57.1,40z"/>
		<path class="st5" d="M63,33L63,33L63,33L63,33L63,33c-0.5,0-0.6,0.2-0.6,0.4l0.1,3.2c0,0.2,0.2,0.4,0.5,0.4l0,0l0,0l0,0l0,0
			c0.3,0,0.5-0.2,0.5-0.4l0.1-3.2C63.6,33.2,63.5,33,63,33z"/>
		<ellipse class="st5" cx="63" cy="38.5" rx="0.5" ry="0.5"/>
	</g>
	<path class="st5" d="M54.7,34.5l-5-5.2c-0.5-0.5-0.6-0.5-1.1,0c0,0-1.7,2-2,1.2c-0.3-0.8-0.2-1.1-1.4-1.2c-1.1,0-1.2,0.6-1.5,1.2
		c-0.3,0.7,0,1.3,0.8,1.6c1.4,0.5-1.3,2.5-1.3,2.5c-0.3,0.3-0.3,0.5,0,0.8c0.1,0.1,0.3,0.3,0.4,0.4c0,0,0.8,0.7,1.2,1.2
		c0.4,0.5-0.2,0.8-0.2,0.8c-0.7,0-1.1,0.5-1.1,1.2c0,0.7,0.6,1.4,1.3,1.5c0.6,0.1,1.3-0.2,1.4-0.8c0,0,0.1-1,0.7-0.7
		c0.6,0.3,1.6,1.8,1.6,1.8c0.3,0.3,0.5,0.3,0.8,0l5.5-4.8C55.1,35.6,55,34.8,54.7,34.5z M51,35.9h-1v1c0,0.6-0.4,1-1,1
		c-0.6,0-1-0.4-1-1v-1h-1c-0.6,0-1-0.4-1-1c0-0.6,0.4-1,1-1h1v-1c0-0.6,0.4-1,1-1c0.6,0,1,0.4,1,1v1h1c0.6,0,1,0.4,1,1
		C52,35.5,51.6,35.9,51,35.9z"/>
	<g>
		<path class="st5" d="M110.1,38.3l-4.4-7.3c-0.1-0.2-0.4-0.4-0.7-0.4s-0.5,0.1-0.7,0.4l-4.4,7.3c-0.1,0.2-0.1,0.5,0,0.8
			c0.1,0.2,0.4,0.4,0.7,0.4h8.8c0.3,0,0.5-0.1,0.7-0.4C110.2,38.8,110.2,38.5,110.1,38.3z M101,38.4l4-6.7l4,6.7H101z"/>
		<g>
			<path class="st5" d="M106.5,30.4l0.9,1.6h3.5v-2h-4.8C106.3,30.1,106.4,30.3,106.5,30.4z"/>
			<path class="st5" d="M103.5,30.4c0.1-0.2,0.2-0.3,0.4-0.4H99v2h3.5L103.5,30.4z"/>
		</g>
		<g>
			<polygon class="st5" points="109.9,36 111,36 111,34 108.7,34 			"/>
			<polygon class="st5" points="101.3,34 99,34 99,36 100.1,36 			"/>
		</g>
		<g>
			<path class="st5" d="M99.1,39.5c0,0,0-0.1-0.1-0.2V40h0.5C99.3,39.9,99.2,39.7,99.1,39.5z"/>
			<path class="st5" d="M110.9,39.5c-0.1,0.2-0.2,0.3-0.4,0.5h0.5v-0.6C111,39.4,111,39.5,110.9,39.5z"/>
		</g>
		<path class="st5" d="M105,33.1L105,33.1L105,33.1L105,33.1L105,33.1c-0.5,0-0.6,0.1-0.6,0.3l0.1,2.5c0,0.2,0.2,0.3,0.5,0.3l0,0
			l0,0l0,0l0,0c0.3,0,0.5-0.1,0.5-0.3l0.1-2.5C105.6,33.3,105.5,33.1,105,33.1z"/>
		<circle class="st5" cx="105" cy="37.5" r="0.5"/>
	</g>
	<g>
		<g>
			<g>
				<g>
					<path class="st5" d="M77.3,39.2c-0.2,0.2-0.4,0.2-0.6,0c0,0-0.7-1.1-1.2-1.3c-0.4-0.3-0.5,0.5-0.5,0.5
						c-0.1,0.4-0.6,0.7-1.1,0.6c-0.5-0.1-1-0.6-1-1.1s0.4-0.8,0.8-0.9c0,0,0.5-0.2,0.2-0.6c-0.3-0.3-0.9-0.9-0.9-0.9
						c-0.1-0.1-0.2-0.2-0.3-0.3c-0.2-0.2-0.2-0.4,0-0.6c0,0,1.9-1.5,0.9-1.9c-0.5-0.2-0.8-0.7-0.6-1.2c0.2-0.5,0.3-0.9,1.1-0.9
						s0.8,0.2,1,0.9c0.2,0.6,1.4-0.9,1.4-0.9c0.4-0.4,0.5-0.4,0.8,0l3.7,3.9c0.2,0.2,0.3,0.8,0,1L77.3,39.2z"/>
				</g>
			</g>
		</g>
		<g>
			<path class="st5" d="M78,29.9C78,30,78,30,78,29.9l2,2.1h3v-2.1H78z"/>
			<path class="st5" d="M72,31.2L72,31.2c0.2-0.4,0.4-0.9,0.9-1.2H71v2.1h0.9C71.9,31.8,71.9,31.5,72,31.2z"/>
		</g>
		<g>
			<path class="st5" d="M71.9,36c-0.6-0.6-0.6-1.4,0-2H71v2.1L71.9,36L71.9,36z"/>
			<path class="st5" d="M81.7,33.9c0.3,0.3,0.4,0.9,0.4,1.3c0,0.3-0.2,0.5-0.3,0.8H83v-2.1H81.7z"/>
		</g>
		<g>
			<path class="st5" d="M73.7,40c-1-0.2-1.8-1.1-1.8-2.1H71v2.1h2.9C73.8,40,73.7,40,73.7,40z"/>
			<path class="st5" d="M80,37.9l-2,2c0,0-0.1,0.1-0.1,0.1H83v-2.1H80z"/>
		</g>
	</g>
	<g>
		<path class="st5" d="M93,34h-1v-1c0-0.6-0.4-1-1-1s-1,0.4-1,1v1h-1c-0.6,0-1,0.4-1,1s0.4,1,1,1h1v1c0,0.6,0.4,1,1,1s1-0.4,1-1v-1
			h1c0.6,0,1-0.4,1-1S93.6,34,93,34z"/>
		<path class="st5" d="M96.9,34l-1.5-0.4c-0.1-0.3-0.2-0.6-0.3-0.8l0.8-1.3c0,0,0-0.1,0-0.2l-1.2-1.2c0,0-0.1,0-0.2,0l-1.3,0.8
			c-0.3-0.1-0.5-0.2-0.8-0.3L92,29.1c0-0.1,0-0.1-0.1-0.1h-1.7c-0.1,0-0.1,0-0.1,0.1l-0.4,1.5c-0.3,0.1-0.6,0.2-0.8,0.3l-1.3-0.8
			c0,0-0.1,0-0.2,0l-1.2,1.2c0,0,0,0.1,0,0.2l0.8,1.3c-0.1,0.3-0.2,0.5-0.3,0.8L85.1,34c-0.1,0-0.1,0-0.1,0.1v1.7
			c0,0.1,0,0.1,0.1,0.1l1.5,0.4c0.1,0.3,0.2,0.6,0.3,0.8l-0.8,1.3c0,0,0,0.1,0,0.2l1.2,1.2c0,0,0.1,0,0.2,0l1.3-0.8
			c0.3,0.1,0.5,0.2,0.8,0.3l0.4,1.5c0,0.1,0,0.1,0.1,0.1h1.7c0.1,0,0.1,0,0.1-0.1l0.4-1.5c0.3-0.1,0.6-0.2,0.8-0.3l1.3,0.8
			c0,0,0.1,0,0.2,0l1.2-1.2c0,0,0-0.1,0-0.2l-0.8-1.3c0.1-0.3,0.2-0.5,0.3-0.8l1.5-0.4c0.1,0,0.1,0,0.1-0.1v-1.7
			C97,34.1,97,34,96.9,34z M91,38.4c-1.9,0-3.4-1.5-3.4-3.4s1.5-3.4,3.4-3.4s3.4,1.5,3.4,3.4S92.9,38.4,91,38.4z"/>
	</g>
	<g>
		<path class="st5" d="M222.9,34l-1.5-0.4c-0.1-0.3-0.2-0.6-0.3-0.8l0.8-1.3c0,0,0-0.1,0-0.2l-1.2-1.2c0,0-0.1,0-0.2,0l-1.3,0.8
			c-0.3-0.1-0.5-0.2-0.8-0.3l-0.4-1.5c0-0.1,0-0.1-0.1-0.1h-1.7c-0.1,0-0.1,0-0.1,0.1l-0.4,1.5c-0.3,0.1-0.6,0.2-0.8,0.3l-1.3-0.8
			c0,0-0.1,0-0.2,0l-1.2,1.2c0,0,0,0.1,0,0.2l0.8,1.3c-0.1,0.3-0.2,0.5-0.3,0.8l-1.5,0.4c-0.1,0-0.1,0-0.1,0.1v1.7
			c0,0.1,0,0.1,0.1,0.1l1.5,0.4c0.1,0.3,0.2,0.6,0.3,0.8l-0.8,1.3c0,0,0,0.1,0,0.2l1.2,1.2c0,0,0.1,0,0.2,0l1.3-0.8
			c0.3,0.1,0.5,0.2,0.8,0.3l0.4,1.5c0,0.1,0,0.1,0.1,0.1h1.7c0.1,0,0.1,0,0.1-0.1l0.4-1.5c0.3-0.1,0.6-0.2,0.8-0.3l1.3,0.8
			c0,0,0.1,0,0.2,0l1.2-1.2c0,0,0-0.1,0-0.2l-0.8-1.3c0.1-0.3,0.2-0.5,0.3-0.8l1.5-0.4c0.1,0,0.1,0,0.1-0.1v-1.7
			C223,34.1,223,34,222.9,34z M217,37.6c-1.4,0-2.6-1.2-2.6-2.6s1.2-2.6,2.6-2.6s2.6,1.2,2.6,2.6S218.4,37.6,217,37.6z"/>
	</g>
	<g>
		<g>
			<path class="st5" d="M116.3,30.6l0.9,0.3c0,0,0.1,0,0.1-0.1l0.4-0.9H113v2h1.9L116.3,30.6z"/>
			<path class="st5" d="M120.3,30l0.4,0.9c0,0,0.1,0,0.1,0.1l0.9-0.3l1.4,1.4h1.9V30H120.3z"/>
		</g>
		<g>
			<rect x="113" y="34" class="st5" width="1" height="2"/>
			<rect x="124" y="34" class="st5" width="1" height="2"/>
		</g>
		<g>
			<path class="st5" d="M117.2,39l-0.9,0.3l-1.4-1.4H113v2h4.8l-0.4-0.9C117.3,39,117.3,39,117.2,39z"/>
			<path class="st5" d="M123,38l-1.4,1.4l-0.9-0.3c0,0-0.1,0-0.1,0.1l-0.4,0.9h4.8v-2L123,38L123,38z"/>
		</g>
		<path class="st5" d="M122.9,34.3l-1-0.3c-0.1-0.2-0.1-0.4-0.2-0.5l0.5-0.9c0,0,0-0.1,0-0.1l-0.8-0.8c0,0-0.1,0-0.1,0l-0.9,0.5
			c-0.2-0.1-0.3-0.2-0.5-0.2l-0.3-1c0,0,0-0.1-0.1-0.1h-1.1c0,0-0.1,0-0.1,0.1l-0.3,1c-0.2,0.1-0.4,0.1-0.5,0.2l-0.9-0.5
			c0,0-0.1,0-0.1,0l-0.8,0.8c0,0,0,0.1,0,0.1l0.5,0.9c-0.1,0.2-0.2,0.3-0.2,0.5l-1,0.3c0,0-0.1,0-0.1,0.1v1.1c0,0,0,0.1,0.1,0.1
			l1,0.3c0.1,0.2,0.1,0.4,0.2,0.5l-0.5,0.9c0,0,0,0.1,0,0.1l0.8,0.8c0,0,0.1,0,0.1,0l0.9-0.5c0.2,0.1,0.3,0.2,0.5,0.2l0.3,1
			c0,0,0,0.1,0.1,0.1h1.1c0,0,0.1,0,0.1-0.1l0.3-1c0.2-0.1,0.4-0.1,0.5-0.2l0.9,0.5c0,0,0.1,0,0.1,0l0.8-0.8c0,0,0-0.1,0-0.1
			l-0.5-0.9c0.1-0.2,0.2-0.3,0.2-0.5l1-0.3c0,0,0.1,0,0.1-0.1L122.9,34.3C123,34.3,123,34.3,122.9,34.3z M119,37.2
			c-1.3,0-2.3-1-2.3-2.3s1-2.3,2.3-2.3s2.3,1,2.3,2.3S120.3,37.2,119,37.2z"/>
	</g>
	<path class="st3" d="M329,29c-3,0-5.4,2.2-5.9,5h5.7l-1-1c-0.4-0.4-0.4-1,0-1.4c0.4-0.4,1-0.4,1.4,0l2.7,2.7c0.4,0.4,0.4,1,0,1.4
		l-2.7,2.7c-0.4,0.4-1,0.4-1.4,0c-0.4-0.4-0.4-1,0-1.4l1-1h-5.7c0.5,2.8,2.9,5,5.9,5c3.3,0,6-2.7,6-6S332.3,29,329,29z"/>
	<path class="st5" d="M287,30c2.8,0,5,2.2,5,5s-2.2,5-5,5s-5-2.2-5-5S284.2,30,287,30 M287,29c-3.3,0-6,2.7-6,6s2.7,6,6,6s6-2.7,6-6
		S290.3,29,287,29L287,29z"/>
	<path class="st5" d="M286,37.7l-2.4-2.4c-0.2-0.2-0.2-0.5,0-0.7s0.5-0.2,0.7,0l1.6,1.6l3.6-3.6c0.2-0.2,0.5-0.2,0.7,0
		s0.2,0.5,0,0.7L286,37.7z"/>
	<g>
		<path class="st5" d="M301,38c-2.2,0-4,1.8-4,4h8C305,39.8,303.2,38,301,38z"/>
	</g>
	<g>
		<circle class="st5" cx="301" cy="35" r="2"/>
	</g>
	<path class="st5" d="M303.8,36c-0.2,0.5-0.5,1-1,1.3c1.2,0.5,2.2,1.4,2.7,2.7h2.4c0-2.2-1.8-4-4-4C303.9,36,303.9,36,303.8,36z"/>
	<path class="st5" d="M299.2,37.4c-0.4-0.3-0.8-0.8-1-1.3c-0.1,0-0.1,0-0.2,0c-2.2,0-4,1.8-4,4h2.4C297,38.8,297.9,37.8,299.2,37.4z
		"/>
	<path class="st5" d="M304,35c1.1,0,2-0.9,2-2s-0.9-2-2-2c-0.8,0-1.5,0.5-1.8,1.2C303.2,32.7,304,33.8,304,35z"/>
	<path class="st5" d="M298,35c0-1.2,0.8-2.3,1.8-2.8c-0.3-0.7-1-1.2-1.8-1.2c-1.1,0-2,0.9-2,2S296.9,35,298,35z"/>
	<path class="st6" d="M231,50c-3.4,0-6,2.7-6,6h12C237,52.6,234.4,50,231,50z"/>
	<circle class="st6" cx="231" cy="46" r="3"/>
	<path class="st6" d="M251,48.5c-0.3-3.1-2.9-5.5-6-5.5s-5.7,2.4-6,5.5l0,0v1l0,0c0.3,3.1,2.8,5.5,6,5.5s5.7-2.4,6-5.5l0,0V48.5
		L251,48.5z M245,54c-0.5,0-1.2-0.8-1.6-2.1c0.5,0.1,1,0.1,1.6,0.1s1.1,0,1.6-0.1C246.2,53.2,245.5,54,245,54z M245,51
		c-0.7,0-1.3-0.1-1.8-0.2c-0.1-0.4-0.2-0.8-0.2-1.3h4c0,0.5-0.1,0.9-0.1,1.3C246.3,50.9,245.7,51,245,51z M245,44
		c0.5,0,1.2,0.8,1.6,2.1c-0.5-0.1-1-0.1-1.6-0.1s-1.1,0-1.6,0.1C243.8,44.8,244.5,44,245,44z M245,47c0.7,0,1.3,0.1,1.8,0.2
		c0.1,0.4,0.2,0.8,0.2,1.3h-4c0-0.5,0.1-0.9,0.1-1.3C243.7,47.1,244.3,47,245,47z M248,48.5c0-0.4,0-0.7-0.1-1.1
		c0.9,0.3,1.6,0.7,1.9,1.1H248z M242,48.5h-1.8c0.3-0.4,1-0.8,1.9-1.1C242.1,47.8,242,48.1,242,48.5z M240.2,49.5h1.8
		c0,0.4,0,0.7,0.1,1.1C241.2,50.3,240.5,49.9,240.2,49.5z M248,49.5h1.8c-0.3,0.4-1,0.8-1.9,1.1C247.9,50.2,248,49.9,248,49.5z
		 M249.6,47.1c-0.5-0.3-1.2-0.6-1.9-0.8c-0.2-0.7-0.4-1.4-0.8-1.9C248.1,44.9,249.1,45.9,249.6,47.1z M243.1,44.4
		c-0.3,0.5-0.6,1.2-0.8,1.9c-0.7,0.2-1.4,0.4-1.9,0.8C240.9,45.9,241.9,44.9,243.1,44.4z M240.4,50.9c0.5,0.3,1.2,0.6,1.9,0.8
		c0.2,0.7,0.4,1.4,0.8,1.9C241.9,53.1,240.9,52.1,240.4,50.9z M246.9,53.6c0.3-0.5,0.6-1.2,0.8-1.9c0.7-0.2,1.4-0.4,1.9-0.8
		C249.1,52.1,248.1,53.1,246.9,53.6z"/>
	<path class="st6" d="M255.8,55c-0.7,0-1.5-0.3-2-0.8c-1.1-1.1-1.1-2.9,0-4l2.4-2.4c1.1-1.1,2.9-1.1,4,0c0.2,0.2,0.4,0.5,0.5,0.8
		c0.1,0.3,0,0.6-0.3,0.8c-0.3,0.1-0.6,0-0.8-0.3c-0.1-0.2-0.2-0.3-0.3-0.5c-0.7-0.7-1.7-0.7-2.4,0l-2.4,2.4c-0.7,0.7-0.7,1.7,0,2.4
		s1.8,0.7,2.4,0l1.3-1.3c0.2-0.2,0.6-0.2,0.8,0c0.2,0.2,0.2,0.6,0,0.8l-1.3,1.3C257.3,54.7,256.6,55,255.8,55z"/>
	<path class="st6" d="M259.7,51.1c-0.7,0-1.5-0.3-2-0.8c-0.2-0.2-0.4-0.5-0.5-0.7c-0.1-0.3,0-0.6,0.2-0.8c0.3-0.1,0.6,0,0.8,0.2
		c0.1,0.2,0.2,0.3,0.3,0.4c0.7,0.7,1.7,0.7,2.4,0l2.4-2.4c0.7-0.7,0.7-1.8,0-2.4c-0.1-0.1-0.3-0.2-0.5-0.3c-0.7-0.3-1.4-0.2-2,0.3
		l-1.2,1.4c-0.2,0.2-0.6,0.2-0.8,0c-0.2-0.2-0.2-0.6,0-0.8l1.3-1.3c0.9-0.9,2.2-1.1,3.3-0.6c0.3,0.1,0.5,0.3,0.8,0.5
		c1.1,1.1,1.1,2.9,0,4l-2.4,2.4C261.2,50.8,260.5,51.1,259.7,51.1z"/>
	<path class="st6" d="M276.6,48.1l-1.4-1.4l0.7-1.9l2.4-0.6c-0.9-0.9-2.1-1.4-3.4-1.1c-1.9,0.4-3,2.3-2.6,4.2c0,0.1,0.1,0.3,0.1,0.4
		l-4.9,4.8c-0.6,0.6-0.6,1.5,0,2.1c0.6,0.6,1.5,0.6,2.1,0l4.9-4.8c0.7,0.3,1.3,0.3,2,0.2c1.3-0.3,2.2-1.3,2.5-2.4L276.6,48.1z"/>
	<path class="st6" d="M161,45c-4.9,0-6,4-6,4s1.1,4,6,4c4.9,0,6-4,6-4S165.9,45,161,45z M164,49c0,1.7-1.3,3-3,3s-3-1.3-3-3
		s1.3-3,3-3S164,47.3,164,49z M156.1,49c0.2-0.4,0.6-1.2,1.4-1.8c-0.3,0.6-0.5,1.2-0.5,1.8c0,0.7,0.2,1.3,0.5,1.9
		C156.7,50.2,156.3,49.4,156.1,49z M164.5,50.8c0.3-0.6,0.5-1.2,0.5-1.8c0-0.7-0.2-1.3-0.5-1.9c0.8,0.7,1.2,1.5,1.4,1.9
		C165.7,49.4,165.3,50.2,164.5,50.8z"/>
	<g>
		<circle class="st6" cx="161" cy="49" r="1.5"/>
	</g>
	<path class="st6" d="M153,47.2l-4.1-4.2l-1.9,1.9l0,0l-6,6l0,0V55h4.1l0,0L153,47.2L153,47.2L153,47.2z M142,54v-0.7l0.7,0.7H142z
		 M151.1,47.7l-2.7-2.7l0.5-0.5l2.7,2.7L151.1,47.7z M147.6,45.6l1,1l-5.9,5.9l-1-1L147.6,45.6z M144.5,54.3l-1-1l5.9-5.9l1,1
		L144.5,54.3z"/>
	<g>
		<path class="st6" d="M319,44v1.8V54h-8V44h6.1H319 M320,43h-2.9H310v12h10v-9.2V43L320,43z"/>
	</g>
	<g>
		<rect x="312.5" y="45.9" class="st6" width="5" height="1"/>
	</g>
	<g>
		<rect x="312.5" y="47.9" class="st6" width="5" height="1"/>
	</g>
	<g>
		<rect x="312.5" y="49.9" class="st6" width="5" height="1"/>
	</g>
	<g>
		<rect x="312.5" y="51.9" class="st6" width="5" height="1"/>
	</g>
	<path class="st6" d="M181,49c0,0-1.2-4-6-4c-4.9,0-6,4-6,4s0.9,3.3,4.8,3.9c0.4,0.1,0.8,0.2,1.2,0.2s0.8-0.1,1.2-0.2
		C180.1,52.3,181,49,181,49z M175,52c-0.2,0-0.4,0-0.5,0c-0.2-0.2-0.4-0.6-0.6-1.1c0.3,0,0.7,0.1,1.1,0.1s0.7,0,1.1-0.1
		c-0.2,0.5-0.4,0.8-0.6,1.1C175.4,52,175.2,52,175,52z M173.1,51.7c-0.5-0.4-0.9-0.8-1.2-1.4c0.4,0.2,0.8,0.4,1.3,0.5
		c0.1,0.4,0.2,0.7,0.4,1C173.4,51.8,173.2,51.8,173.1,51.7z M175,46c0.2,0,0.4,0,0.5,0c0.2,0.2,0.4,0.6,0.6,1.1
		c-0.4-0.1-0.7-0.1-1.1-0.1c-0.4,0-0.7,0-1.1,0.1c0.2-0.5,0.4-0.8,0.6-1.1C174.6,46,174.8,46,175,46z M173.7,48.7
		c0-0.3,0-0.6,0.1-0.9c0.3-0.1,0.8-0.1,1.2-0.1c0.4,0,0.9,0,1.2,0.1c0,0.3,0.1,0.6,0.1,0.9H173.7z M176.3,49.3c0,0.3,0,0.6-0.1,0.9
		c-0.3,0.1-0.8,0.1-1.2,0.1c-0.4,0-0.9,0-1.2-0.1c0-0.3-0.1-0.6-0.1-0.9H176.3z M173.6,46.2c-0.2,0.3-0.3,0.6-0.4,1
		c-0.5,0.1-0.9,0.3-1.3,0.5c0.3-0.6,0.7-1,1.2-1.4C173.2,46.2,173.4,46.2,173.6,46.2z M173.1,48c-0.1,0.2-0.1,0.4-0.1,0.7h-1.2
		C172,48.4,172.4,48.2,173.1,48z M173,49.3c0,0.2,0,0.5,0.1,0.7c-0.6-0.1-1.1-0.4-1.3-0.7H173z M176.4,51.8c0.2-0.3,0.3-0.6,0.4-1
		c0.5-0.1,0.9-0.3,1.3-0.5c-0.3,0.6-0.7,1-1.1,1.4C176.8,51.7,176.6,51.8,176.4,51.8z M176.9,50c0.1-0.2,0.1-0.4,0.1-0.7h1.2
		C178,49.6,177.6,49.8,176.9,50z M177,48.7c0-0.2,0-0.5-0.1-0.7c0.6,0.2,1,0.5,1.3,0.7H177z M178.1,47.7c-0.4-0.2-0.8-0.4-1.3-0.5
		c-0.1-0.4-0.2-0.7-0.4-1c0.2,0,0.3,0.1,0.5,0.1C177.4,46.7,177.8,47.1,178.1,47.7z M170.1,49c0.2-0.4,0.6-1.2,1.4-1.9
		c-0.3,0.5-0.4,1-0.5,1.6v0.7c0,0.5,0.2,1,0.4,1.4C170.6,50.2,170.3,49.4,170.1,49z M178.6,50.7c0.2-0.4,0.3-0.9,0.4-1.3v-0.7
		c-0.1-0.6-0.2-1.1-0.5-1.6c0.8,0.7,1.2,1.4,1.4,1.9C179.8,49.4,179.4,50.1,178.6,50.7z"/>
	<path class="st6" d="M38.5,49.9c-0.2,0-0.4,0-0.6,0.1L34,46.2c0.1-0.2,0.1-0.4,0.1-0.6c0-1.4-1.1-2.5-2.5-2.5c-0.2,0-0.4,0-0.6,0.1
		l1,1l0,0c0.2,0.2,0.3,0.5,0.3,0.8c0,0.7-0.6,1.3-1.3,1.3c-0.3,0-0.6-0.1-0.8-0.3l0,0l-1-1C29,45.1,29,45.3,29,45.5
		c0,1.4,1.1,2.5,2.5,2.5c0.2,0,0.4,0,0.6-0.1l3.9,3.9c-0.1,0.2-0.1,0.4-0.1,0.6c0,1.4,1.1,2.5,2.5,2.5c0.2,0,0.4,0,0.6-0.1l-1-1l0,0
		c-0.2-0.2-0.3-0.5-0.3-0.8c0-0.7,0.6-1.3,1.3-1.3c0.3,0,0.6,0.1,0.8,0.3l0,0l1,1c0.1-0.2,0.1-0.4,0.1-0.6
		C41,51.1,39.9,49.9,38.5,49.9z"/>
	<g>
		<path class="st6" d="M137.1,44.9h-1.3v-1.3c0-0.3-0.3-0.6-0.6-0.6h-0.1c-0.3,0-0.6,0.3-0.6,0.6v1.3h-2.5v-1.3
			c0-0.3-0.3-0.6-0.6-0.6h-0.1c-0.3,0-0.6,0.3-0.6,0.6v1.3h-1.3c-0.3,0-0.6,0.3-0.6,0.6l-1.9,6.9c0,0.3,0.3,0.6,0.6,0.6h7.6
			c0.3,0,0.6-0.3,0.6-0.6l1.9-6.9C137.7,45.2,137.5,44.9,137.1,44.9z"/>
		<path class="st6" d="M136.5,52.6c-0.1,0.7-0.6,1.2-1.3,1.2h-6.3v0.6c0,0.4,0.3,0.7,0.7,0.7h7.5c0.4,0,0.7-0.3,0.7-0.7v-6.3
			L136.5,52.6z"/>
	</g>
	<rect x="186" y="44" class="st6" width="9" height="2"/>
	<rect x="186" y="48" class="st6" width="9" height="2"/>
	<rect x="186" y="52" class="st6" width="9" height="2"/>
	<circle class="st6" cx="184" cy="45" r="1"/>
	<circle class="st6" cx="184" cy="49" r="1"/>
	<circle class="st6" cx="184" cy="53" r="1"/>
	<path class="st6" d="M206.4,47.5H206V46c0-1.7-1.3-3-3-3s-3,1.3-3,3v1.5h-0.4c-0.6,0.1-1.1,0.5-1.1,1.1v5.3c0,0.6,0.5,1.1,1.1,1.1
		h6.7c0.6,0,1.1-0.5,1.1-1.1v-5.3C207.6,48,207,47.5,206.4,47.5z M201,46c0-1.1,0.9-2,2-2c1.1,0,2,0.9,2,2v1.5h-4V46z M203.6,51.3
		v1.1c0,0.3-0.2,0.5-0.5,0.5s-0.5-0.2-0.5-0.5v-1.1c-0.3-0.2-0.5-0.5-0.5-0.9c0-0.5,0.5-1,1-1c0.5,0,1,0.5,1,1
		C204,50.9,203.8,51.2,203.6,51.3z"/>
	<path class="st6" d="M12.8,48.1l-4.7-4.7c-0.6-0.6-1.6-0.6-2.2,0l-4.7,4.7c-0.3,0.3-0.3,0.8,0,1.1h1v0.2v4.7C2.3,54.6,2.6,55,3,55
		h1.6c0.4,0,0.8-0.4,0.8-0.8V51c0-0.4,0.4-0.8,0.8-0.8h1.6c0.4,0,0.8,0.4,0.8,0.8v3.2c0,0.4,0.4,0.8,0.8,0.8H11
		c0.4,0,0.8-0.4,0.8-0.8v-4.7v-0.2h1C13.1,48.9,13.1,48.4,12.8,48.1z"/>
	<path class="st6" d="M21,43c-3.3,0-6,2.7-6,6c0,1.9,0.9,3.7,2.4,4.8c0.5-1.8,1.9-3,3.6-3s3.2,1.3,3.6,3c1.4-1.1,2.4-2.8,2.4-4.8
		C27,45.7,24.3,43,21,43z M21,49.9c-1.1,0-2-0.9-2-2c0-1.1,0.9-2,2-2s2,0.9,2,2C23,49,22.1,49.9,21,49.9z"/>
	<g>
		<path class="st6" d="M69.9,53.4L64,43.5c-0.3-0.3-0.6-0.5-1-0.5c-0.4,0-0.7,0.2-0.9,0.5l-5.9,9.9c-0.2,0.3-0.2,0.7,0,1.1
			c0.2,0.3,0.5,0.5,0.9,0.5h12c0.4,0,0.7-0.2,0.9-0.5C70,54.1,70,53.7,69.9,53.4z M57.1,54L63,44l5.9,9.9L57.1,54L57.1,54z"/>
		<path class="st6" d="M63,47L63,47L63,47L63,47L63,47c-0.5,0-0.6,0.2-0.6,0.4l0.1,3.2c0,0.2,0.2,0.4,0.5,0.4l0,0l0,0l0,0l0,0
			c0.3,0,0.5-0.2,0.5-0.4l0.1-3.2C63.6,47.2,63.5,47,63,47z"/>
		<ellipse class="st6" cx="63" cy="52.5" rx="0.5" ry="0.5"/>
	</g>
	<path class="st6" d="M54.7,48.5l-5-5.2c-0.5-0.5-0.6-0.5-1.1,0c0,0-1.7,2-2,1.2c-0.3-0.8-0.2-1.1-1.4-1.2c-1.1,0-1.2,0.6-1.5,1.2
		c-0.3,0.7,0,1.3,0.8,1.6c1.4,0.5-1.3,2.5-1.3,2.5c-0.3,0.3-0.3,0.5,0,0.8c0.1,0.1,0.3,0.3,0.4,0.4c0,0,0.8,0.7,1.2,1.2
		c0.4,0.5-0.2,0.8-0.2,0.8c-0.7,0-1.1,0.5-1.1,1.2c0,0.7,0.6,1.4,1.3,1.5c0.6,0.1,1.3-0.2,1.4-0.8c0,0,0.1-1,0.7-0.7
		c0.6,0.3,1.6,1.8,1.6,1.8c0.3,0.3,0.5,0.3,0.8,0l5.5-4.8C55.1,49.6,55,48.8,54.7,48.5z M51,49.9h-1v1c0,0.6-0.4,1-1,1
		c-0.6,0-1-0.4-1-1v-1h-1c-0.6,0-1-0.4-1-1c0-0.6,0.4-1,1-1h1v-1c0-0.6,0.4-1,1-1c0.6,0,1,0.4,1,1v1h1c0.6,0,1,0.4,1,1
		C52,49.5,51.6,49.9,51,49.9z"/>
	<g>
		<path class="st6" d="M110.1,52.3l-4.4-7.3c-0.1-0.2-0.4-0.4-0.7-0.4s-0.5,0.1-0.7,0.4l-4.4,7.3c-0.1,0.2-0.1,0.5,0,0.8
			c0.1,0.2,0.4,0.4,0.7,0.4h8.8c0.3,0,0.5-0.1,0.7-0.4C110.2,52.8,110.2,52.5,110.1,52.3z M101,52.4l4-6.7l4,6.7H101z"/>
		<g>
			<path class="st6" d="M106.5,44.4l0.9,1.6h3.5v-2h-4.8C106.3,44.1,106.4,44.3,106.5,44.4z"/>
			<path class="st6" d="M103.5,44.4c0.1-0.2,0.2-0.3,0.4-0.4H99v2h3.5L103.5,44.4z"/>
		</g>
		<g>
			<polygon class="st6" points="109.9,50 111,50 111,48 108.7,48 			"/>
			<polygon class="st6" points="101.3,48 99,48 99,50 100.1,50 			"/>
		</g>
		<g>
			<path class="st6" d="M99.1,53.5c0,0,0-0.1-0.1-0.2V54h0.5C99.3,53.9,99.2,53.7,99.1,53.5z"/>
			<path class="st6" d="M110.9,53.5c-0.1,0.2-0.2,0.3-0.4,0.5h0.5v-0.6C111,53.4,111,53.5,110.9,53.5z"/>
		</g>
		<path class="st6" d="M105,47.1L105,47.1L105,47.1L105,47.1L105,47.1c-0.5,0-0.6,0.1-0.6,0.3l0.1,2.5c0,0.2,0.2,0.3,0.5,0.3l0,0
			l0,0l0,0l0,0c0.3,0,0.5-0.1,0.5-0.3l0.1-2.5C105.6,47.3,105.5,47.1,105,47.1z"/>
		<circle class="st6" cx="105" cy="51.5" r="0.5"/>
	</g>
	<g>
		<g>
			<g>
				<g>
					<path class="st6" d="M77.3,53.2c-0.2,0.2-0.4,0.2-0.6,0c0,0-0.7-1.1-1.2-1.3c-0.4-0.3-0.5,0.5-0.5,0.5
						c-0.1,0.4-0.6,0.7-1.1,0.6c-0.5-0.1-1-0.6-1-1.1s0.4-0.8,0.8-0.9c0,0,0.5-0.2,0.2-0.6c-0.3-0.3-0.9-0.9-0.9-0.9
						c-0.1-0.1-0.2-0.2-0.3-0.3c-0.2-0.2-0.2-0.4,0-0.6c0,0,1.9-1.5,0.9-1.9c-0.5-0.2-0.8-0.7-0.6-1.2s0.3-0.9,1.1-0.9
						s0.8,0.2,1,0.9c0.2,0.6,1.4-0.9,1.4-0.9c0.4-0.4,0.5-0.4,0.8,0l3.7,3.9c0.2,0.2,0.3,0.8,0,1L77.3,53.2z"/>
				</g>
			</g>
		</g>
		<g>
			<path class="st6" d="M78,43.9C78,44,78,44,78,43.9l2,2.1h3v-2.1H78z"/>
			<path class="st6" d="M72,45.2L72,45.2c0.2-0.4,0.4-0.9,0.9-1.2H71v2.1h0.9C71.9,45.8,71.9,45.5,72,45.2z"/>
		</g>
		<g>
			<path class="st6" d="M71.9,50c-0.6-0.6-0.6-1.4,0-2H71v2.1L71.9,50L71.9,50z"/>
			<path class="st6" d="M81.7,47.9c0.3,0.3,0.4,0.9,0.4,1.3c0,0.3-0.2,0.5-0.3,0.8H83v-2.1H81.7z"/>
		</g>
		<g>
			<path class="st6" d="M73.7,54c-1-0.2-1.8-1.1-1.8-2.1H71v2.1h2.9C73.8,54,73.7,54,73.7,54z"/>
			<path class="st6" d="M80,51.9l-2,2c0,0-0.1,0.1-0.1,0.1H83v-2.1H80z"/>
		</g>
	</g>
	<g>
		<path class="st6" d="M93,48h-1v-1c0-0.6-0.4-1-1-1s-1,0.4-1,1v1h-1c-0.6,0-1,0.4-1,1s0.4,1,1,1h1v1c0,0.6,0.4,1,1,1s1-0.4,1-1v-1
			h1c0.6,0,1-0.4,1-1S93.6,48,93,48z"/>
		<path class="st6" d="M96.9,48l-1.5-0.4c-0.1-0.3-0.2-0.6-0.3-0.8l0.8-1.3c0,0,0-0.1,0-0.2l-1.2-1.2c0,0-0.1,0-0.2,0l-1.3,0.8
			c-0.3-0.1-0.5-0.2-0.8-0.3L92,43.1c0-0.1,0-0.1-0.1-0.1h-1.7c-0.1,0-0.1,0-0.1,0.1l-0.4,1.5c-0.3,0.1-0.6,0.2-0.8,0.3l-1.3-0.8
			c0,0-0.1,0-0.2,0l-1.2,1.2c0,0,0,0.1,0,0.2l0.8,1.3c-0.1,0.3-0.2,0.5-0.3,0.8L85.1,48c-0.1,0-0.1,0-0.1,0.1v1.7
			c0,0.1,0,0.1,0.1,0.1l1.5,0.4c0.1,0.3,0.2,0.6,0.3,0.8l-0.8,1.3c0,0,0,0.1,0,0.2l1.2,1.2c0,0,0.1,0,0.2,0l1.3-0.8
			c0.3,0.1,0.5,0.2,0.8,0.3l0.4,1.5c0,0.1,0,0.1,0.1,0.1h1.7c0.1,0,0.1,0,0.1-0.1l0.4-1.5c0.3-0.1,0.6-0.2,0.8-0.3l1.3,0.8
			c0,0,0.1,0,0.2,0l1.2-1.2c0,0,0-0.1,0-0.2l-0.8-1.3c0.1-0.3,0.2-0.5,0.3-0.8l1.5-0.4c0.1,0,0.1,0,0.1-0.1v-1.7
			C97,48.1,97,48,96.9,48z M91,52.4c-1.9,0-3.4-1.5-3.4-3.4s1.5-3.4,3.4-3.4s3.4,1.5,3.4,3.4S92.9,52.4,91,52.4z"/>
	</g>
	<g>
		<path class="st6" d="M222.9,48l-1.5-0.4c-0.1-0.3-0.2-0.6-0.3-0.8l0.8-1.3c0,0,0-0.1,0-0.2l-1.2-1.2c0,0-0.1,0-0.2,0l-1.3,0.8
			c-0.3-0.1-0.5-0.2-0.8-0.3l-0.4-1.5c0-0.1,0-0.1-0.1-0.1h-1.7c-0.1,0-0.1,0-0.1,0.1l-0.4,1.5c-0.3,0.1-0.6,0.2-0.8,0.3l-1.3-0.8
			c0,0-0.1,0-0.2,0l-1.2,1.2c0,0,0,0.1,0,0.2l0.8,1.3c-0.1,0.3-0.2,0.5-0.3,0.8l-1.5,0.4c-0.1,0-0.1,0-0.1,0.1v1.7
			c0,0.1,0,0.1,0.1,0.1l1.5,0.4c0.1,0.3,0.2,0.6,0.3,0.8l-0.8,1.3c0,0,0,0.1,0,0.2l1.2,1.2c0,0,0.1,0,0.2,0l1.3-0.8
			c0.3,0.1,0.5,0.2,0.8,0.3l0.4,1.5c0,0.1,0,0.1,0.1,0.1h1.7c0.1,0,0.1,0,0.1-0.1l0.4-1.5c0.3-0.1,0.6-0.2,0.8-0.3l1.3,0.8
			c0,0,0.1,0,0.2,0l1.2-1.2c0,0,0-0.1,0-0.2l-0.8-1.3c0.1-0.3,0.2-0.5,0.3-0.8l1.5-0.4c0.1,0,0.1,0,0.1-0.1v-1.7
			C223,48.1,223,48,222.9,48z M217,51.6c-1.4,0-2.6-1.2-2.6-2.6s1.2-2.6,2.6-2.6s2.6,1.2,2.6,2.6S218.4,51.6,217,51.6z"/>
	</g>
	<g>
		<g>
			<path class="st6" d="M116.3,44.7l0.9,0.3c0,0,0.1,0,0.1-0.1l0.4-0.9H113v2h1.9L116.3,44.7z"/>
			<path class="st6" d="M120.3,44l0.4,0.9c0,0,0.1,0,0.1,0.1l0.9-0.3l1.4,1.4h1.9V44H120.3z"/>
		</g>
		<g>
			<rect x="113" y="48" class="st6" width="1" height="2"/>
			<rect x="124" y="48" class="st6" width="1" height="2"/>
		</g>
		<g>
			<path class="st6" d="M117.2,53l-0.9,0.3l-1.4-1.4H113v2h4.8l-0.4-0.9C117.3,53,117.3,53,117.2,53z"/>
			<path class="st6" d="M123,52l-1.4,1.4l-0.9-0.3c0,0-0.1,0-0.1,0.1l-0.4,0.9h4.8v-2L123,52L123,52z"/>
		</g>
		<path class="st6" d="M122.9,48.3l-1-0.3c-0.1-0.2-0.1-0.4-0.2-0.5l0.5-0.9c0,0,0-0.1,0-0.1l-0.8-0.8c0,0-0.1,0-0.1,0l-0.9,0.5
			c-0.2-0.1-0.3-0.2-0.5-0.2l-0.3-1c0,0,0-0.1-0.1-0.1h-1.1c0,0-0.1,0-0.1,0.1l-0.3,1c-0.2,0.1-0.4,0.1-0.5,0.2l-0.9-0.5
			c0,0-0.1,0-0.1,0l-0.8,0.8c0,0,0,0.1,0,0.1l0.5,0.9c-0.1,0.2-0.2,0.3-0.2,0.5l-1,0.3c0,0-0.1,0-0.1,0.1v1.1c0,0,0,0.1,0.1,0.1
			l1,0.3c0.1,0.2,0.1,0.4,0.2,0.5l-0.5,0.9c0,0,0,0.1,0,0.1l0.8,0.8c0,0,0.1,0,0.1,0l0.9-0.5c0.2,0.1,0.3,0.2,0.5,0.2l0.3,1
			c0,0,0,0.1,0.1,0.1h1.1c0,0,0.1,0,0.1-0.1l0.3-1c0.2-0.1,0.4-0.1,0.5-0.2l0.9,0.5c0,0,0.1,0,0.1,0l0.8-0.8c0,0,0-0.1,0-0.1
			l-0.5-0.9c0.1-0.2,0.2-0.3,0.2-0.5l1-0.3c0,0,0.1,0,0.1-0.1L122.9,48.3C123,48.3,123,48.3,122.9,48.3z M119,51.2
			c-1.3,0-2.3-1-2.3-2.3s1-2.3,2.3-2.3s2.3,1,2.3,2.3S120.3,51.2,119,51.2z"/>
	</g>
	<path class="st3" d="M329,43c-3,0-5.4,2.2-5.9,5h5.7l-1-1c-0.4-0.4-0.4-1,0-1.4c0.4-0.4,1-0.4,1.4,0l2.7,2.7c0.4,0.4,0.4,1,0,1.4
		l-2.7,2.7c-0.4,0.4-1,0.4-1.4,0c-0.4-0.4-0.4-1,0-1.4l1-1h-5.7c0.5,2.8,2.9,5,5.9,5c3.3,0,6-2.7,6-6S332.3,43,329,43z"/>
	<path class="st6" d="M287,44c2.8,0,5,2.2,5,5s-2.2,5-5,5s-5-2.2-5-5S284.2,44,287,44 M287,43c-3.3,0-6,2.7-6,6s2.7,6,6,6s6-2.7,6-6
		S290.3,43,287,43L287,43z"/>
	<path class="st6" d="M286,51.7l-2.4-2.4c-0.2-0.2-0.2-0.5,0-0.7s0.5-0.2,0.7,0l1.6,1.6l3.6-3.6c0.2-0.2,0.5-0.2,0.7,0
		s0.2,0.5,0,0.7L286,51.7z"/>
	<g>
		<path class="st6" d="M301,52c-2.2,0-4,1.8-4,4h8C305,53.8,303.2,52,301,52z"/>
	</g>
	<g>
		<circle class="st6" cx="301" cy="49" r="2"/>
	</g>
	<path class="st6" d="M303.8,50c-0.2,0.5-0.5,1-1,1.3c1.2,0.5,2.2,1.4,2.7,2.7h2.4c0-2.2-1.8-4-4-4C303.9,50,303.9,50,303.8,50z"/>
	<path class="st6" d="M299.2,51.4c-0.4-0.3-0.8-0.8-1-1.3c-0.1,0-0.1,0-0.2,0c-2.2,0-4,1.8-4,4h2.4C297,52.8,297.9,51.8,299.2,51.4z
		"/>
	<path class="st6" d="M304,49c1.1,0,2-0.9,2-2s-0.9-2-2-2c-0.8,0-1.5,0.5-1.8,1.2C303.2,46.7,304,47.8,304,49z"/>
	<path class="st6" d="M298,49c0-1.2,0.8-2.3,1.8-2.8c-0.3-0.7-1-1.2-1.8-1.2c-1.1,0-2,0.9-2,2S296.9,49,298,49z"/>
</g>
<g id="Reperes" class="st1">
	<g class="st2">
		<path d="M13,1v12H1V1H13 M14,0H0v14h14V0L14,0z"/>
	</g>
	<g class="st2">
		<path d="M27,1v12H15V1H27 M28,0H14v14h14V0L28,0z"/>
	</g>
	<g class="st2">
		<path d="M41,1v12H29V1H41 M42,0H28v14h14V0L42,0z"/>
	</g>
	<g class="st2">
		<path d="M55,1v12H43V1H55 M56,0H42v14h14V0L56,0z"/>
	</g>
	<g class="st2">
		<path d="M69,1v12H57V1H69 M70,0H56v14h14V0L70,0z"/>
	</g>
	<g class="st2">
		<path d="M83,1v12H71V1H83 M84,0H70v14h14V0L84,0z"/>
	</g>
	<g class="st2">
		<path d="M97,1v12H85V1H97 M98,0H84v14h14V0L98,0z"/>
	</g>
	<g class="st2">
		<path d="M111,1v12H99V1H111 M112,0H98v14h14V0L112,0z"/>
	</g>
	<g class="st2">
		<path d="M125,1v12h-12V1H125 M126,0h-14v14h14V0L126,0z"/>
	</g>
	<g class="st2">
		<path d="M139,1v12h-12V1H139 M140,0h-14v14h14V0L140,0z"/>
	</g>
	<g class="st2">
		<path d="M153,1v12h-12V1H153 M154,0h-14v14h14V0L154,0z"/>
	</g>
	<g class="st2">
		<path d="M167,1v12h-12V1H167 M168,0h-14v14h14V0L168,0z"/>
	</g>
	<g class="st2">
		<path d="M181,1v12h-12V1H181 M182,0h-14v14h14V0L182,0z"/>
	</g>
	<g class="st2">
		<path d="M195,1v12h-12V1H195 M196,0h-14v14h14V0L196,0z"/>
	</g>
	<g class="st2">
		<path d="M209,1v12h-12V1H209 M210,0h-14v14h14V0L210,0z"/>
	</g>
	<g class="st2">
		<path d="M223,1v12h-12V1H223 M224,0h-14v14h14V0L224,0z"/>
	</g>
	<g class="st2">
		<path d="M237,1v12h-12V1H237 M238,0h-14v14h14V0L238,0z"/>
	</g>
	<g class="st2">
		<path d="M251,1v12h-12V1H251 M252,0h-14v14h14V0L252,0z"/>
	</g>
	<g class="st2">
		<path d="M265,1v12h-12V1H265 M266,0h-14v14h14V0L266,0z"/>
	</g>
	<g class="st2">
		<path d="M279,1v12h-12V1H279 M280,0h-14v14h14V0L280,0z"/>
	</g>
	<g class="st2">
		<path d="M293,1v12h-12V1H293 M294,0h-14v14h14V0L294,0z"/>
	</g>
	<g class="st2">
		<path d="M307,1v12h-12V1H307 M308,0h-14v14h14V0L308,0z"/>
	</g>
	<g class="st2">
		<path d="M321,1v12h-12V1H321 M322,0h-14v14h14V0L322,0z"/>
	</g>
	<g class="st2">
		<path d="M335,1v12h-12V1H335 M336,0h-14v14h14V0L336,0z"/>
	</g>
</g>
</svg>
