<?xml version="1.0" encoding="utf-8"?>
<!-- Generator: Adobe Illustrator 24.0.1, SVG Export Plug-In . SVG Version: 6.00 Build 0)  -->
<svg version="1.1" id="Calque_1" xmlns="http://www.w3.org/2000/svg" xmlns:xlink="http://www.w3.org/1999/xlink" x="0px" y="0px"
	 viewBox="0 0 16 20" style="enable-background:new 0 0 16 20;" xml:space="preserve">
<style type="text/css">
	.st0{fill:#FFFFFF;}
</style>
<g>
	<g>
		<path class="st0" d="M4,6.1L4,6.1C3.5,6.1,3,5.9,3,5V1.1C3,0.1,3.5,0,4,0l0,0c0.6,0,1,0.2,1,1.1V5C5,5.9,4.6,6.1,4,6.1z"/>
	</g>
</g>
<g>
	<g>
		<path class="st0" d="M12,6.1L12,6.1c-0.6,0-1-0.2-1-1.1V1.1c0-1,0.4-1.1,1-1.1l0,0c0.6,0,1,0.2,1,1.1V5C13,5.9,12.6,6.1,12,6.1z"
			/>
	</g>
</g>
<path class="st0" d="M0.9,3C0.3,3,0,3.4,0,3.9V7h16V3.9C16,3.4,15.7,3,15.1,3H0.9z"/>
<path class="st0" d="M0,8v9.8v1.1C0,19.5,0.3,20,0.9,20h14.2c0.5,0,0.9-0.5,0.9-1.1V8H0z M4,17H2v-2h2V17z M4,13H2v-2h2V13z M9,17H7
	v-2h2V17z M9,13H7v-2h2V13z M14,17h-2v-2h2V17z M14,13h-2v-2h2V13z"/>
</svg>
