<?xml version="1.0" encoding="utf-8"?>
<!-- Generator: Adobe Illustrator 24.0.1, SVG Export Plug-In . SVG Version: 6.00 Build 0)  -->
<svg version="1.1" xmlns="http://www.w3.org/2000/svg" xmlns:xlink="http://www.w3.org/1999/xlink" x="0px" y="0px"
	 viewBox="0 0 20 20" style="enable-background:new 0 0 20 20;" xml:space="preserve">
<style type="text/css">
	.st0{fill:#636466;}
</style>
<g id="Calque_1">
	<path class="st0" d="M17.1,8.7c-0.2,1.3-0.6,2.4-1.4,3.3c-1.3,1.4-3.1,2.2-4.8,2.6c0.7-1.2,0.8-2.7,0.7-3.6
		C12.9,10.8,15.2,10.3,17.1,8.7"/>
</g>
<g id="Calque_2">
	<path class="st0" d="M9,4.5v-2C9,2.2,9.2,2,9.5,2h0C9.8,2,10,2.2,10,2.5v2C10,4.8,9.8,5,9.5,5h0C9.2,5,9,4.8,9,4.5z"/>
	<path class="st0" d="M15,4.5v-2C15,2.2,15.2,2,15.5,2h0C15.8,2,16,2.2,16,2.5v2C16,4.8,15.8,5,15.5,5h0C15.2,5,15,4.8,15,4.5z"/>
	<g>
		<path class="st0" d="M18,6C18,6,18,6,18,6c0-0.1,0-0.3,0-0.4c0-0.3,0-0.6,0-0.9c0,0,0,0,0,0c0-0.2,0-0.5,0-0.8H6
			c-0.2,6.3-3.4,7.8-3.9,8c0,0,0,0,0,0C2,12,2,12,2,12s0,0,0,0.1c0,0,0,0,0,0c0.1,0.4,0.6,1.8,2.9,2.5l0,0C5.7,14.8,6.7,15,8,15h0.6
			c0,0,0.3,0,0.8-0.1c0.1-0.1,0.2-0.2,0.3-0.3c0,0,0,0,0.1-0.1c0.1-0.1,0.2-0.2,0.2-0.3c0,0,0,0,0,0c0.6-1,0.7-2.2,0.7-3.1
			c0,0,0,0,0,0c0-0.3,0-0.6,0-0.7c0,0,0,0,0-0.1c0,0,0-0.1,0-0.1c0,0,0,0,0-0.1c0,0,0,0,0-0.1c0,0,0,0,0,0s0.1,0,0.1,0
			C11.5,10,15.8,9.8,18,6z"/>
		<path class="st0" d="M18,9.1c0,3.8-0.1,6.7-1,8.9H4c0.3-0.7,0.6-1.5,0.7-2.4C4.7,15.6,17.5,17.7,18,9.1z"/>
	</g>
</g>
</svg>
