<?xml version="1.0" encoding="utf-8"?>
<!-- Generator: Adobe Illustrator 24.0.1, SVG Export Plug-In . SVG Version: 6.00 Build 0)  -->
<svg version="1.1" id="Calque_1" xmlns="http://www.w3.org/2000/svg" xmlns:xlink="http://www.w3.org/1999/xlink" x="0px" y="0px"
	 viewBox="0 0 20 20" style="enable-background:new 0 0 20 20;" xml:space="preserve">
<style type="text/css">
	.st0{fill:#636466;}
</style>
<g>
	<g>
		<path class="st0" d="M15.6,8.8c-3.4-4.8-3.5-8.3-3.5-8.3C8.9,2.9,7.8,8.8,7.8,8.8C6.1,9,4.6,5.7,4.6,5.7
			C0.5,15.4,5,19.5,10.6,19.5S18.8,13.2,15.6,8.8z M10.3,18c-2.7,0-4.8-2-2.9-6.5c0,0,0.7,1.5,1.5,1.4c0,0,0.5-2.8,2-3.9
			c0,0,0,1.7,1.6,3.9C14.2,15,13,18,10.3,18z"/>
	</g>
</g>
</svg>
