<?xml version="1.0" encoding="utf-8"?>
<!-- Generator: Adobe Illustrator 24.0.1, SVG Export Plug-In . SVG Version: 6.00 Build 0)  -->
<svg version="1.1" id="Calque_1" xmlns="http://www.w3.org/2000/svg" xmlns:xlink="http://www.w3.org/1999/xlink" x="0px" y="0px"
	 viewBox="0 0 20 20" style="enable-background:new 0 0 20 20;" xml:space="preserve">
<style type="text/css">
	.st0{fill:#E66564;}
</style>
<g>
	<path class="st0" d="M9.9,2C5.9,2,2.5,5.1,2,9h8.5L8.2,6.7c-0.4-0.4-0.4-1,0-1.4c0.4-0.4,1-0.4,1.4,0l4,4l0,0
		c0.1,0.1,0.1,0.2,0.2,0.3l0,0c0.1,0.1,0.1,0.3,0.1,0.4s0,0.3-0.1,0.4l0,0c0,0.1-0.1,0.2-0.2,0.3l0,0l-4,4c-0.4,0.4-1,0.4-1.4,0
		c-0.4-0.4-0.4-1,0-1.4l2.3-2.3H2c0.5,3.9,3.9,7,7.9,7c4.4,0,8-3.6,8-8S14.3,2,9.9,2z"/>
</g>
</svg>
