<?xml version="1.0" encoding="utf-8"?>
<!-- Generator: Adobe Illustrator 24.0.1, SVG Export Plug-In . SVG Version: 6.00 Build 0)  -->
<svg version="1.1" id="Calque_1" xmlns="http://www.w3.org/2000/svg" xmlns:xlink="http://www.w3.org/1999/xlink" x="0px" y="0px"
	 viewBox="0 0 20 20" style="enable-background:new 0 0 20 20;" xml:space="preserve">
<style type="text/css">
	.st0{fill:#636466;}
</style>
<path class="st0" d="M1,9.4c0,1.5,0.4,2.9,1.1,4.1l7.3-4.1V1l0,0C4.8,1,1,4.8,1,9.4z"/>
<g>
	<path class="st0" d="M12.5,4.1c2.7,0.8,4.6,3.3,4.6,6.2c0,3.6-2.9,6.5-6.5,6.5c-1.7,0-3.3-0.7-4.5-1.8l5.4-3.1l1-0.5v-1.1V4.1
		 M10.6,1.9L10.6,1.9v8.4l-7.3,4.1c1.4,2.5,4.2,4.2,7.3,4.2c4.6,0,8.4-3.8,8.4-8.4S15.2,1.9,10.6,1.9L10.6,1.9z"/>
</g>
</svg>
