<?xml version="1.0" encoding="utf-8"?>
<!-- Generator: Adobe Illustrator 25.2.0, SVG Export Plug-In . SVG Version: 6.00 Build 0)  -->
<svg version="1.1" id="Calque_1" xmlns="http://www.w3.org/2000/svg" xmlns:xlink="http://www.w3.org/1999/xlink" x="0px" y="0px"
	 viewBox="0 0 20 20" style="enable-background:new 0 0 20 20;" xml:space="preserve">
<style type="text/css">
	.st0{fill:#636466;}
</style>
<path class="st0" d="M15.1,7.8h-0.6V5.5C14.5,3,12.5,1,10,1S5.5,3,5.5,5.5v2.2H4.9C4,7.8,3.2,8.5,3.2,9.4v7.9C3.2,18.2,4,19,4.9,19
	h10.1c0.9,0,1.7-0.8,1.7-1.7V9.4C16.8,8.5,16,7.8,15.1,7.8z M7,5.5c0-1.7,1.3-3,3-3s3,1.3,3,3v2.2H7V5.5z M10.8,13.5v1.7
	c0,0.4-0.3,0.8-0.8,0.8s-0.8-0.3-0.8-0.8v-1.7c-0.4-0.3-0.8-0.7-0.8-1.3c0-0.8,0.7-1.5,1.5-1.5s1.5,0.7,1.5,1.5
	C11.5,12.8,11.2,13.3,10.8,13.5z"/>
</svg>
