<?xml version="1.0" encoding="utf-8"?>
<!-- Generator: Adobe Illustrator 24.0.1, SVG Export Plug-In . SVG Version: 6.00 Build 0)  -->
<svg version="1.1" id="Calque_1" xmlns="http://www.w3.org/2000/svg" xmlns:xlink="http://www.w3.org/1999/xlink" x="0px" y="0px"
	 viewBox="0 0 20 20" style="enable-background:new 0 0 20 20;" xml:space="preserve">
<style type="text/css">
	.st0{fill:#636466;}
</style>
<g>
	<g>
		<g>
			<path class="st0" d="M1.5,17C0.7,17,0,16.3,0,15.5S0.7,14,1.5,14S3,14.7,3,15.5S2.3,17,1.5,17z M1.5,11C0.7,11,0,10.3,0,9.5
				S0.7,8,1.5,8S3,8.7,3,9.5S2.3,11,1.5,11z M1.5,5C0.7,5,0,4.3,0,3.5S0.7,2,1.5,2S3,2.7,3,3.5S2.3,5,1.5,5z M20,5H6
				c0,0,0-0.7,0-1.5S6,2,6,2h14c0,0,0,0.7,0,1.5S20,5,20,5z M20,11H6c0,0,0-0.7,0-1.5S6,8,6,8h14c0,0,0,0.7,0,1.5S20,11,20,11z
				 M20,17H6c0,0,0-0.7,0-1.5S6,14,6,14h14c0,0,0,0.7,0,1.5S20,17,20,17z"/>
		</g>
	</g>
</g>
</svg>
