<?xml version="1.0" encoding="utf-8"?>
<!-- Generator: Adobe Illustrator 24.0.1, SVG Export Plug-In . SVG Version: 6.00 Build 0)  -->
<svg version="1.1" id="Calque_1" xmlns="http://www.w3.org/2000/svg" xmlns:xlink="http://www.w3.org/1999/xlink" x="0px" y="0px"
	 viewBox="0 0 20 20" style="enable-background:new 0 0 20 20;" xml:space="preserve">
<style type="text/css">
	.st0{fill:#636466;}
</style>
<path class="st0" d="M18.3,8.3h-1.3c-0.2-0.7-0.5-1.4-0.8-2l0.9-0.9c0.3-0.3,0.3-0.7,0-1l-1.5-1.5c-0.3-0.3-0.7-0.3-1,0l-0.9,0.9
	c-0.6-0.4-1.3-0.7-2-0.8V1.7C11.7,1.3,11.4,1,11,1H9C8.6,1,8.3,1.3,8.3,1.7v1.3c-0.7,0.2-1.4,0.5-2,0.9L5.4,2.9
	c-0.3-0.3-0.7-0.3-1,0L2.9,4.4c-0.3,0.3-0.3,0.7,0,1l0.9,0.9C3.4,6.9,3.1,7.5,3,8.3H1.7C1.3,8.3,1,8.6,1,9V11c0,0.4,0.3,0.7,0.7,0.7
	h1.3c0.2,0.7,0.5,1.4,0.8,2l-0.9,0.9c-0.3,0.3-0.3,0.7,0,1l1.5,1.5c0.3,0.3,0.7,0.3,1,0l0.9-0.9c0.6,0.4,1.3,0.7,2,0.8v1.3
	C8.3,18.7,8.6,19,9,19H11c0.4,0,0.7-0.3,0.7-0.7v-1.3c0.7-0.2,1.4-0.5,2-0.8l0.9,0.9c0.3,0.3,0.7,0.3,1,0l1.5-1.5
	c0.3-0.3,0.3-0.7,0-1l-0.9-0.9c0.4-0.6,0.7-1.3,0.8-2h1.3c0.4,0,0.7-0.3,0.7-0.7V9C19,8.6,18.7,8.3,18.3,8.3z M10,15
	c-2.8,0-5-2.2-5-5s2.2-5,5-5s5,2.2,5,5S12.8,15,10,15z"/>
<g>
	<path class="st0" d="M10,7c1.6,0,3,1.4,3,3s-1.4,3-3,3s-3-1.4-3-3S8.4,7,10,7 M10,6c-2.2,0-4,1.8-4,4s1.8,4,4,4s4-1.8,4-4
		S12.2,6,10,6L10,6z"/>
</g>
</svg>
