<?xml version="1.0" encoding="utf-8"?>
<!-- Generator: Adobe Illustrator 24.0.1, SVG Export Plug-In . SVG Version: 6.00 Build 0)  -->
<svg version="1.1" id="Calque_1" xmlns="http://www.w3.org/2000/svg" xmlns:xlink="http://www.w3.org/1999/xlink" x="0px" y="0px"
	 viewBox="0 0 20 20" style="enable-background:new 0 0 20 20;" xml:space="preserve">
<style type="text/css">
	.st0{fill:#636466;}
</style>
<path class="st0" d="M14.5,17.5l-7.3-7.3c-0.6-0.6-0.6-1.7,0-2.3l0.7-0.7c0.6-0.6,1.7-0.6,2.3,0l7.3,7.3c0.6,0.6,0.6,1.7,0,2.3
	l-0.7,0.7C16.2,18.2,15.2,18.2,14.5,17.5z"/>
<path class="st0" d="M6.5,2C6.1,2,5.7,2.1,5.3,2.2l1.8,1.8l0,0c0.3,0.4,0.5,0.9,0.5,1.4c0,1.2-1,2.3-2.3,2.3c-0.6,0-1.1-0.2-1.4-0.5
	l0,0L2.2,5.3C2.1,5.7,2,6.1,2,6.5C2,9,4,11,6.5,11S11,9,11,6.5C11,4,9,2,6.5,2z"/>
</svg>
