<?xml version="1.0" encoding="utf-8"?>
<!-- Generator: Adobe Illustrator 24.0.1, SVG Export Plug-In . SVG Version: 6.00 Build 0)  -->
<svg version="1.1" id="Calque_1" xmlns="http://www.w3.org/2000/svg" xmlns:xlink="http://www.w3.org/1999/xlink" x="0px" y="0px"
	 viewBox="0 0 20 20" style="enable-background:new 0 0 20 20;" xml:space="preserve">
<style type="text/css">
	.st0{fill:#636466;}
</style>
<path class="st0" d="M19.8,8.4l-2.5-0.7c-0.1-0.5-0.3-0.9-0.6-1.3l1.3-2.2c0.1-0.1,0.1-0.2,0-0.2l-2-2c-0.1-0.1-0.2-0.1-0.3,0
	l-2.2,1.3c-0.4-0.2-0.9-0.4-1.3-0.6l-0.6-2.5c0-0.1-0.1-0.2-0.2-0.2H8.6C8.5,0,8.4,0.1,8.4,0.2L7.8,2.7C7.3,2.8,6.8,3,6.4,3.2
	L4.2,1.9C4.1,1.9,4,1.9,3.9,1.9l-2,2C1.8,4,1.8,4.1,1.9,4.2l1.3,2.2C3,6.8,2.8,7.3,2.7,7.8L0.2,8.4C0.1,8.4,0,8.5,0,8.6v2.9
	c0,0.1,0.1,0.2,0.2,0.2l2.5,0.6c0.1,0.5,0.3,0.9,0.6,1.3l-1.3,2.2c-0.1,0.1-0.1,0.2,0,0.3l2,2c0.1,0.1,0.2,0.1,0.3,0l2.2-1.3
	c0.4,0.2,0.9,0.4,1.3,0.6l0.7,2.5c0,0.1,0.1,0.2,0.2,0.2h2.9c0.1,0,0.2-0.1,0.2-0.2l0.6-2.5c0.5-0.1,0.9-0.3,1.3-0.6l2.2,1.3
	c0.1,0.1,0.2,0.1,0.3,0l2-2c0.1-0.1,0.1-0.2,0-0.3l-1.3-2.2c0.2-0.4,0.4-0.9,0.6-1.3l2.5-0.6c0.1,0,0.2-0.1,0.2-0.2V8.6
	C20,8.5,19.9,8.4,19.8,8.4z M10,14c-2.2,0-4-1.8-4-4s1.8-4,4-4s4,1.8,4,4S12.2,14,10,14z"/>
</svg>
