<?xml version="1.0" encoding="utf-8"?>
<!-- Generator: Adobe Illustrator 26.0.1, SVG Export Plug-In . SVG Version: 6.00 Build 0)  -->
<svg version="1.1" id="Calque_1" xmlns="http://www.w3.org/2000/svg" xmlns:xlink="http://www.w3.org/1999/xlink" x="0px" y="0px"
	 viewBox="0 0 60 60" style="enable-background:new 0 0 60 60;" xml:space="preserve">
<style type="text/css">
	.st0{fill:#0A71B3;}
</style>
<path class="st0" d="M58.6,27.6l-25-25.8c-2.5-2.5-3-2.5-5.5,0c0,0-8.5,9.9-10,6c-1.5-4-1-5.5-7-6c-5.5,0-6,3-7.5,6
	c-1.5,3.5,0,6.4,4,7.9c7,2.5-6.5,12.4-6.5,12.4c-1.5,1.5-1.5,2.5,0,4c0.5,0.5,1.5,1.5,2,2c0,0,4,3.5,6,6c2,2.5-1,4-1,4
	c-3.5,0-5.5,2.5-5.5,6s3,6.9,6.5,7.4c3,0.5,6.5-1,7-4c0,0,0.5-5,3.5-3.5c3,1.5,8,8.9,8,8.9c1.5,1.5,2.5,1.5,4,0l27.5-23.8
	C60.6,33.1,60.1,29.1,58.6,27.6z M40.1,34.6h-5v5c0,3-2,5-5,5s-5-2-5-5v-5h-5c-3,0-5-2-5-5s2-5,5-5h5v-5c0-3,2-5,5-5s5,2,5,5v5h5
	c3,0,5,2,5,5S43.1,34.6,40.1,34.6z"/>
</svg>
