<?xml version="1.0" encoding="utf-8"?>
<!-- Generator: Adobe Illustrator 26.0.1, SVG Export Plug-In . SVG Version: 6.00 Build 0)  -->
<svg version="1.1" id="Calque_1" xmlns="http://www.w3.org/2000/svg" xmlns:xlink="http://www.w3.org/1999/xlink" x="0px" y="0px"
	 viewBox="0 0 60 60" style="enable-background:new 0 0 60 60;" xml:space="preserve">
<style type="text/css">
	.st0{fill:#0A71B3;}
</style>
<g>
	<path class="st0" d="M40,25h-5v-5c0-3-2-5-5-5s-5,2-5,5v5h-5c-3,0-5,2-5,5s2,5,5,5h5v5c0,3,2,5,5,5s5-2,5-5v-5h5c3,0,5-2,5-5
		S43,25,40,25z"/>
	<path class="st0" d="M59.5,25.2L52,23.2c-0.4-1.4-1-2.8-1.7-4l3.9-6.6c0.2-0.2,0.2-0.5,0-0.8l-6.1-6.1c-0.2-0.2-0.5-0.2-0.8,0
		l-6.6,3.9c-1.3-0.7-2.6-1.2-4-1.7l-1.9-7.4c0-0.3-0.2-0.5-0.5-0.5h-8.6c-0.3,0-0.5,0.2-0.5,0.5L23.2,8c-1.4,0.4-2.8,1-4,1.7
		l-6.6-3.9c-0.2-0.2-0.5-0.2-0.8,0l-6.1,6.1c-0.2,0.2-0.2,0.5,0,0.8l3.9,6.6c-0.7,1.3-1.2,2.6-1.7,4l-7.4,1.9
		c-0.3,0-0.5,0.2-0.5,0.5v8.6c0,0.3,0.2,0.5,0.5,0.5L8,36.8c0.4,1.4,1,2.8,1.7,4l-3.9,6.6c-0.2,0.2-0.2,0.5,0,0.8l6.1,6.1
		c0.2,0.2,0.5,0.2,0.8,0l6.6-3.9c1.3,0.7,2.6,1.2,4,1.7l1.9,7.4c0,0.3,0.2,0.5,0.5,0.5h8.6c0.3,0,0.5-0.2,0.5-0.5l1.9-7.4
		c1.4-0.4,2.8-1,4-1.7l6.6,3.9c0.2,0.2,0.5,0.2,0.8,0l6.1-6.1c0.2-0.2,0.2-0.5,0-0.8l-3.9-6.6c0.7-1.3,1.2-2.6,1.7-4l7.4-1.9
		c0.3,0,0.5-0.2,0.5-0.5v-8.6C60,25.4,59.8,25.2,59.5,25.2z M30,47.1c-9.5,0-17.1-7.7-17.1-17.1S20.5,12.9,30,12.9
		S47.1,20.5,47.1,30S39.5,47.1,30,47.1z"/>
</g>
</svg>
