<?xml version="1.0" encoding="utf-8"?>
<!-- Generator: Adobe Illustrator 26.0.1, SVG Export Plug-In . SVG Version: 6.00 Build 0)  -->
<svg version="1.1" id="Calque_1" xmlns="http://www.w3.org/2000/svg" xmlns:xlink="http://www.w3.org/1999/xlink" x="0px" y="0px"
	 viewBox="0 0 60 60" style="enable-background:new 0 0 60 60;" xml:space="preserve">
<style type="text/css">
	.st0{fill:#3F83EF;}
</style>
<g>
	<path class="st0" d="M14.2,60c-3.6,0-7.3-1.4-10.1-4.2c-5.6-5.5-5.6-14.6,0-20.1l12.1-12.1c5.5-5.6,14.6-5.6,20.1,0
		c1.1,1.1,2,2.4,2.7,3.8c0.7,1.4,0.1,3.1-1.3,3.8c-1.4,0.7-3.1,0.1-3.8-1.3c-0.4-0.9-1-1.6-1.6-2.3c-3.3-3.3-8.7-3.3-12.1,0
		L8.2,39.7c-3.3,3.3-3.3,8.7,0,12.1c3.3,3.3,8.8,3.3,12.1,0l6.7-6.7c1.1-1.1,2.9-1.1,4,0c1.1,1.1,1.1,2.9,0,4l-6.7,6.7
		C21.5,58.6,17.9,60,14.2,60z"/>
	<path class="st0" d="M33.7,40.5c-3.6,0-7.3-1.4-10.1-4.2c-1.1-1.1-1.9-2.3-2.6-3.6c-0.7-1.4-0.2-3.1,1.2-3.8
		c1.4-0.7,3.1-0.2,3.8,1.2c0.4,0.8,1,1.5,1.6,2.2c3.3,3.3,8.7,3.3,12.1,0l12.1-12.1c3.3-3.3,3.3-8.7,0-12.1
		c-0.7-0.7-1.5-1.2-2.3-1.6c-3.3-1.6-7.2-0.9-9.8,1.6L33,14.9c-1.1,1.1-2.9,1.1-4,0s-1.1-2.9,0-4l6.7-6.7C40-0.1,46.5-1.2,52,1.4
		c1.4,0.7,2.7,1.6,3.8,2.7c5.6,5.5,5.6,14.6,0,20.1L43.8,36.4C41,39.2,37.3,40.5,33.7,40.5z"/>
</g>
</svg>
