<?xml version="1.0" encoding="utf-8"?>
<!-- Generator: Adobe Illustrator 26.0.1, SVG Export Plug-In . SVG Version: 6.00 Build 0)  -->
<svg version="1.1" id="Calque_1" xmlns="http://www.w3.org/2000/svg" xmlns:xlink="http://www.w3.org/1999/xlink" x="0px" y="0px"
	 viewBox="0 0 60 60" style="enable-background:new 0 0 60 60;" xml:space="preserve">
<style type="text/css">
	.st0{fill:#0A71B3;}
</style>
<g>
	<path class="st0" d="M55.5,46.5L33.5,10c-0.5-1-2-2-3.5-2s-2.5,0.5-3.5,2l-22,36.5c-0.5,1-0.5,2.5,0,4c0.5,1,2,2,3.5,2h44
		c1.5,0,2.5-0.5,3.5-2C56,49,56,47.5,55.5,46.5z M10,47l20-33.5L50,47H10z"/>
	<g>
		<path class="st0" d="M38,7l4.5,8H60V5H36C37,5.5,37.5,6.5,38,7z"/>
		<path class="st0" d="M22.5,7c0.5-1,1-1.5,2-2H0v10h17.5L22.5,7z"/>
	</g>
	<g>
		<polygon class="st0" points="54.5,35 60,35 60,25 48.5,25 		"/>
		<polygon class="st0" points="11.5,25 0,25 0,35 5.5,35 		"/>
	</g>
	<g>
		<path class="st0" d="M0.5,52.5c0,0,0-0.5-0.5-1V55h2.5C1.5,54.5,1,53.5,0.5,52.5z"/>
		<path class="st0" d="M59.5,52.5c-0.5,1-1,1.5-2,2.5H60v-3C60,52,60,52.5,59.5,52.5z"/>
	</g>
	<path class="st0" d="M30,20.5L30,20.5L30,20.5L30,20.5L30,20.5c-2.5,0-3,0.5-3,1.5l0.5,12.5c0,1,1,1.5,2.5,1.5l0,0l0,0l0,0l0,0
		c1.5,0,2.5-0.5,2.5-1.5L33,22C33,21.5,32.5,20.5,30,20.5z"/>
	<circle class="st0" cx="30" cy="42.5" r="2.5"/>
</g>
</svg>
