<?xml version="1.0" encoding="utf-8"?>
<!-- Generator: Adobe Illustrator 26.0.1, SVG Export Plug-In . SVG Version: 6.00 Build 0)  -->
<svg version="1.1" id="Calque_1" xmlns="http://www.w3.org/2000/svg" xmlns:xlink="http://www.w3.org/1999/xlink" x="0px" y="0px"
	 viewBox="0 0 60 60" style="enable-background:new 0 0 60 60;" xml:space="preserve">
<style type="text/css">
	.st0{fill:#0A71B3;}
</style>
<g>
	<g>
		<path class="st0" d="M16.6,8.5l4.5,1.5c0,0,0.5,0,0.5-0.5l2-4.5H0v10h9.6L16.6,8.5z"/>
		<path class="st0" d="M38.8,10l4.5-1.5l7.1,6.5H60V5H36.3l2,4.5L38.8,10z"/>
	</g>
	<g>
		<rect y="25" class="st0" width="5" height="10"/>
		<rect x="55" y="25" class="st0" width="5" height="10"/>
	</g>
	<g>
		<path class="st0" d="M21,51.5L16.5,53l-7-7H0v10h24l-2-4.5C21.5,51.5,21.5,51.5,21,51.5z"/>
		<path class="st0" d="M50,46l-7,6.5L38.5,51c0,0-0.5,0-0.5,0.5L36,56h24V46H50L50,46z"/>
	</g>
	<path class="st0" d="M49.6,26.8l-5-1.3c-0.3-0.9-0.7-1.8-1.1-2.7l2.6-4.4c0.1-0.1,0.1-0.4,0-0.5l-4-4c-0.1-0.1-0.4-0.1-0.5,0
		l-4.4,2.6c-0.9-0.5-1.7-0.8-2.7-1.1l-1.3-5c0-0.2-0.2-0.4-0.4-0.4h-5.7c-0.2,0-0.4,0.2-0.4,0.4l-1.3,5c-0.9,0.3-1.8,0.7-2.7,1.1
		l-4.4-2.6c-0.1-0.1-0.4-0.1-0.5,0l-4,4c-0.1,0.1-0.1,0.4,0,0.5l2.6,4.4c-0.5,0.9-0.8,1.7-1.1,2.7l-5,1.3c-0.2,0-0.4,0.2-0.4,0.4
		v5.7c0,0.2,0.2,0.4,0.4,0.4l5,1.3c0.3,0.9,0.7,1.8,1.1,2.7l-2.6,4.4c-0.1,0.1-0.1,0.4,0,0.5l4,4c0.1,0.1,0.4,0.1,0.5,0l4.4-2.6
		c0.9,0.5,1.7,0.8,2.7,1.1l1.3,5c0,0.2,0.2,0.4,0.4,0.4h5.7c0.2,0,0.4-0.2,0.4-0.4l1.3-5c0.9-0.3,1.8-0.7,2.7-1.1l4.4,2.6
		c0.1,0.1,0.4,0.1,0.5,0l4-4c0.1-0.1,0.1-0.4,0-0.5l-2.6-4.4c0.5-0.9,0.8-1.7,1.1-2.7l5-1.3c0.2,0,0.4-0.2,0.4-0.4v-5.7
		C50,26.9,49.8,26.8,49.6,26.8z M30,41.4c-6.3,0-11.4-5.1-11.4-11.4S23.7,18.6,30,18.6S41.4,23.7,41.4,30S36.3,41.4,30,41.4z"/>
</g>
</svg>
