<?xml version="1.0" encoding="utf-8"?>
<!-- Generator: Adobe Illustrator 26.0.1, SVG Export Plug-In . SVG Version: 6.00 Build 0)  -->
<svg version="1.1" id="Calque_1" xmlns="http://www.w3.org/2000/svg" xmlns:xlink="http://www.w3.org/1999/xlink" x="0px" y="0px"
	 viewBox="0 0 60 60" style="enable-background:new 0 0 60 60;" xml:space="preserve">
<style type="text/css">
	.st0{fill:#0A71B3;}
</style>
<g>
	<g>
		<g>
			<g>
				<path class="st0" d="M31.3,50.5c-1,1-2,1-3,0c0,0-3.5-5.5-6-6.5c-2-1.5-2.5,2.5-2.5,2.5c-0.5,2-3,3.5-5.5,3s-5-3-5-5.5
					s2-4,4-4.5c0,0,2.5-1,1-3C12.7,35,9.8,32,9.8,32c-0.5-0.5-1-1-1.5-1.5c-1-1-1-2,0-3c0,0,9.5-7.5,4.5-9.5c-2.5-1-4-3.5-3-6
					s1.5-4.5,5.5-4.5s4,1,5,4.5c1,3,7-4.5,7-4.5c2-2,2.5-2,4,0L49.7,27c1,1,1.5,4,0,5L31.3,50.5z"/>
			</g>
		</g>
	</g>
	<g>
		<path class="st0" d="M34.9,4c0.1,0.1,0.2,0.2,0.2,0.3l9.7,10.2H60V4H34.9z"/>
		<path class="st0" d="M5.1,10.1l0.2-0.5C5.9,8.1,6.9,5.6,9.4,4H0v10.5h4.6C4.5,13.1,4.5,11.6,5.1,10.1z"/>
	</g>
	<g>
		<path class="st0" d="M4.7,34c-3-3-3-7.1,0-10H0v10.5h5.2L4.7,34z"/>
		<path class="st0" d="M53.7,24c1.4,1.7,2.2,4.3,2,6.7c-0.1,1.5-0.8,2.7-1.6,3.8H60V24H53.7z"/>
	</g>
	<g>
		<path class="st0" d="M13.3,54.4c-5-1-9-5.7-9-10.4H0v10.5h14.3C14,54.5,13.6,54.5,13.3,54.4z"/>
		<path class="st0" d="M44.8,44l-10,10c-0.2,0.2-0.4,0.3-0.6,0.5H60V44H44.8z"/>
	</g>
</g>
</svg>
