<?xml version="1.0" encoding="utf-8"?>
<!-- Generator: Adobe Illustrator 26.3.1, SVG Export Plug-In . SVG Version: 6.00 Build 0)  -->
<svg version="1.1" id="Calque_1" xmlns="http://www.w3.org/2000/svg" xmlns:xlink="http://www.w3.org/1999/xlink" x="0px" y="0px"
	 viewBox="0 0 103 100" style="enable-background:new 0 0 103 100;" xml:space="preserve">
<style type="text/css">
	.st0{fill:#0A71B3;}
	.st1{fill:#FFFFFF;}
</style>
<g>
	<path class="st0" d="M47.9,88c-0.5,0-0.9-0.5-0.9-1c0-0.8,0-1.6,0-2.3c0-0.5,0.2-0.9,0.7-1c0.4-0.1,0.4-0.3,0.4-0.5
		c0-4.4,0-10.2,0-14.5c0-1.5,1-2.6,2.6-2.6c4.6,0,9.3,0,13.9,0c4.9,0,6.9,0,11.8,0c2.4,0,4.2,1,5.4,3c1.2,2.1,2.5,4.2,3.8,6.3
		c0.4,0.7,1,1.1,1.7,1.3c0.5,0.2,1.1,0.3,1.7,0.4c1.2,0.3,2,1,2.5,2.1c0.4,0.9,0.4,1.8,0.4,2.7c0,0.2,0,1.8,0.3,1.8
		c0.5,0.1,0.8,0.5,0.8,1c0,0.8,0,1.6,0,2.3c0,0.6-0.5,1-1.1,1.1c-0.5,0-0.9,0-1.4,0c-0.5,0-0.9,0-1.4,0c-0.2-3.5-3-5.5-5.5-5.5
		c-1.3,0-2.5,0.3-3.6,1.1c-1.4,1.1-2.1,2.6-2.2,4.3c-6.2,0-9.5,0-15.7,0c-0.1-1-0.3-1.9-0.8-2.8c-0.5-0.9-1.2-1.5-2.2-2
		c-0.9-0.5-1.8-0.7-2.9-0.7c-2.5,0-5.3,2-5.4,5.5C49.9,88,48.9,88,47.9,88z"/>
	<path class="st0" d="M61,88.5c0,2.5-2,4.5-4.5,4.5C54,93,52,91,52,88.5c0-2.5,2-4.5,4.5-4.5C59,84,61,86,61,88.5z"/>
	<path class="st0" d="M88,88.5c0,2.5-2,4.5-4.5,4.5C81,93,79,91,79,88.5c0-2.5,2-4.5,4.5-4.5C86,84,88,86,88,88.5z"/>
</g>
<path class="st1" d="M79.6,74.5c-0.7-1.1-1.3-2.2-2-3.3c-0.6-1.1-1.6-1.7-2.8-1.7c-1.2,0-2.4,0-3.6,0c-0.2,0-0.3,0.1-0.3,0.3
	c0,2.1,0,4.3,0,6.4c0,0.2,0,0.3,0.3,0.3c3.1,0,6.2,0,9.3,0c0.1,0,0.1,0,0.3,0C80.4,75.8,80,75.2,79.6,74.5z"/>
<path class="st0" d="M42,83h4c0.6,0,1-0.4,1-1l0,0c0-0.6-0.4-1-1-1h-4c-0.6,0-1,0.4-1,1l0,0C41,82.6,41.4,83,42,83z"/>
<path class="st0" d="M39,79h4c0.6,0,1-0.4,1-1l0,0c0-0.6-0.4-1-1-1h-4c-0.6,0-1,0.4-1,1l0,0C38,78.6,38.4,79,39,79z"/>
<path class="st0" d="M0,21L0,21l38,38v-0.1h21v-21l0,0L30.9,9.8l0,0L21.1,0L0,21L0,21z M50.2,53.9l3.8-3.8v3.8H50.2z M7.2,21.1
	L21.1,7.2l2.5,2.5L9.8,23.7L7.2,21.1z M55.3,41.3l-5.2,5.2l-28-28.1l5.1-5.1L55.3,41.3z M13.3,27.2l5.2-5.2l28,28l-5.2,5.2
	L13.3,27.2z"/>
<rect x="45" y="14" class="st0" width="46" height="4"/>
<polygon class="st0" points="91,28 54,28 50,24 91,24 "/>
<rect x="62" y="34" class="st0" width="29" height="4"/>
<rect x="63" y="44" class="st0" width="28" height="4"/>
<rect x="63" y="54" class="st0" width="28" height="4"/>
<path class="st0" d="M29,56v42c0,1.1,0.9,2,2,2h70c1.1,0,2-0.9,2-2V2c0-1.1-0.9-2-2-2H31c-1.1,0-2,0.9-2,2v0.9l5,5V5h64v90H34V60.9
	L29,56z"/>
<path class="st0" d="M42,76h4c0.6,0,1-0.4,1-1l0,0c0-0.6-0.4-1-1-1h-4c-0.6,0-1,0.4-1,1l0,0C41,75.6,41.4,76,42,76z"/>
</svg>
