<?xml version="1.0" encoding="utf-8"?>
<!-- Generator: Adobe Illustrator 26.3.1, SVG Export Plug-In . SVG Version: 6.00 Build 0)  -->
<svg version="1.1" id="Calque_1" xmlns="http://www.w3.org/2000/svg" xmlns:xlink="http://www.w3.org/1999/xlink" x="0px" y="0px"
	 viewBox="0 0 108 100" style="enable-background:new 0 0 108 100;" xml:space="preserve">
<style type="text/css">
	.st0{fill:#0A71B3;}
</style>
<g>
	<g>
		<path class="st0" d="M45.4,30.3c-0.5,0-1,0.2-1.4,0.6c-0.8,0.8-0.8,2,0,2.8c0.4,0.4,0.9,0.6,1.4,0.6s1-0.2,1.4-0.6
			c0.8-0.8,0.8-2,0-2.8C46.4,30.5,45.9,30.3,45.4,30.3L45.4,30.3z"/>
	</g>
	<g>
		<path class="st0" d="M41,34.6c-0.5,0-1,0.2-1.4,0.6c-0.8,0.8-0.8,2,0,2.8c0.4,0.4,0.9,0.6,1.4,0.6c0.5,0,1-0.2,1.4-0.6
			c0.8-0.8,0.8-2,0-2.8C42,34.8,41.5,34.6,41,34.6L41,34.6z"/>
	</g>
	<g>
		<path class="st0" d="M36.6,39c-0.5,0-1,0.2-1.4,0.6c-0.8,0.8-0.8,2,0,2.8c0.4,0.4,0.9,0.6,1.4,0.6c0.5,0,1-0.2,1.4-0.6
			c0.8-0.8,0.8-2,0-2.8C37.7,39.2,37.2,39,36.6,39L36.6,39z"/>
	</g>
	<g>
		<path class="st0" d="M32.3,43.4c-0.5,0-1,0.2-1.4,0.6c-0.8,0.8-0.8,2,0,2.8c0.4,0.4,0.9,0.6,1.4,0.6c0.5,0,1-0.2,1.4-0.6
			c0.8-0.8,0.8-2,0-2.8C33.3,43.6,32.8,43.4,32.3,43.4L32.3,43.4z"/>
	</g>
	<g>
		<path class="st0" d="M59.6,33c-4.2,1.2-8.9,0.2-12.2-3.1c-3.5-3.5-4.5-8.7-2.7-13.2L32.6,4.7L4.7,32.6l12.1,12.1
			c4.5-1.7,9.7-0.8,13.2,2.7c3.5,3.5,4.5,8.7,2.7,13.2l34.7,34.7l27.9-27.9L76.6,48.8L76,48l3.3-3.3l19.4,19.4
			c0.9,0.9,1.4,2.1,1.4,3.3c0,1.3-0.5,2.4-1.4,3.3L70.7,98.6c-0.9,0.9-2.1,1.4-3.3,1.4c-1.3,0-2.4-0.5-3.3-1.4L26.8,61.4l0.5-0.7
			c2.3-3,2-7.3-0.7-10c-1.4-1.4-3.3-2.2-5.4-2.2c-1.7,0-3.2,0.5-4.6,1.5L16,50.5L1.4,35.9c-1.8-1.8-1.8-4.8,0-6.6L29.3,1.4
			C30.1,0.5,31.3,0,32.6,0c1.3,0,2.4,0.5,3.3,1.4L50.5,16L50,16.7c-2.3,3-2,7.3,0.7,10c1.4,1.4,3.3,2.2,5.4,2.2
			c1.7,0,3.2-0.5,4.6-1.5l0.7-0.5l1.9,1.9L59.6,33z"/>
	</g>
</g>
<path class="st0" d="M108,20.7L87.2,0l-9.6,9.6l0,0L48,39.2l0,0v20.7h20.7V60L108,20.7L108,20.7L108,20.7z M53,55v-3.7l3.7,3.7H53z
	 M98.4,23.3L84.7,9.6l2.5-2.5l13.7,13.7L98.4,23.3z M81.2,13.1l5,5L56.7,47.7l-5.1-5.1L81.2,13.1z M65.4,56.3l-5.1-5.1l29.5-29.5
	l5.1,5.1L65.4,56.3z"/>
</svg>
