<?xml version="1.0" encoding="utf-8"?>
<!-- Generator: Adobe Illustrator 26.0.1, SVG Export Plug-In . SVG Version: 6.00 Build 0)  -->
<svg version="1.1" id="Calque_1" xmlns="http://www.w3.org/2000/svg" xmlns:xlink="http://www.w3.org/1999/xlink" x="0px" y="0px"
	 viewBox="0 0 60 60" style="enable-background:new 0 0 60 60;" xml:space="preserve">
<style type="text/css">
	.st0{fill:#FF5028;}
</style>
<g>
	<path class="st0" d="M59.7,48.6L34.3,6.1C33,4.9,31.7,4,29.9,4c-1.7,0-3,0.9-3.9,2.1L0.6,48.6c-0.9,1.3-0.9,3,0,4.7
		c0.9,1.3,2.2,2.1,3.9,2.1h51.3c1.7,0,3-0.9,3.9-2.1C60.1,51.6,60.1,49.9,59.7,48.6z M4.5,51.1L29.9,8.3l25.4,42.4H4.5V51.1z"/>
	<path class="st0" d="M29.9,21.1L29.9,21.1L29.9,21.1L29.9,21.1L29.9,21.1c-2.2,0-2.6,0.9-2.6,1.7l0.4,13.7c0,0.9,0.9,1.7,2.2,1.7
		l0,0l0,0l0,0l0,0c1.3,0,2.2-0.9,2.2-1.7l0.4-13.7C32.5,22,32.1,21.1,29.9,21.1z"/>
	<ellipse class="st0" cx="29.9" cy="44.7" rx="2.2" ry="2.1"/>
</g>
</svg>
