<?xml version="1.0" encoding="utf-8"?>
<!-- Generator: Adobe Illustrator 26.0.1, SVG Export Plug-In . SVG Version: 6.00 Build 0)  -->
<svg version="1.1" id="Calque_1" xmlns="http://www.w3.org/2000/svg" xmlns:xlink="http://www.w3.org/1999/xlink" x="0px" y="0px"
	 viewBox="0 0 60 60" style="enable-background:new 0 0 60 60;" xml:space="preserve">
<style type="text/css">
	.st0{fill:#0A71B3;}
</style>
<path class="st0" d="M59.9,27.5C58.6,12.1,45.7,0,30,0S1.4,12.1,0.1,27.5H0v5h0.1C1.4,47.9,14.3,60,30,60s28.6-12.1,29.9-27.5H60
	L59.9,27.5L59.9,27.5z M30,55c-2.6,0-5.9-3.9-8-10.6c2.5,0.3,5.2,0.6,8,0.6s5.4-0.2,8-0.6C35.9,51.1,32.6,55,30,55z M30,40
	c-3.4,0-6.4-0.3-9.2-0.8c-0.4-2.1-0.6-4.3-0.7-6.7h19.8c-0.1,2.4-0.3,4.6-0.7,6.7C36.4,39.7,33.4,40,30,40z M30,5
	c2.6,0,5.9,3.9,8,10.6c-2.5-0.3-5.2-0.6-8-0.6s-5.4,0.2-8,0.6C24.1,8.9,27.4,5,30,5z M30,20c3.4,0,6.4,0.3,9.2,0.8
	c0.4,2.1,0.6,4.3,0.7,6.7H20.1c0.1-2.4,0.3-4.6,0.7-6.7C23.6,20.3,26.6,20,30,20z M44.9,27.5c-0.1-1.9-0.2-3.7-0.5-5.5
	c4.6,1.5,7.8,3.5,9.4,5.5H44.9z M15.1,27.5h-9c1.6-2,4.8-4,9.4-5.5C15.3,23.8,15.1,25.6,15.1,27.5z M6.1,32.5H15
	c0.1,1.9,0.2,3.7,0.5,5.5C10.9,36.5,7.7,34.5,6.1,32.5z M44.9,32.5h8.9c-1.6,2-4.8,4-9.4,5.5C44.7,36.2,44.9,34.4,44.9,32.5z
	 M53.1,20.4c-2.6-1.6-5.9-2.9-9.7-3.8c-0.9-3.7-2.2-7-3.8-9.7C45.7,9.5,50.5,14.3,53.1,20.4z M20.4,6.9c-1.6,2.6-2.9,5.9-3.8,9.7
	c-3.7,0.9-7,2.2-9.7,3.8C9.5,14.3,14.3,9.5,20.4,6.9z M6.9,39.6c2.6,1.6,5.9,2.9,9.7,3.8c0.9,3.7,2.2,7,3.8,9.7
	C14.3,50.5,9.5,45.7,6.9,39.6z M39.6,53.1c1.6-2.6,2.9-5.9,3.8-9.7c3.7-0.9,7-2.2,9.7-3.8C50.5,45.7,45.7,50.5,39.6,53.1z"/>
</svg>
