<?xml version="1.0" encoding="utf-8"?>
<!-- Generator: Adobe Illustrator 26.0.1, SVG Export Plug-In . SVG Version: 6.00 Build 0)  -->
<svg version="1.1" id="Calque_1" xmlns="http://www.w3.org/2000/svg" xmlns:xlink="http://www.w3.org/1999/xlink" x="0px" y="0px"
	 viewBox="0 0 60 60" style="enable-background:new 0 0 60 60;" xml:space="preserve">
<style type="text/css">
	.st0{fill:#0A71B3;}
</style>
<path class="st0" d="M30,15c16.8,0,23,11,24.7,15c-1.7,4-8,15-24.7,15C13.2,45,7,34,5.3,30C7,26,13.3,15,30,15 M30,10
	C5.7,10,0,30,0,30s5.7,20,30,20s30-20,30-20S54.3,10,30,10L30,10z"/>
<path class="st0" d="M30,15c8.3,0,15,6.7,15,15s-6.7,15-15,15s-15-6.7-15-15S21.7,15,30,15 M30,10c-11,0-20,9-20,20s9,20,20,20
	s20-9,20-20S41,10,30,10L30,10z"/>
<circle class="st0" cx="30" cy="30" r="7.5"/>
</svg>
