<?xml version="1.0" encoding="utf-8"?>
<!-- Generator: Adobe Illustrator 26.0.1, SVG Export Plug-In . SVG Version: 6.00 Build 0)  -->
<svg version="1.1" id="Calque_1" xmlns="http://www.w3.org/2000/svg" xmlns:xlink="http://www.w3.org/1999/xlink" x="0px" y="0px"
	 viewBox="0 0 60 60" style="enable-background:new 0 0 60 60;" xml:space="preserve">
<style type="text/css">
	.st0{fill:#0A71B3;}
</style>
<path class="st0" d="M30,15c16.8,0,23,11,24.7,15c-1.7,4-8,15-24.7,15C13.2,45,7,34,5.3,30C7,26,13.3,15,30,15 M30,10
	C5.7,10,0,30,0,30s5.7,20,30,20s30-20,30-20S54.3,10,30,10L30,10z"/>
<path class="st0" d="M30,15c16.8,0,23,11,24.7,15c-1.7,4-8,15-24.7,15C13.2,45,7,34,5.3,30C7,26,13.3,15,30,15 M30,10
	C5.7,10,0,30,0,30s5.7,20,30,20s30-20,30-20S54.3,10,30,10L30,10z"/>
<path class="st0" d="M49.9,28.3C49.1,18.1,40.5,10,30,10s-19,8.1-19.9,18.3H10v3.3h0.1C11,41.9,19.5,50,30,50s19.1-8.1,19.9-18.3H50
	L49.9,28.3L49.9,28.3z M30,46.7c-1.7,0-3.9-2.6-5.3-7c1.7,0.2,3.5,0.4,5.3,0.4s3.6-0.1,5.3-0.4C33.9,44.1,31.7,46.7,30,46.7z
	 M30,36.7c-2.2,0-4.3-0.2-6.1-0.5c-0.2-1.4-0.4-2.9-0.5-4.5h13.2c-0.1,1.6-0.2,3.1-0.5,4.5C34.3,36.5,32.3,36.7,30,36.7z M30,13.3
	c1.7,0,3.9,2.6,5.3,7C33.6,20.1,31.9,20,30,20s-3.6,0.1-5.3,0.4C26.1,15.9,28.3,13.3,30,13.3z M30,23.3c2.2,0,4.3,0.2,6.1,0.5
	c0.2,1.4,0.4,2.9,0.5,4.5H23.4c0.1-1.6,0.2-3.1,0.5-4.5C25.8,23.5,27.8,23.3,30,23.3z M40,28.3c-0.1-1.2-0.2-2.5-0.3-3.6
	c3.1,1,5.2,2.3,6.3,3.6H40z M20.1,28.3h-5.9c1-1.3,3.2-2.7,6.3-3.6C20.2,25.9,20.1,27.1,20.1,28.3z M14.1,31.7H20
	c0.1,1.2,0.2,2.5,0.3,3.6C17.3,34.3,15.2,33,14.1,31.7z M40,31.7h5.9c-1,1.3-3.2,2.7-6.3,3.6C39.8,34.1,39.9,32.9,40,31.7z
	 M45.4,23.6c-1.8-1.1-4-1.9-6.4-2.5c-0.6-2.5-1.5-4.7-2.5-6.4C40.5,16.3,43.7,19.6,45.4,23.6z M23.6,14.6c-1.1,1.8-1.9,4-2.5,6.4
	c-2.5,0.6-4.7,1.5-6.4,2.5C16.3,19.6,19.6,16.3,23.6,14.6z M14.6,36.4c1.8,1.1,4,1.9,6.4,2.5c0.6,2.5,1.5,4.7,2.5,6.4
	C19.6,43.7,16.3,40.4,14.6,36.4z M36.4,45.4c1.1-1.8,1.9-4,2.5-6.4c2.5-0.6,4.7-1.5,6.4-2.5C43.7,40.4,40.5,43.7,36.4,45.4z"/>
</svg>
