<?xml version="1.0" encoding="utf-8"?>
<!-- Generator: Adobe Illustrator 26.0.1, SVG Export Plug-In . SVG Version: 6.00 Build 0)  -->
<svg version="1.1" id="Calque_1" xmlns="http://www.w3.org/2000/svg" xmlns:xlink="http://www.w3.org/1999/xlink" x="0px" y="0px"
	 viewBox="0 0 20 20" style="enable-background:new 0 0 20 20;" xml:space="preserve">
<style type="text/css">
	.st0{fill:#636363;}
</style>
<path class="st0" d="M17.5,9.5h-2.6C14.7,8.6,13.9,8,13,8s-1.7,0.6-1.9,1.5H2.5C2.2,9.5,2,9.7,2,10s0.2,0.5,0.5,0.5h8.6
	c0.2,0.9,1,1.5,1.9,1.5s1.7-0.6,1.9-1.5h2.6c0.3,0,0.5-0.2,0.5-0.5S17.8,9.5,17.5,9.5z"/>
<path class="st0" d="M17.5,4.5H7.9C7.7,3.6,6.9,3,6,3S4.3,3.6,4.1,4.5H2.5C2.2,4.5,2,4.7,2,5s0.2,0.5,0.5,0.5h1.6C4.3,6.4,5.1,7,6,7
	s1.7-0.6,1.9-1.5h9.6C17.8,5.5,18,5.3,18,5S17.8,4.5,17.5,4.5z"/>
<path class="st0" d="M17.5,14.5H9.9C9.7,13.6,8.9,13,8,13s-1.7,0.6-1.9,1.5H2.5C2.2,14.5,2,14.7,2,15s0.2,0.5,0.5,0.5h3.6
	C6.3,16.4,7.1,17,8,17s1.7-0.6,1.9-1.5h7.6c0.3,0,0.5-0.2,0.5-0.5S17.8,14.5,17.5,14.5z"/>
</svg>
