<?xml version="1.0" encoding="utf-8"?>
<!-- Generator: Adobe Illustrator 26.3.1, SVG Export Plug-In . SVG Version: 6.00 Build 0)  -->
<svg version="1.1" id="Calque_1" xmlns="http://www.w3.org/2000/svg" xmlns:xlink="http://www.w3.org/1999/xlink" x="0px" y="0px"
	 viewBox="0 0 22 22" style="enable-background:new 0 0 22 22;" xml:space="preserve">
<style type="text/css">
	.st0{fill:#636363;}
</style>
<g>
	<path class="st0" d="M15.5,10H7.7l3.5-3.5c0.2-0.2,0.2-0.5,0-0.7s-0.5-0.2-0.7,0l-4.4,4.4C6,10.2,6,10.4,6,10.5c0,0.1,0,0.1,0,0.2
		c0,0.1,0.1,0.1,0.1,0.2c0,0,0,0,0,0l4.4,4.4c0.2,0.2,0.5,0.2,0.7,0s0.2-0.5,0-0.7L7.7,11h7.8c0.3,0,0.5-0.2,0.5-0.5
		S15.8,10,15.5,10z"/>
</g>
</svg>
