<?xml version="1.0" encoding="utf-8"?>
<!-- Generator: Adobe Illustrator 26.0.1, SVG Export Plug-In . SVG Version: 6.00 Build 0)  -->
<svg version="1.1" id="Calque_1" xmlns="http://www.w3.org/2000/svg" xmlns:xlink="http://www.w3.org/1999/xlink" x="0px" y="0px"
	 viewBox="0 0 20 20" style="enable-background:new 0 0 20 20;" xml:space="preserve">
<style type="text/css">
	.st0{fill:#636363;}
</style>
<path class="st0" d="M14,10v6H3V5h4V4H3C2.4,4,2,4.4,2,5v11c0,0.6,0.4,1,1,1h11c0.6,0,1-0.4,1-1v-6H14z"/>
<path class="st0" d="M17.6,5.6L17.6,5.6l-2.9-2.5c-0.3-0.3-0.7,0-0.7,0.6V5h-1c-3.9,0-6.2,3.8-6.9,5.2c0,0-0.3,0.7,0.3,0.2
	C7.4,9.5,10,7,13,7h1v1.3c0,0.6,0.4,0.9,0.7,0.6l3-2.6C17.7,6.2,17.9,5.9,17.6,5.6z"/>
</svg>
