<?xml version="1.0" encoding="utf-8"?>
<!-- Generator: Adobe Illustrator 26.0.1, SVG Export Plug-In . SVG Version: 6.00 Build 0)  -->
<svg version="1.1" id="Calque_1" xmlns="http://www.w3.org/2000/svg" xmlns:xlink="http://www.w3.org/1999/xlink" x="0px" y="0px"
	 viewBox="0 0 20 20" style="enable-background:new 0 0 20 20;" xml:space="preserve">
<style type="text/css">
	.st0{fill:#636363;}
</style>
<path class="st0" d="M17,7h-2V5l0,0c0,0,0,0,0,0l-3-3c0,0,0,0,0,0l0,0H6C5.4,2,5,2.4,5,3v4H3C2.4,7,2,7.4,2,8v6c0,0.6,0.4,1,1,1h2v2
	c0,0.6,0.4,1,1,1h8c0.6,0,1-0.4,1-1v-2h2c0.6,0,1-0.4,1-1V8C18,7.4,17.6,7,17,7z M6,3h5v2c0,0.6,0.4,1,1,1h2v1H6V3z M14,17H6v-3h8
	V17z"/>
</svg>
