<?xml version="1.0" encoding="utf-8"?>
<!-- Generator: Adobe Illustrator 26.0.1, SVG Export Plug-In . SVG Version: 6.00 Build 0)  -->
<svg version="1.1" id="Calque_1" xmlns="http://www.w3.org/2000/svg" xmlns:xlink="http://www.w3.org/1999/xlink" x="0px" y="0px"
	 viewBox="0 0 20 20" style="enable-background:new 0 0 20 20;" xml:space="preserve">
<style type="text/css">
	.st0{fill:#636363;}
</style>
<path class="st0" d="M16.9,8.9l-1.7-0.5c-0.1-0.3-0.2-0.6-0.4-0.9l0.9-1.5c0,0,0-0.1,0-0.2l-1.4-1.4c0,0-0.1,0-0.2,0l-1.5,0.9
	c-0.3-0.2-0.6-0.3-0.9-0.4l-0.5-1.7C11.1,3.1,11.1,3,11,3H9C8.9,3,8.9,3.1,8.9,3.1L8.4,4.9C8.1,5,7.8,5.1,7.5,5.3L5.9,4.4
	c0,0-0.1,0-0.2,0L4.4,5.8c0,0,0,0.1,0,0.2l0.9,1.5C5.1,7.8,5,8.1,4.9,8.4L3.1,8.9C3.1,8.9,3,8.9,3,9v2c0,0.1,0.1,0.1,0.1,0.1
	l1.7,0.5c0.1,0.3,0.2,0.6,0.4,0.9l-0.9,1.5c0,0,0,0.1,0,0.2l1.4,1.4c0,0,0.1,0,0.2,0l1.5-0.9c0.3,0.2,0.6,0.3,0.9,0.4l0.5,1.7
	C8.9,16.9,8.9,17,9,17h2c0.1,0,0.1-0.1,0.1-0.1l0.5-1.7c0.3-0.1,0.6-0.2,0.9-0.4l1.5,0.9c0,0,0.1,0,0.2,0l1.4-1.4c0,0,0-0.1,0-0.2
	l-0.9-1.5c0.2-0.3,0.3-0.6,0.4-0.9l1.7-0.5c0.1,0,0.1-0.1,0.1-0.1V9C17,8.9,16.9,8.9,16.9,8.9z M10,13.5c-1.9,0-3.5-1.6-3.5-3.5
	S8.1,6.5,10,6.5s3.5,1.6,3.5,3.5S11.9,13.5,10,13.5z"/>
</svg>
