<?xml version="1.0" encoding="utf-8"?>
<!-- Generator: Adobe Illustrator 26.0.1, SVG Export Plug-In . SVG Version: 6.00 Build 0)  -->
<svg version="1.1" id="Calque_1" xmlns="http://www.w3.org/2000/svg" xmlns:xlink="http://www.w3.org/1999/xlink" x="0px" y="0px"
	 viewBox="0 0 20 20" style="enable-background:new 0 0 20 20;" xml:space="preserve">
<style type="text/css">
	.st0{fill:#636363;}
</style>
<g>
	<path class="st0" d="M19,10l-2.5-4L14,10h1.5v0c0,3-2.5,5.5-5.5,5.5c-1.5,0-2.8-0.6-3.8-1.5l-1.1,1.7c1.3,1.1,3,1.8,4.9,1.8
		c4.1,0,7.5-3.4,7.5-7.5v0H19z"/>
	<path class="st0" d="M4.5,10C4.5,7,7,4.5,10,4.5c1.5,0,2.8,0.6,3.8,1.5l1.1-1.7c-1.3-1.1-3-1.8-4.9-1.8c-4.1,0-7.5,3.4-7.5,7.5H1
		l2.5,4L6,10H4.5z"/>
</g>
</svg>
