<?xml version="1.0" encoding="utf-8"?>
<!-- Generator: Adobe Illustrator 26.0.1, SVG Export Plug-In . SVG Version: 6.00 Build 0)  -->
<svg version="1.1" id="Calque_1" xmlns="http://www.w3.org/2000/svg" xmlns:xlink="http://www.w3.org/1999/xlink" x="0px" y="0px"
	 viewBox="0 0 20 20" style="enable-background:new 0 0 20 20;" xml:space="preserve">
<style type="text/css">
	.st0{fill:#636363;}
</style>
<path class="st0" d="M10,4C3.5,4,2,9.3,2,9.3s1.5,5.3,8,5.3c6.5,0,8-5.3,8-5.3S16.5,4,10,4z M14,9.3c0,2.3-1.7,4-4,4s-4-1.7-4-4
	s1.7-4,4-4S14,7.1,14,9.3z M3.5,9.3c0.2-0.5,0.8-1.6,1.8-2.4C4.9,7.6,4.7,8.5,4.7,9.3c0,0.9,0.3,1.7,0.7,2.5
	C4.2,10.9,3.7,9.9,3.5,9.3z M14.7,11.8c0.4-0.7,0.6-1.6,0.6-2.4c0-0.9-0.3-1.7-0.7-2.5c1.1,0.9,1.6,1.9,1.9,2.5
	C16.3,9.9,15.8,10.9,14.7,11.8z"/>
<g>
	<circle class="st0" cx="10" cy="9.3" r="2"/>
</g>
</svg>
