<?xml version="1.0" encoding="utf-8"?>
<!-- Generator: Adobe Illustrator 24.0.2, SVG Export Plug-In . SVG Version: 6.00 Build 0)  -->
<svg version="1.1" id="Calque_1" xmlns="http://www.w3.org/2000/svg" xmlns:xlink="http://www.w3.org/1999/xlink" x="0px" y="0px"
	 viewBox="0 0 40 40" style="enable-background:new 0 0 40 40;" xml:space="preserve">
<style type="text/css">
	.st0{fill:#FFFFFF;}
	.st1{fill:#2BCC2B;}
	.st2{fill:none;stroke:#2BCC2B;stroke-miterlimit:10;}
	.st3{fill:none;stroke:#2BCC2B;stroke-linecap:round;stroke-miterlimit:10;}
</style>
<g>
	<circle class="st0" cx="20" cy="20" r="19.5"/>
	<g>
		<path class="st1" d="M20,1c10.5,0,19,8.5,19,19s-8.5,19-19,19S1,30.5,1,20S9.5,1,20,1 M20,0C9,0,0,9,0,20s9,20,20,20s20-9,20-20
			S31,0,20,0L20,0z"/>
	</g>
</g>
<path class="st2" d="M22.7,19.7c0-1.5-1.2-2.8-2.8-2.8s-2.8,1.2-2.8,2.8c0,1.1,0.7,2.1,1.7,2.6v8.6c0,0.6,0.5,1.1,1.1,1.1
	s1.1-0.5,1.1-1.1v-8.6C22,21.8,22.7,20.9,22.7,19.7z"/>
<path class="st3" d="M15.4,23.2c-0.7-1-1.2-2.1-1.2-3.4c0-1.4,0.5-2.7,1.4-3.7"/>
<path class="st3" d="M13.5,25.7c-1.5-1.6-2.4-3.7-2.4-6c0-2.4,1-4.6,2.5-6.2"/>
<path class="st3" d="M11.5,28.2C9.4,26,8,23,8,19.7c0-3.4,1.4-6.5,3.7-8.6"/>
<path class="st3" d="M24.2,23.2c0.7-1,1.2-2.1,1.2-3.4c0-1.4-0.5-2.7-1.4-3.7"/>
<path class="st3" d="M26.1,25.7c1.5-1.6,2.4-3.7,2.4-6c0-2.4-1-4.6-2.5-6.2"/>
<path class="st3" d="M28.1,28.2c2.2-2.2,3.5-5.1,3.5-8.4c0-3.4-1.4-6.5-3.7-8.6"/>
</svg>
