<?xml version="1.0" encoding="utf-8"?>
<!-- Generator: Adobe Illustrator 23.1.0, SVG Export Plug-In . SVG Version: 6.00 Build 0)  -->
<svg version="1.1" id="Calque_1" xmlns="http://www.w3.org/2000/svg" xmlns:xlink="http://www.w3.org/1999/xlink" x="0px" y="0px"
	 viewBox="0 0 40 40" style="enable-background:new 0 0 40 40;" xml:space="preserve">
<style type="text/css">
	.st0{fill:#FFFFFF;}
	.st1{fill:#36AEEA;}
	.st2{fill:none;stroke:#36AEEA;stroke-miterlimit:10;}
</style>
<g>
	<circle class="st0" cx="20" cy="20" r="19.5"/>
	<g>
		<path class="st1" d="M20,1c10.5,0,19,8.5,19,19s-8.5,19-19,19S1,30.5,1,20S9.5,1,20,1 M20,0C9,0,0,9,0,20s9,20,20,20s20-9,20-20
			S31,0,20,0L20,0z"/>
	</g>
</g>
<circle class="st2" cx="20" cy="20" r="10"/>
<line class="st2" x1="20" y1="10" x2="20" y2="30"/>
<line class="st2" x1="28.5" y1="14.5" x2="11.7" y2="14.5"/>
<line class="st2" x1="28.4" y1="25.5" x2="11.7" y2="25.5"/>
<line class="st2" x1="30" y1="20" x2="10" y2="20"/>
<path class="st2" d="M18,29.7c-2.2-2.4-3.5-5.9-3.5-9.7c0-3.9,1.4-7.4,3.6-9.8"/>
<path class="st2" d="M21.9,10.2c2.2,2.4,3.6,5.9,3.6,9.8s-1.4,7.4-3.6,9.8"/>
</svg>
