<?xml version="1.0" encoding="utf-8"?>
<!-- Generator: Adobe Illustrator 24.0.2, SVG Export Plug-In . SVG Version: 6.00 Build 0)  -->
<svg version="1.1" id="Calque_1" xmlns="http://www.w3.org/2000/svg" xmlns:xlink="http://www.w3.org/1999/xlink" x="0px" y="0px"
	 viewBox="0 0 40 40" style="enable-background:new 0 0 40 40;" xml:space="preserve">
<style type="text/css">
	.st0{fill:#2BCC2B;}
	.st1{fill:none;stroke:#2BCC2B;stroke-miterlimit:10;}
</style>
<g>
	<path class="st0" d="M20,1c10.5,0,19,8.5,19,19s-8.5,19-19,19S1,30.5,1,20S9.5,1,20,1 M20,0C9,0,0,9,0,20s9,20,20,20s20-9,20-20
		S31,0,20,0L20,0z"/>
</g>
<path class="st1" d="M27.3,17.7c0-0.2,0-0.4,0-0.6c0-2.8-2.3-5.1-5.2-5.1c-2.1,0-3.9,1.2-4.7,2.9c-0.5-0.3-1.1-0.5-1.7-0.5
	c-1.7,0-3.1,1.3-3.1,3c0,0.1,0,0.2,0,0.3C10.6,18,9,19.7,9,21.8c0,2.3,1.9,4.2,4.3,4.2h13.4c2.4,0,4.3-1.9,4.3-4.2
	C31,19.7,29.4,18,27.3,17.7z"/>
</svg>
