<?xml version="1.0" encoding="utf-8"?>
<!-- Generator: Adobe Illustrator 24.0.2, SVG Export Plug-In . SVG Version: 6.00 Build 0)  -->
<svg version="1.1" id="Calque_1" xmlns="http://www.w3.org/2000/svg" xmlns:xlink="http://www.w3.org/1999/xlink" x="0px" y="0px"
	 viewBox="0 0 38 38" style="enable-background:new 0 0 38 38;" xml:space="preserve">
<style type="text/css">
	.st0{fill:#36AEEA;}
</style>
<symbol  id="Logo_Connection_4" viewBox="-8.5 -8.5 17 17">
	<g>
		<path class="st0" d="M-8.5,4.5v-2c6.1,0,11-4.9,11-11h2C4.5-1.3-1.3,4.5-8.5,4.5z"/>
	</g>
	<g>
		<path class="st0" d="M-8.5,8.5v-2c8.3,0,15-6.7,15-15h2C8.5,0.9,0.9,8.5-8.5,8.5z"/>
	</g>
	<path class="st0" d="M-0.1-4.2l-0.3,0.3l-0.4,0.4L-0.9-4c-0.3-1.5-1.3-2.3-3.2-2.5c-0.1,0-0.1,0-0.2,0c-1.2,0-1.7,1-1.9,1.5
		l3.9,1.3l0.2,0.1l-0.1,0.2c0,0.1-0.1,0.3-0.1,0.4C-2.6-2-3.1-1.4-3.7-1.1c-0.4,0.2-0.8,0.3-1.2,0.3C-5.2-0.8-5.6-0.8-6-1
		c-1-0.3-1.7-1-2.1-1.8C-8.3-3.5-8.4-4.2-8.2-5l0,0l0-0.3c0-0.1,0-0.1,0-0.2l0-0.1l0-0.1c0,0,0-0.1,0-0.1L-8-6l0,0
		c0.6-1.4,2.1-2.3,3.8-2.3c2.2,0,4,1.7,4.1,3.9L-0.1-4.2L-0.1-4.2z M-5.3-2c0.2,0,0.3,0,0.4-0.1c0.2-0.1,0.4-0.4,0.6-1l-2.2-0.8
		c-0.1,0.4,0,0.7,0.1,1.1C-6.4-2.4-6.1-2.2-5.7-2C-5.6-2-5.4-2-5.3-2z"/>
</symbol>
<use xlink:href="#Logo_Connection_4"  width="17" height="17" id="XMLID_4_" x="-8.5" y="-8.5" transform="matrix(1 0 0 -1 19 19)" style="overflow:visible;"/>
</svg>
