<?xml version="1.0" encoding="utf-8"?>
<!-- Generator: Adobe Illustrator 24.0.2, SVG Export Plug-In . SVG Version: 6.00 Build 0)  -->
<svg version="1.1" id="Calque_1" xmlns="http://www.w3.org/2000/svg" xmlns:xlink="http://www.w3.org/1999/xlink" x="0px" y="0px"
	 viewBox="0 0 38 38" style="enable-background:new 0 0 38 38;" xml:space="preserve">
<style type="text/css">
	.st0{fill:#848484;}
</style>
<symbol  id="Logo_Connection_2" viewBox="-8.5 -8.7 17 17.2">
	<g>
		<path class="st0" d="M-8.5,4.5v-2c6.1,0,11-4.9,11-11h2C4.5-1.3-1.3,4.5-8.5,4.5z"/>
	</g>
	<g>
		<path class="st0" d="M-8.5,8.5v-2c8.3,0,15-6.7,15-15h2C8.5,0.9,0.9,8.5-8.5,8.5z"/>
	</g>
	<g>
		<rect x="-6" y="-9.1" transform="matrix(0.7071 -0.7071 0.7071 0.7071 2.1864 -5.0133)" class="st0" width="2" height="8"/>
	</g>
	<g>
		<rect x="-9" y="-6.1" transform="matrix(0.7071 -0.7071 0.7071 0.7071 2.1864 -5.0133)" class="st0" width="8" height="2"/>
	</g>
</symbol>
<use xlink:href="#Logo_Connection_2"  width="17" height="17.2" id="XMLID_2_" x="-8.5" y="-8.7" transform="matrix(1 0 0 -0.9894 18.9703 18.9103)" style="overflow:visible;"/>
</svg>
