<?xml version="1.0" encoding="utf-8"?>
<!-- Generator: Adobe Illustrator 24.0.2, SVG Export Plug-In . SVG Version: 6.00 Build 0)  -->
<svg version="1.1" id="Calque_1" xmlns="http://www.w3.org/2000/svg" xmlns:xlink="http://www.w3.org/1999/xlink" x="0px" y="0px"
	 viewBox="0 0 12 12" style="enable-background:new 0 0 12 12;" xml:space="preserve">
<g>
	<g>
		<polyline points="5,5 10,0 12,2 7,7 		"/>
	</g>
	<g>
		<path d="M10,0L5,5L4,8l3-1l5-5L10,0L10,0z"/>
	</g>
</g>
<g>
	<path d="M9,3v4v4H1V3h4H9 M10,2H5c0,0,0,0,0,0H0.8C0.4,2,0,2.4,0,2.8v8.3C0,11.6,0.4,12,0.8,12h8.3c0.5,0,0.8-0.4,0.8-0.8V7V2L10,2
		z"/>
</g>
</svg>
