<?xml version="1.0" encoding="utf-8"?>
<!-- Generator: Adobe Illustrator 24.0.2, SVG Export Plug-In . SVG Version: 6.00 Build 0)  -->
<svg version="1.1" id="Calque_1" xmlns="http://www.w3.org/2000/svg" xmlns:xlink="http://www.w3.org/1999/xlink" x="0px" y="0px"
	 viewBox="0 0 13 15" style="enable-background:new 0 0 13 15;" xml:space="preserve">
<g>
	<g>
		<path d="M11.9,1.1c-1.4-1.5-3.7-1.5-5.1,0L1.4,6.7c-0.2,0.2-0.2,0.4,0,0.6s0.4,0.2,0.6,0l5.4-5.6c1.1-1.1,2.9-1.1,3.9,0
			c1.1,1.1,1.1,2.9,0,4l-7.6,7.9c-0.6,0.7-1.8,0.7-2.4,0c-0.7-0.7-0.7-1.8,0-2.5l7.3-7.5c0.2-0.2,0.7-0.2,0.9,0
			c0.3,0.3,0.3,0.7,0,0.9l-7,7.2c-0.1,0.1-0.1,0.5,0,0.6c0.2,0.2,0.4,0.2,0.6,0l7-7.2c0.6-0.6,0.6-1.6,0-2.2C9.6,2.4,8.6,2.4,8,3
			l-7.3,7.5c-1,1-1,2.7,0,3.7C1.2,14.7,1.9,15,2.6,15s1.3-0.3,1.8-0.8l7.6-7.9C13.4,4.9,13.4,2.5,11.9,1.1z"/>
	</g>
</g>
</svg>
