<?xml version="1.0" encoding="utf-8"?>
<!-- Generator: Adobe Illustrator 25.2.0, SVG Export Plug-In . SVG Version: 6.00 Build 0)  -->
<svg version="1.1" id="Calque_1" xmlns="http://www.w3.org/2000/svg" xmlns:xlink="http://www.w3.org/1999/xlink" x="0px" y="0px"
	 viewBox="0 0 24 12" style="enable-background:new 0 0 24 12;" xml:space="preserve">
<style type="text/css">
	.st0{fill:#FFFFFF;}
	.st1{fill:#646464;}
	.st2{fill:#3CE678;}
	.st3{fill:#03822D;}
	.st4{fill:#3CE678;stroke:#03822D;stroke-linecap:round;stroke-miterlimit:10;}
</style>
<g>
	<path class="st0" d="M1,11.5c-0.3,0-0.5-0.2-0.5-0.5V1c0-0.3,0.2-0.5,0.5-0.5h10c0.3,0,0.5,0.2,0.5,0.5v10c0,0.3-0.2,0.5-0.5,0.5H1
		z"/>
	<path class="st1" d="M11,1v10H1V1H11 M11,0H1C0.4,0,0,0.4,0,1v10c0,0.6,0.4,1,1,1h10c0.6,0,1-0.4,1-1V1C12,0.4,11.6,0,11,0L11,0z"
		/>
</g>
<g>
	<path class="st2" d="M13,11.5c-0.3,0-0.5-0.2-0.5-0.5V1c0-0.3,0.2-0.5,0.5-0.5h10c0.3,0,0.5,0.2,0.5,0.5v10c0,0.3-0.2,0.5-0.5,0.5
		H13z"/>
	<path class="st3" d="M23,1v10H13V1H23 M23,0H13c-0.6,0-1,0.4-1,1v10c0,0.6,0.4,1,1,1h10c0.5,0,1-0.4,1-1V1C24,0.4,23.5,0,23,0L23,0
		z"/>
</g>
<polyline class="st4" points="14.3,7 16.5,9.1 21.7,2.9 "/>
</svg>
