<?xml version="1.0" encoding="utf-8"?>
<!-- Generator: Adobe Illustrator 24.0.1, SVG Export Plug-In . SVG Version: 6.00 Build 0)  -->
<svg version="1.1" id="Calque_1" xmlns="http://www.w3.org/2000/svg" xmlns:xlink="http://www.w3.org/1999/xlink" x="0px" y="0px"
	 viewBox="0 0 42 42" style="enable-background:new 0 0 42 42;" xml:space="preserve">
<style type="text/css">
	.st0{fill:url(#SVGID_1_);}
	.st1{fill:#FEFEFE;}
	.st2{fill:#0A71B3;}
</style>
<g>
	<g>
		
			<radialGradient id="SVGID_1_" cx="255.1528" cy="33.1636" r="23.8707" gradientTransform="matrix(0.868 0 0 0.868 -200.4775 -7.7868)" gradientUnits="userSpaceOnUse">
			<stop  offset="0" style="stop-color:#37A8DB"/>
			<stop  offset="1" style="stop-color:#0A71B3"/>
		</radialGradient>
		<path class="st0" d="M37.04,37.04c6.24-6.24,6.24-16.36,0-22.59L22.88,0.28H0.28v22.6l14.17,14.17
			C20.68,43.28,30.8,43.28,37.04,37.04z"/>
		<g>
			<path class="st1" d="M25.74,42c-4.34,0-8.43-1.69-11.5-4.76L0,22.99V0h22.99l0.08,0.08l14.17,14.17c6.34,6.34,6.34,16.65,0,22.99
				C34.17,40.31,30.09,42,25.74,42z M0.56,22.76l14.08,14.08c2.96,2.96,6.91,4.6,11.1,4.6c4.19,0,8.13-1.63,11.1-4.6
				c6.12-6.12,6.12-16.08,0-22.2L22.76,0.56H0.56V22.76z"/>
		</g>
	</g>
</g>
<g>
	<g>
		<path class="st1" d="M39.69,25.74c0,7.7-6.24,13.94-13.94,13.94c-7.7,0-13.94-6.24-13.94-13.94c0-7.7,6.24-13.94,13.94-13.94
			C33.44,11.8,39.69,18.04,39.69,25.74z"/>
	</g>
	<path class="st2" d="M25.74,39.97c-7.84,0-14.22-6.38-14.22-14.22c0-7.84,6.38-14.22,14.22-14.22c7.84,0,14.22,6.38,14.22,14.22
		C39.97,33.59,33.59,39.97,25.74,39.97z M25.74,12.08c-7.53,0-13.66,6.13-13.66,13.66c0,7.53,6.13,13.66,13.66,13.66
		c7.53,0,13.66-6.13,13.66-13.66C39.41,18.21,33.28,12.08,25.74,12.08z"/>
</g>
<path class="st2" d="M38.8,24.55c0,0.04,0,0.09,0,0.13c0,6.36-5.16,11.52-11.52,11.52c-6.36,0-11.52-5.16-11.52-11.52
	c0-6.36,5.16-11.52,11.52-11.52c1.48,0,2.9,0.28,4.2,0.79c-1.74-0.85-3.69-1.32-5.75-1.32c-7.24,0-13.12,5.87-13.12,13.12
	c0,7.24,5.87,13.12,13.12,13.12c7.24,0,13.12-5.87,13.12-13.12C38.86,25.34,38.84,24.94,38.8,24.55z"/>
<g>
	<path class="st2" d="M22.43,17.03h9.64c0,0,3.57,0.18,3.57,3.41c0,3.13-2.92,3-2.92,3s4.53,0.48,4.53,4.32
		c0,3.84-3.25,4.19-3.25,4.19h-6.83V20.43h2.37v9h3.25c0,0,1.99,0.06,1.99-1.73c0-2.59-4.54-2.96-4.54-2.96l-0.1-2.35
		c0,0,3.23-0.18,3.23-1.61c0-1.22-1.08-1.25-1.08-1.25h-9.87V17.03z"/>
	<rect x="22.37" y="22.05" class="st2" width="2.34" height="9.91"/>
</g>
</svg>
