<?xml version="1.0" encoding="utf-8"?>
<!-- Generator: Adobe Illustrator 24.1.1, SVG Export Plug-In . SVG Version: 6.00 Build 0)  -->
<svg version="1.1" id="Layer_1" xmlns="http://www.w3.org/2000/svg" xmlns:xlink="http://www.w3.org/1999/xlink" x="0px" y="0px"
	 viewBox="0 0 20 20" style="enable-background:new 0 0 20 20;" xml:space="preserve">
<style type="text/css">
	.st0{fill:#7A7A7A;}
</style>
<g>
	<path class="st0" d="M8.2,16.5C3.7,16.5,0,12.8,0,8.2S3.7,0,8.2,0s8.2,3.7,8.2,8.2S12.8,16.5,8.2,16.5L8.2,16.5z M8.2,1.6
		c-3.7,0-6.7,3-6.7,6.7s3,6.7,6.7,6.7s6.7-3,6.7-6.7S11.9,1.6,8.2,1.6L8.2,1.6z M19.8,19.8c0.3-0.3,0.3-0.8,0-1.1l-3.5-3.5
		c-0.3-0.3-0.8-0.3-1.1,0c-0.3,0.3-0.3,0.8,0,1.1l3.5,3.5c0.2,0.2,0.4,0.2,0.6,0.2C19.4,20,19.6,19.9,19.8,19.8z"/>
</g>
</svg>
