<?xml version="1.0" encoding="utf-8"?>
<!-- Generator: Adobe Illustrator 24.1.3, SVG Export Plug-In . SVG Version: 6.00 Build 0)  -->
<svg version="1.1" id="Calque_1" xmlns="http://www.w3.org/2000/svg" xmlns:xlink="http://www.w3.org/1999/xlink" x="0px" y="0px"
	 viewBox="0 0 58 50" style="enable-background:new 0 0 58 50;" xml:space="preserve">
<style type="text/css">
	.st0{fill:#B2B2B2;enable-background:new    ;}
	.st1{enable-background:new    ;}
	.st2{fill:#B2B2B2;}
</style>
<path class="st0" d="M29,6c10.5,0,19,8.5,19,19s-8.5,19-19,19s-19-8.5-19-19S18.5,6,29,6 M29,0C15.2,0,4,11.2,4,25s11.2,25,25,25
	s25-11.2,25-25S42.8,0,29,0L29,0z"/>
<g class="st1">
	<g>
		<path class="st2" d="M32.1,19.7l-3.2,11.1c-0.2,0.6-0.3,1.1-0.3,1.3c0,0.1,0,0.2,0.1,0.3c0.1,0.1,0.2,0.1,0.3,0.1
			c0.2,0,0.4-0.1,0.5-0.2c0.5-0.4,1-1.1,1.7-2.1l0.5,0.3c-1.6,2.7-3.2,4.1-5,4.1c-0.7,0-1.2-0.2-1.6-0.6c-0.4-0.4-0.6-0.9-0.6-1.4
			c0-0.4,0.1-0.9,0.3-1.5l2.2-7.5c0.2-0.7,0.3-1.3,0.3-1.6c0-0.2-0.1-0.4-0.3-0.6c-0.2-0.2-0.5-0.3-0.8-0.3c-0.2,0-0.3,0-0.6,0
			l0.2-0.6l5.3-0.9H32.1z M31.2,12.5c0.6,0,1.2,0.2,1.6,0.7c0.4,0.4,0.7,1,0.7,1.6c0,0.6-0.2,1.2-0.7,1.6c-0.4,0.4-1,0.7-1.6,0.7
			c-0.6,0-1.2-0.2-1.6-0.7c-0.4-0.4-0.7-1-0.7-1.6c0-0.6,0.2-1.2,0.7-1.6C30,12.8,30.5,12.5,31.2,12.5z"/>
	</g>
</g>
</svg>
