<?xml version="1.0" encoding="utf-8"?>
<!-- Generator: Adobe Illustrator 24.1.3, SVG Export Plug-In . SVG Version: 6.00 Build 0)  -->
<svg version="1.1" id="Calque_1" xmlns="http://www.w3.org/2000/svg" xmlns:xlink="http://www.w3.org/1999/xlink" x="0px" y="0px"
	 viewBox="0 0 58 50" style="enable-background:new 0 0 58 50;" xml:space="preserve">
<style type="text/css">
	.st0{fill:#BFBFBF;}
	.st1{filter:url(#Adobe_OpacityMaskFilter);}
	.st2{opacity:0.75;mask:url(#SVGID_1_);fill:#B2B2B2;}
	.st3{filter:url(#Adobe_OpacityMaskFilter_1_);}
	.st4{opacity:0.75;mask:url(#SVGID_2_);fill:#A5A8AA;}
	.st5{filter:url(#Adobe_OpacityMaskFilter_2_);}
	.st6{opacity:0.75;mask:url(#SVGID_3_);fill:#A5A8AA;}
</style>
<g>
	<g>
		<path class="st0" d="M29,10l20.3,35H8.7L29,10 M29,0L0,50h58L29,0L29,0z"/>
		<defs>
			<filter id="Adobe_OpacityMaskFilter" filterUnits="userSpaceOnUse" x="0" y="0" width="58" height="50">
				
					<feColorMatrix  type="matrix" values="-1 0 0 0 1  0 -1 0 0 1  0 0 -1 0 1  0 0 0 1 0" color-interpolation-filters="sRGB" result="source"/>
			</filter>
		</defs>
		<mask maskUnits="userSpaceOnUse" x="0" y="0" width="58" height="50" id="SVGID_1_">
			<g class="st1">
				<image style="overflow:visible;" width="62" height="54" xlink:href="7D9D380D.jpg"  transform="matrix(1 0 0 1 -2 -2)">
				</image>
			</g>
		</mask>
		<path class="st2" d="M29,10l20.3,35H8.7L29,10 M29,0L0,50h58L29,0L29,0z"/>
	</g>
</g>
<g>
	<g>
		<rect x="27" y="22" class="st0" width="4" height="12"/>
		<defs>
			<filter id="Adobe_OpacityMaskFilter_1_" filterUnits="userSpaceOnUse" x="27" y="22" width="4" height="12">
				
					<feColorMatrix  type="matrix" values="-1 0 0 0 1  0 -1 0 0 1  0 0 -1 0 1  0 0 0 1 0" color-interpolation-filters="sRGB" result="source"/>
			</filter>
		</defs>
		<mask maskUnits="userSpaceOnUse" x="27" y="22" width="4" height="12" id="SVGID_2_">
			<g class="st3">
				<image style="overflow:visible;" width="8" height="16" xlink:href="7D9D3813.jpg"  transform="matrix(1 0 0 1 25 20)">
				</image>
			</g>
		</mask>
		<rect x="27" y="22" class="st4" width="4" height="12"/>
	</g>
</g>
<g>
	<g>
		<rect x="27" y="37" class="st0" width="4" height="4"/>
		<defs>
			<filter id="Adobe_OpacityMaskFilter_2_" filterUnits="userSpaceOnUse" x="27" y="37" width="4" height="4">
				
					<feColorMatrix  type="matrix" values="-1 0 0 0 1  0 -1 0 0 1  0 0 -1 0 1  0 0 0 1 0" color-interpolation-filters="sRGB" result="source"/>
			</filter>
		</defs>
		<mask maskUnits="userSpaceOnUse" x="27" y="37" width="4" height="4" id="SVGID_3_">
			<g class="st5">
				<image style="overflow:visible;" width="8" height="8" xlink:href="7D9D3814.jpg"  transform="matrix(1 0 0 1 25 35)">
				</image>
			</g>
		</mask>
		<rect x="27" y="37" class="st6" width="4" height="4"/>
	</g>
</g>
</svg>
